<svg width="165" height="101" viewBox="0 0 165 101" fill="none" xmlns="http://www.w3.org/2000/svg">
<path fill-rule="evenodd" clip-rule="evenodd" d="M132.075 76.6568C132.851 77.6684 133.868 78.4695 135.033 78.9868C136.198 79.5042 137.474 79.7213 138.745 79.6185C141.419 79.4956 144.035 78.7995 146.416 77.5773C142.32 76.9503 143.308 76.1098 140.439 75.1493C138.602 74.7119 136.679 74.7997 134.89 75.4028C136.968 74.6978 138.967 73.7767 140.853 72.6546C141.763 73.3458 142.82 73.8195 143.941 74.0391C145.063 74.2588 146.22 74.2187 147.323 73.9219C149.752 73.2647 152.021 72.1209 153.994 70.56C150.165 70.8269 150.939 69.893 148.164 69.6395C146.789 69.5844 145.42 69.8445 144.162 70.4C145.536 69.3278 146.821 68.1454 148.004 66.8646C149.015 67.3162 150.119 67.5215 151.226 67.4635C152.332 67.4055 153.409 67.086 154.367 66.5311C156.506 65.3421 158.384 63.7362 159.89 61.8084C156.355 62.9557 156.875 61.8751 154.221 62.2754C152.742 62.616 151.368 63.312 150.218 64.3032C151.381 62.776 152.425 61.1614 153.34 59.4738C154.448 59.6703 155.587 59.6089 156.667 59.2942C157.748 58.9796 158.741 58.4201 159.57 57.6594C161.449 55.9725 162.985 53.9386 164.093 51.6694C160.784 53.6171 161.104 52.4298 158.53 53.4304C156.932 54.188 155.555 55.3405 154.527 56.7789C155.345 54.9179 156.014 52.9953 156.529 51.029C157.597 50.9327 158.631 50.5989 159.554 50.0518C160.478 49.5048 161.267 48.7584 161.865 47.8672C163.291 45.8576 164.319 43.5933 164.893 41.1968C162.225 43.8649 162.225 42.6109 160.024 44.1584C158.765 45.1915 157.777 46.5145 157.142 48.014C157.486 46.0699 157.692 44.1038 157.756 42.1306C158.733 41.8477 159.634 41.3498 160.393 40.6735C161.153 39.9971 161.751 39.1594 162.145 38.2218C163.095 36.118 163.647 33.8563 163.773 31.5513C161.812 34.4196 161.665 33.3523 159.957 35.1667C158.818 36.6235 158.066 38.3443 157.769 40.1695C157.739 37.9821 157.534 35.8006 157.156 33.6458C158.071 33.2141 158.873 32.5763 159.501 31.7824C160.128 30.9885 160.563 30.0601 160.771 29.0699C161.253 26.9527 161.29 24.7583 160.878 22.6263C159.544 25.6947 159.13 24.7341 157.809 26.7753C157.023 28.273 156.659 29.9561 156.755 31.6447C156.622 31.0444 156.475 30.4574 156.302 29.857C155.982 28.643 155.595 27.469 155.168 26.3217C155.918 25.7364 156.528 24.9904 156.953 24.1386C157.378 23.2868 157.607 22.3506 157.622 21.3989C157.663 19.3819 157.3 17.3771 156.555 15.5022C155.915 18.584 155.368 17.7835 154.554 19.9181C154.153 21.2979 154.102 22.7562 154.407 24.1605C153.758 22.6776 153.014 21.2383 152.179 19.8514C152.681 19.1978 153.044 18.4495 153.248 17.6516C153.452 16.8537 153.493 16.0227 153.367 15.2087C153.127 13.3758 152.562 11.6004 151.699 9.96574C151.592 12.8341 151.045 12.1804 150.685 14.2082C150.543 15.5952 150.721 16.9964 151.206 18.3038C150.3 16.9076 149.307 15.5708 148.231 14.3016C148.633 13.6657 148.9 12.9537 149.015 12.2099C149.13 11.4662 149.09 10.7067 148.898 9.97908C148.511 8.38014 147.818 6.87141 146.856 5.53657C147.043 8.09802 146.47 7.59107 146.336 9.44545C146.351 10.8192 146.708 12.1674 147.377 13.3677C146.344 12.2849 145.243 11.2689 144.081 10.326C144.407 9.7142 144.592 9.0379 144.625 8.3458C144.657 7.6537 144.535 6.96306 144.268 6.32368C143.735 4.99921 142.92 3.80655 141.88 2.82837C142.334 5.0563 141.747 4.72278 141.88 6.39039C142.012 7.57083 142.474 8.69007 143.214 9.61888C142.103 8.749 140.94 7.94709 139.732 7.21752C139.828 6.63843 139.806 6.04607 139.669 5.47549C139.531 4.90491 139.281 4.3677 138.932 3.89564C138.191 2.84646 137.264 1.9421 136.197 1.22747C137.078 3.04183 136.531 2.82837 136.984 4.21582C137.372 5.15218 137.976 5.98396 138.745 6.64386C137.643 6.02853 136.508 5.47621 135.343 4.9896C135.36 4.4379 135.265 3.88847 135.063 3.37473C134.862 2.86098 134.557 2.39368 134.169 2.00124C133.316 1.14245 132.288 0.478036 131.154 0.0534668C132.221 1.65438 131.648 1.58767 132.248 2.8684C132.603 3.53808 133.122 4.10714 133.756 4.52266C133.465 4.463 133.166 4.463 132.875 4.52266C132.058 4.78758 131.224 5.00145 130.38 5.16303C130.999 5.75744 131.778 6.1565 132.622 6.31034C133.094 6.40821 133.582 6.39144 134.047 6.26145C134.511 6.13146 134.937 5.89203 135.29 5.56325C136.317 6.0035 137.318 6.48377 138.278 7.00407C137.851 6.84651 137.389 6.81411 136.944 6.91068C135.61 7.23086 135.97 7.48434 134.369 7.80452C135.095 8.36884 135.963 8.71993 136.877 8.81843C137.389 8.87805 137.908 8.81475 138.391 8.63378C138.873 8.45281 139.306 8.15938 139.652 7.77784C140.848 8.50166 141.998 9.29921 143.094 10.1659C142.349 9.62845 141.452 9.34332 140.533 9.35206C138.905 9.43211 139.199 9.73895 137.238 9.76563C138.135 10.4826 139.185 10.9846 140.306 11.2332C140.891 11.3841 141.5 11.417 142.098 11.33C142.696 11.2429 143.27 11.0377 143.788 10.7262C144.835 11.5948 145.824 12.5306 146.75 13.5278C146.088 12.9464 145.254 12.5994 144.375 12.5406C142.467 12.4472 142.827 12.8874 140.479 12.6873C141.357 13.7254 142.487 14.5202 143.761 14.9953C144.404 15.2561 145.096 15.371 145.788 15.3318C146.48 15.2926 147.155 15.1002 147.764 14.7685C149.039 16.3245 150.181 17.9846 151.179 19.7313C150.528 18.5985 149.483 17.7441 148.244 17.3299C146.309 16.8096 146.603 17.3299 144.242 16.6229C144.976 17.8522 145.991 18.89 147.203 19.6512C147.831 20.067 148.541 20.3408 149.286 20.4537C150.03 20.5666 150.79 20.5159 151.512 20.305C152.372 21.866 153.134 23.4789 153.794 25.1344C153.234 24.1743 152.384 23.4173 151.366 22.9731C149.391 22.186 149.658 22.7597 147.257 21.7057C147.927 23.0712 148.898 24.2664 150.098 25.2011C150.678 25.688 151.351 26.0515 152.075 26.2695C152.8 26.4874 153.562 26.5551 154.314 26.4684C154.701 27.509 155.061 28.5896 155.408 29.7103L155.728 30.8576C155.237 30.1116 154.561 29.505 153.767 29.0966C151.712 28.056 151.953 28.7097 149.458 27.3489C150.075 28.8722 151.023 30.2393 152.233 31.3512C153.303 32.4129 154.729 33.0402 156.235 33.1122C156.576 34.9179 156.786 36.7459 156.862 38.582C156.446 37.6777 155.83 36.8795 155.061 36.2473C153.047 34.6464 153.207 35.3935 150.779 33.3257C151.219 35.1088 152.018 36.7837 153.127 38.2484C154.051 39.5562 155.362 40.5408 156.875 41.0634C156.825 43.2136 156.593 45.3558 156.182 47.467C156.007 46.233 155.515 45.0654 154.754 44.0784C152.9 41.9305 152.913 42.7443 150.752 40.0761C150.821 42.1017 151.322 44.0891 152.219 45.9061C152.959 47.587 154.255 48.9624 155.888 49.8016C155.37 51.9068 154.673 53.9642 153.807 55.9518C153.793 54.6718 153.448 53.4173 152.806 52.3097C151.272 49.7483 151.139 50.6021 149.338 47.3736C149.052 49.4644 149.211 51.5921 149.805 53.6171C150.27 55.4234 151.304 57.0323 152.753 58.2064C151.641 60.285 150.337 62.2548 148.858 64.0897C149.216 62.7021 149.18 61.2417 148.751 59.874C147.817 57.0724 147.51 57.8595 146.47 54.3642C145.746 56.2921 145.445 58.3533 145.589 60.4076C145.66 62.32 146.364 64.1546 147.59 65.6239C146.014 67.4202 144.247 69.0395 142.32 70.4533C143.007 68.999 143.275 67.3821 143.094 65.784C142.667 62.7289 142.227 63.476 141.76 59.6739C140.723 61.5379 140.078 63.5946 139.866 65.7173C139.613 67.6737 139.962 69.6607 140.866 71.4139C139.023 72.5988 137.049 73.5659 134.983 74.2955L134.276 74.6157C135.4 73.4304 136.1 71.9054 136.264 70.2799C136.531 67.1181 135.837 67.7051 136.264 63.8229C134.645 65.2809 133.409 67.1131 132.662 69.1592C131.842 71.1614 131.799 73.3974 132.542 75.4295C128.873 77.0971 122.162 80.2589 120.695 81.5796C119.801 82.3667 120.495 83.5541 121.028 83.1272C122.109 82.2733 125.031 80.459 126.191 79.6985C128.088 78.564 130.053 77.5481 132.075 76.6568Z" fill="#E5E5E5"/>
<path fill-rule="evenodd" clip-rule="evenodd" d="M38.689 79.6584C39.823 80.4322 42.771 82.2332 43.851 83.087C44.398 83.5139 45.079 82.3266 44.198 81.5261C42.731 80.1921 36.02 77.057 32.338 75.3893C33.084 73.3543 33.046 71.1143 32.232 69.1058C31.481 67.0582 30.239 65.226 28.616 63.7694C29.07 67.6516 28.389 67.078 28.616 70.2398C28.786 71.8917 29.515 73.4359 30.684 74.6156L29.964 74.3087C27.901 73.5744 25.932 72.6029 24.094 71.4138C25.001 69.6666 25.346 67.6814 25.081 65.7305C24.875 63.6066 24.23 61.5485 23.186 59.6871C22.786 63.4893 22.346 62.7422 21.932 65.7973C21.744 67.3885 22.002 69.0009 22.679 70.4532C20.751 69.0468 18.988 67.4267 17.423 65.6238C18.65 64.1558 19.35 62.3195 19.411 60.4075C19.558 58.3586 19.263 56.3019 18.544 54.3775C17.503 57.8728 17.21 57.0456 16.249 59.8739C15.828 61.2433 15.795 62.7029 16.156 64.0896C14.7 62.2213 13.432 60.2151 12.367 58.0996C13.821 56.93 14.856 55.3193 15.315 53.5103C15.903 51.4887 16.062 49.3667 15.782 47.2801C13.981 50.5086 13.848 49.6548 12.314 52.2029C11.674 53.312 11.325 54.5649 11.3 55.845C10.447 53.8567 9.75099 51.8048 9.21899 49.7082C10.857 48.8714 12.157 47.4957 12.901 45.8126C13.792 43.998 14.292 42.0163 14.368 39.996C12.154 42.6642 12.154 41.9037 10.366 43.9983C9.54 44.984 8.992 46.1721 8.778 47.4402C8.357 45.3466 8.098 43.2235 8.005 41.0899C9.524 40.5715 10.841 39.5863 11.767 38.275C12.877 36.8276 13.684 35.1716 14.141 33.4056C11.7 35.4734 11.873 34.7397 9.85899 36.3406C9.07499 36.9438 8.44 37.7199 8.005 38.6085C8.073 36.7719 8.282 34.9432 8.632 33.1388C10.137 33.0668 11.563 32.4394 12.634 31.3778C13.846 30.2673 14.794 28.8999 15.409 27.3755C12.901 28.7096 13.154 28.0959 11.1 29.1232C10.305 29.5316 9.63001 30.1382 9.13901 30.8842C9.23201 30.4973 9.339 30.1237 9.459 29.7369C9.792 28.6296 10.166 27.549 10.553 26.5084C11.309 26.586 12.074 26.5076 12.799 26.2782C13.524 26.0487 14.194 25.673 14.768 25.1743C15.968 24.2448 16.94 23.0539 17.61 21.6923C15.209 22.7462 15.475 22.1592 13.501 22.9463C12.507 23.4152 11.683 24.1793 11.14 25.1343C11.804 23.4786 12.57 21.8657 13.434 20.3049C14.156 20.5222 14.917 20.5764 15.662 20.4633C16.408 20.3502 17.119 20.0728 17.743 19.6511C18.956 18.8899 19.971 17.8521 20.705 16.6228C18.33 17.3432 18.637 16.8229 16.703 17.3298C15.463 17.7439 14.419 18.5984 13.768 19.7312C14.76 17.9682 15.902 16.2944 17.183 14.7284C17.794 15.0544 18.469 15.2425 19.16 15.2793C19.852 15.3162 20.543 15.201 21.185 14.9418C22.456 14.4674 23.585 13.6778 24.467 12.6472C22.119 12.8473 22.479 12.3937 20.572 12.4871C19.691 12.5497 18.857 12.9015 18.197 13.4877C19.149 12.5056 20.16 11.5834 21.225 10.7261C21.743 11.0381 22.318 11.2427 22.916 11.3275C23.514 11.4123 24.124 11.3756 24.707 11.2197C25.831 10.9767 26.881 10.4741 27.776 9.75219C25.748 9.75219 26.108 9.41866 24.481 9.35196C23.563 9.33839 22.665 9.6189 21.919 10.1524C23.01 9.27252 24.155 8.46159 25.348 7.72437C25.694 8.10592 26.127 8.39935 26.609 8.58032C27.092 8.76129 27.611 8.82459 28.123 8.76496C29.057 8.68284 29.947 8.33054 30.684 7.75105C29.78 7.50415 28.889 7.21025 28.016 6.87056C27.573 6.76263 27.108 6.79052 26.682 6.9506C27.642 6.43031 28.643 5.95004 29.67 5.50979C30.023 5.83812 30.449 6.07818 30.913 6.21035C31.377 6.34252 31.865 6.36303 32.338 6.27022C33.218 6.13026 34.035 5.73074 34.686 5.1229C33.846 4.94947 33.019 4.73602 32.192 4.48254C31.902 4.41626 31.601 4.41626 31.311 4.48254C31.942 4.06355 32.46 3.49533 32.819 2.82827C33.406 1.49418 32.819 1.60091 33.913 0C32.789 0.42796 31.769 1.09218 30.924 1.94777C30.538 2.34158 30.235 2.80912 30.033 3.32254C29.832 3.83595 29.735 4.38472 29.75 4.93613C28.588 5.42814 27.453 5.98031 26.348 6.5904C27.08 5.92797 27.651 5.10646 28.016 4.18904C28.469 2.85495 27.922 3.02838 28.803 1.20068C27.738 1.91832 26.812 2.8222 26.068 3.86886C25.731 4.35326 25.493 4.90005 25.369 5.47729C25.246 6.05453 25.238 6.65063 25.348 7.23076C24.143 7.9544 22.985 8.75193 21.879 9.61878C22.643 8.69762 23.129 7.57771 23.28 6.39028C23.347 4.72267 22.76 5.0562 23.213 2.82827C22.176 3.81186 21.358 5.00281 20.812 6.32358C20.55 6.96456 20.432 7.65535 20.466 8.34699C20.501 9.03863 20.687 9.71421 21.012 10.3259C19.841 11.3059 18.731 12.3574 17.69 13.4743C18.34 12.2692 18.679 10.9212 18.677 9.55207C18.53 7.69769 17.97 8.21799 18.157 5.6432C17.2 6.98089 16.508 8.48863 16.116 10.0857C15.924 10.8133 15.884 11.5728 15.998 12.3165C16.113 13.0603 16.38 13.7723 16.783 14.4082C15.706 15.6799 14.708 17.0165 13.794 18.4104C14.29 17.1056 14.472 15.703 14.328 14.3148C13.955 12.287 13.408 12.9807 13.314 10.0857C12.449 11.6958 11.884 13.4498 11.647 15.262C11.522 16.0729 11.562 16.9006 11.764 17.6958C11.965 18.491 12.325 19.2377 12.821 19.8913C12.021 21.2889 11.304 22.7322 10.673 24.2137C10.98 22.8089 10.925 21.349 10.513 19.9713C9.699 17.8368 9.179 18.6372 8.511 15.5422C7.743 17.398 7.35701 19.3901 7.37801 21.3988C7.38501 22.3355 7.599 23.259 8.005 24.1032C8.411 24.9473 8.998 25.6912 9.726 26.2816C9.299 27.4289 8.925 28.6029 8.578 29.8169C8.418 30.4172 8.271 31.0042 8.138 31.6046C8.234 29.9159 7.87 28.2329 7.084 26.7352C5.75 24.694 5.35001 25.6545 4.01601 22.5861C3.60401 24.7182 3.63999 26.9126 4.12199 29.0298C4.32499 30.0272 4.75699 30.9636 5.38499 31.7649C6.01199 32.5661 6.81801 33.2101 7.73801 33.6457C7.36001 35.8005 7.15399 37.982 7.12399 40.1694C6.82199 38.346 6.07 36.6266 4.936 35.1666C3.228 33.4056 3.082 34.4328 1.121 31.5512C1.24 33.857 1.793 36.1198 2.748 38.2217C3.142 39.1593 3.74 39.997 4.5 40.6734C5.259 41.3498 6.16099 41.8476 7.13699 42.1305C7.19499 44.1042 7.40001 46.0708 7.75101 48.0139C7.12401 46.484 6.13 45.1323 4.856 44.0783C2.668 42.5708 2.668 43.7715 0 41.1566C0.575 43.5506 1.598 45.814 3.015 47.8271C3.626 48.7236 4.429 49.4726 5.366 50.0195C6.303 50.5665 7.35 50.8976 8.431 50.9889C8.944 52.9558 9.613 54.8786 10.433 56.7388C9.425 55.3145 8.06999 54.1711 6.49699 53.4169C3.92199 52.4164 4.24201 53.6037 0.934006 51.6426C2.05701 53.9164 3.61099 55.9506 5.50999 57.6326C6.33699 58.3981 7.329 58.9624 8.41 59.2817C9.49 59.601 10.63 59.6667 11.74 59.4737C12.655 61.1613 13.699 62.7759 14.862 64.3031C13.712 63.3119 12.339 62.6159 10.859 62.2753C8.19099 61.875 8.725 62.9556 5.19 61.8083C6.685 63.732 8.549 65.3377 10.673 66.531C11.633 67.0819 12.708 67.4002 13.813 67.4605C14.918 67.5207 16.022 67.3212 17.036 66.8779C18.223 68.1509 19.507 69.3286 20.878 70.3999C19.619 69.8458 18.251 69.5857 16.876 69.6394C14.101 69.8929 14.875 70.8401 11.046 70.5599C13.016 72.1259 15.286 73.2702 17.717 73.9218C18.82 74.2186 19.977 74.2587 21.099 74.0391C22.221 73.8194 23.277 73.3457 24.187 72.6545C26.073 73.7766 28.072 74.6977 30.15 75.4027C28.361 74.7996 26.438 74.7118 24.601 75.1492C21.732 76.1098 22.72 76.9502 18.624 77.5773C21.005 78.7994 23.621 79.4955 26.295 79.6184C27.566 79.7213 28.842 79.5041 30.007 78.9867C31.172 78.4694 32.189 77.6683 32.965 76.6567C34.932 77.5409 36.843 78.5433 38.689 79.6584Z" fill="#E5E5E5"/>
<path d="M73.4426 24.3733H70.7033L70.6887 22.8645H72.9885C73.3937 22.8645 73.7258 22.8132 73.9846 22.7107C74.2434 22.6033 74.4362 22.4495 74.5632 22.2493C74.695 22.0442 74.7609 21.7952 74.7609 21.5022C74.7609 21.1702 74.6975 20.9016 74.5705 20.6965C74.4484 20.4915 74.2556 20.3425 73.9919 20.2498C73.7331 20.157 73.3986 20.1106 72.9885 20.1106H71.465V29.0535H69.2678V18.3894H72.9885C73.6086 18.3894 74.1628 18.448 74.6511 18.5652C75.1442 18.6824 75.5617 18.8606 75.9035 19.0999C76.2453 19.3391 76.5065 19.6418 76.6872 20.0081C76.8679 20.3694 76.9582 20.7991 76.9582 21.2971C76.9582 21.7366 76.8581 22.1418 76.6579 22.5129C76.4626 22.884 76.1525 23.1868 75.7277 23.4211C75.3078 23.6555 74.7585 23.7849 74.0798 23.8093L73.4426 24.3733ZM73.3474 29.0535H70.1027L70.9597 27.3396H73.3474C73.7331 27.3396 74.048 27.2786 74.2922 27.1565C74.5363 27.0295 74.717 26.8586 74.8342 26.6438C74.9514 26.429 75.01 26.1824 75.01 25.9041C75.01 25.5916 74.9562 25.3206 74.8488 25.0911C74.7463 24.8616 74.5803 24.6858 74.3508 24.5637C74.1213 24.4368 73.8186 24.3733 73.4426 24.3733H71.3259L71.3405 22.8645H73.9772L74.4826 23.4578C75.132 23.448 75.6545 23.5627 76.05 23.802C76.4504 24.0364 76.7409 24.3416 76.9216 24.7175C77.1071 25.0935 77.1999 25.4963 77.1999 25.926C77.1999 26.6096 77.051 27.1858 76.7531 27.6545C76.4553 28.1184 76.0183 28.4675 75.4421 28.7019C74.8708 28.9363 74.1726 29.0535 73.3474 29.0535ZM82.6635 29.2C82.0482 29.2 81.4965 29.1023 81.0082 28.907C80.5199 28.7068 80.1049 28.4309 79.7631 28.0793C79.4262 27.7278 79.1674 27.3201 78.9867 26.8562C78.8061 26.3875 78.7157 25.8894 78.7157 25.3621V25.0691C78.7157 24.4685 78.8012 23.9192 78.9721 23.4211C79.143 22.9231 79.3871 22.491 79.7045 22.1248C80.0268 21.7585 80.4174 21.4778 80.8764 21.2825C81.3354 21.0823 81.8529 20.9822 82.4291 20.9822C82.9906 20.9822 83.4887 21.075 83.9232 21.2605C84.3578 21.446 84.7216 21.7097 85.0145 22.0515C85.3124 22.3933 85.537 22.8035 85.6884 23.282C85.8397 23.7556 85.9154 24.283 85.9154 24.864V25.7429H79.6166V24.3367H83.8427V24.1755C83.8427 23.8826 83.789 23.6213 83.6815 23.3918C83.579 23.1575 83.4228 22.9719 83.2128 22.8352C83.0028 22.6985 82.7343 22.6301 82.4071 22.6301C82.1288 22.6301 81.8895 22.6912 81.6894 22.8132C81.4892 22.9353 81.3256 23.1062 81.1986 23.3259C81.0766 23.5457 80.9838 23.8044 80.9203 24.1023C80.8617 24.3953 80.8324 24.7175 80.8324 25.0691V25.3621C80.8324 25.6794 80.8764 25.9724 80.9643 26.241C81.057 26.5095 81.1864 26.7415 81.3524 26.9368C81.5233 27.1321 81.7284 27.2834 81.9677 27.3909C82.2118 27.4983 82.4877 27.552 82.7953 27.552C83.1762 27.552 83.5302 27.4788 83.8573 27.3323C84.1894 27.1809 84.475 26.9539 84.7143 26.6511L85.7396 27.7644C85.5736 28.0037 85.3466 28.2332 85.0585 28.4529C84.7753 28.6726 84.4335 28.8533 84.0331 28.9949C83.6327 29.1316 83.1762 29.2 82.6635 29.2ZM91.7013 26.8635C91.7013 26.7122 91.6573 26.5754 91.5694 26.4534C91.4815 26.3313 91.318 26.219 91.0787 26.1165C90.8443 26.009 90.505 25.9114 90.0606 25.8235C89.6603 25.7356 89.2867 25.6257 88.94 25.4939C88.5982 25.3572 88.3004 25.1936 88.0465 25.0032C87.7975 24.8127 87.6021 24.5881 87.4605 24.3293C87.3189 24.0657 87.2481 23.7654 87.2481 23.4285C87.2481 23.0964 87.3189 22.7839 87.4605 22.491C87.607 22.198 87.8146 21.9392 88.0831 21.7146C88.3565 21.4851 88.6886 21.3069 89.0792 21.1799C89.4747 21.0481 89.919 20.9822 90.4122 20.9822C91.1007 20.9822 91.6915 21.092 92.1847 21.3118C92.6827 21.5315 93.0636 21.8342 93.3272 22.22C93.5958 22.6008 93.7301 23.0354 93.7301 23.5237H91.6207C91.6207 23.3186 91.5768 23.1355 91.4889 22.9744C91.4059 22.8083 91.274 22.679 91.0934 22.5862C90.9176 22.4885 90.6881 22.4397 90.4049 22.4397C90.1705 22.4397 89.9679 22.4812 89.797 22.5642C89.6261 22.6423 89.4942 22.7498 89.4015 22.8865C89.3136 23.0183 89.2696 23.1648 89.2696 23.3259C89.2696 23.448 89.294 23.5579 89.3429 23.6555C89.3966 23.7483 89.482 23.8337 89.5992 23.9119C89.7164 23.99 89.8678 24.0632 90.0533 24.1316C90.2438 24.1951 90.4781 24.2537 90.7564 24.3074C91.3277 24.4246 91.838 24.5784 92.2872 24.7688C92.7364 24.9543 93.0929 25.2083 93.3565 25.5305C93.6202 25.8479 93.7521 26.2654 93.7521 26.783C93.7521 27.1345 93.6739 27.4568 93.5177 27.7498C93.3614 28.0427 93.1368 28.2991 92.8438 28.5188C92.5509 28.7336 92.1993 28.9021 91.7892 29.0242C91.3839 29.1414 90.9273 29.2 90.4195 29.2C89.6822 29.2 89.0572 29.0681 88.5445 28.8044C88.0367 28.5408 87.651 28.2063 87.3873 27.801C87.1285 27.3909 86.9991 26.9709 86.9991 26.5413H88.9986C89.0084 26.8293 89.0816 27.0613 89.2184 27.2371C89.36 27.4128 89.5382 27.5398 89.753 27.6179C89.9728 27.696 90.2096 27.7351 90.4635 27.7351C90.7369 27.7351 90.964 27.6985 91.1446 27.6252C91.3253 27.5471 91.462 27.4446 91.5548 27.3176C91.6524 27.1858 91.7013 27.0344 91.7013 26.8635ZM99.3035 21.1287V22.6228H94.6893V21.1287H99.3035ZM95.8318 19.1731H97.9412V26.6658C97.9412 26.8953 97.9705 27.071 98.0291 27.1931C98.0926 27.3152 98.1853 27.4006 98.3074 27.4495C98.4295 27.4934 98.5833 27.5154 98.7688 27.5154C98.9007 27.5154 99.0179 27.5105 99.1204 27.5007C99.2278 27.4861 99.3182 27.4714 99.3914 27.4568L99.3987 29.0095C99.2181 29.0681 99.0228 29.1145 98.8128 29.1487C98.6028 29.1829 98.3709 29.2 98.117 29.2C97.6531 29.2 97.2478 29.1243 96.9012 28.9729C96.5594 28.8167 96.2957 28.5676 96.1102 28.2258C95.9246 27.884 95.8318 27.4348 95.8318 26.8782V19.1731ZM57.1468 43.5159H59.3367C59.2928 44.2336 59.095 44.8708 58.7435 45.4275C58.3968 45.9841 57.9109 46.4187 57.2859 46.7312C56.6658 47.0437 55.9188 47.2 55.0447 47.2C54.3611 47.2 53.7483 47.0828 53.2063 46.8484C52.6644 46.6091 52.2005 46.2673 51.8147 45.823C51.4339 45.3787 51.1434 44.8416 50.9432 44.2117C50.743 43.5818 50.6429 42.8762 50.6429 42.095V41.3552C50.6429 40.574 50.7454 39.8684 50.9505 39.2385C51.1604 38.6038 51.4583 38.0642 51.844 37.6199C52.2347 37.1755 52.701 36.8337 53.243 36.5945C53.785 36.3552 54.3904 36.2356 55.0594 36.2356C55.948 36.2356 56.6976 36.3967 57.3079 36.719C57.9231 37.0413 58.3992 37.4856 58.7361 38.052C59.0779 38.6184 59.283 39.2629 59.3514 39.9856H57.1541C57.1297 39.5559 57.0442 39.1921 56.8978 38.8943C56.7513 38.5916 56.5291 38.3645 56.2313 38.2131C55.9383 38.0569 55.5477 37.9788 55.0594 37.9788C54.6932 37.9788 54.3733 38.0471 54.0999 38.1838C53.8265 38.3206 53.597 38.5281 53.4114 38.8064C53.2259 39.0847 53.0867 39.4363 52.9939 39.8611C52.9061 40.281 52.8621 40.7742 52.8621 41.3406V42.095C52.8621 42.6467 52.9036 43.1326 52.9866 43.5525C53.0696 43.9675 53.1966 44.3191 53.3675 44.6072C53.5433 44.8904 53.7679 45.1052 54.0413 45.2517C54.3196 45.3933 54.6541 45.4641 55.0447 45.4641C55.5037 45.4641 55.8821 45.3909 56.18 45.2444C56.4778 45.0979 56.7049 44.8806 56.8611 44.5925C57.0223 44.3044 57.1175 43.9456 57.1468 43.5159ZM65.6353 45.1565V39.1287H67.7446V47.0535H65.7598L65.6353 45.1565ZM65.8696 43.5305L66.4922 43.5159C66.4922 44.0432 66.4312 44.5339 66.3091 44.988C66.187 45.4373 66.0039 45.8279 65.7598 46.1599C65.5156 46.4871 65.208 46.7434 64.8369 46.929C64.4658 47.1096 64.0288 47.2 63.5259 47.2C63.1401 47.2 62.7837 47.1462 62.4565 47.0388C62.1343 46.9265 61.856 46.7532 61.6216 46.5188C61.3921 46.2795 61.2114 45.9744 61.0796 45.6033C60.9526 45.2273 60.8892 44.7756 60.8892 44.2483V39.1287H62.9985V44.2629C62.9985 44.4973 63.0254 44.6951 63.0791 44.8562C63.1377 45.0173 63.2183 45.1492 63.3208 45.2517C63.4233 45.3542 63.543 45.4275 63.6797 45.4714C63.8213 45.5154 63.9775 45.5374 64.1484 45.5374C64.583 45.5374 64.9248 45.4495 65.1738 45.2737C65.4277 45.0979 65.606 44.8586 65.7085 44.5559C65.8159 44.2483 65.8696 43.9065 65.8696 43.5305ZM73.9406 44.8635C73.9406 44.7122 73.8967 44.5754 73.8088 44.4534C73.7209 44.3313 73.5573 44.219 73.3181 44.1165C73.0837 44.009 72.7443 43.9114 72.3 43.8235C71.8996 43.7356 71.5261 43.6257 71.1794 43.4939C70.8376 43.3572 70.5397 43.1936 70.2858 43.0032C70.0368 42.8127 69.8415 42.5881 69.6999 42.3293C69.5583 42.0657 69.4875 41.7654 69.4875 41.4285C69.4875 41.0964 69.5583 40.7839 69.6999 40.491C69.8464 40.198 70.0539 39.9392 70.3225 39.7146C70.5959 39.4851 70.9279 39.3069 71.3186 39.1799C71.7141 39.0481 72.1584 38.9822 72.6516 38.9822C73.34 38.9822 73.9309 39.092 74.424 39.3118C74.9221 39.5315 75.3029 39.8342 75.5666 40.22C75.8352 40.6008 75.9694 41.0354 75.9694 41.5237H73.8601C73.8601 41.3186 73.8161 41.1355 73.7282 40.9744C73.6452 40.8083 73.5134 40.679 73.3327 40.5862C73.1569 40.4885 72.9274 40.4397 72.6442 40.4397C72.4099 40.4397 72.2072 40.4812 72.0363 40.5642C71.8654 40.6423 71.7336 40.7498 71.6408 40.8865C71.5529 41.0183 71.509 41.1648 71.509 41.3259C71.509 41.448 71.5334 41.5579 71.5822 41.6555C71.6359 41.7483 71.7214 41.8337 71.8386 41.9119C71.9558 41.99 72.1071 42.0632 72.2927 42.1316C72.4831 42.1951 72.7175 42.2537 72.9958 42.3074C73.5671 42.4246 74.0773 42.5784 74.5266 42.7688C74.9758 42.9543 75.3322 43.2083 75.5959 43.5305C75.8596 43.8479 75.9914 44.2654 75.9914 44.783C75.9914 45.1345 75.9133 45.4568 75.757 45.7498C75.6008 46.0427 75.3762 46.2991 75.0832 46.5188C74.7902 46.7336 74.4387 46.9021 74.0285 47.0242C73.6232 47.1414 73.1667 47.2 72.6589 47.2C71.9216 47.2 71.2966 47.0681 70.7839 46.8044C70.2761 46.5408 69.8903 46.2063 69.6267 45.801C69.3679 45.3909 69.2385 44.9709 69.2385 44.5413H71.238C71.2478 44.8293 71.321 45.0613 71.4577 45.2371C71.5993 45.4128 71.7775 45.5398 71.9924 45.6179C72.2121 45.696 72.4489 45.7351 72.7028 45.7351C72.9763 45.7351 73.2033 45.6985 73.384 45.6252C73.5646 45.5471 73.7014 45.4446 73.7941 45.3176C73.8918 45.1858 73.9406 45.0344 73.9406 44.8635ZM81.5429 39.1287V40.6228H76.9286V39.1287H81.5429ZM78.0712 37.1731H80.1806V44.6658C80.1806 44.8953 80.2099 45.071 80.2685 45.1931C80.3319 45.3152 80.4247 45.4006 80.5468 45.4495C80.6688 45.4934 80.8227 45.5154 81.0082 45.5154C81.14 45.5154 81.2572 45.5105 81.3598 45.5007C81.4672 45.4861 81.5575 45.4714 81.6308 45.4568L81.6381 47.0095C81.4574 47.0681 81.2621 47.1145 81.0521 47.1487C80.8422 47.1829 80.6103 47.2 80.3563 47.2C79.8925 47.2 79.4872 47.1243 79.1405 46.9729C78.7987 46.8167 78.5351 46.5676 78.3495 46.2258C78.164 45.884 78.0712 45.4348 78.0712 44.8782V37.1731ZM82.5167 43.1716V43.0178C82.5167 42.4368 82.5997 41.9021 82.7657 41.4138C82.9317 40.9207 83.1734 40.4934 83.4908 40.1321C83.8082 39.7708 84.1988 39.49 84.6627 39.2898C85.1266 39.0847 85.6588 38.9822 86.2594 38.9822C86.86 38.9822 87.3946 39.0847 87.8634 39.2898C88.3321 39.49 88.7252 39.7708 89.0426 40.1321C89.3648 40.4934 89.609 40.9207 89.775 41.4138C89.941 41.9021 90.024 42.4368 90.024 43.0178V43.1716C90.024 43.7478 89.941 44.2825 89.775 44.7756C89.609 45.2639 89.3648 45.6912 89.0426 46.0574C88.7252 46.4187 88.3346 46.6995 87.8707 46.8997C87.4068 47.0999 86.8746 47.2 86.274 47.2C85.6734 47.2 85.1388 47.0999 84.67 46.8997C84.2062 46.6995 83.8131 46.4187 83.4908 46.0574C83.1734 45.6912 82.9317 45.2639 82.7657 44.7756C82.5997 44.2825 82.5167 43.7478 82.5167 43.1716ZM84.6261 43.0178V43.1716C84.6261 43.5037 84.6554 43.8137 84.714 44.1018C84.7726 44.3899 84.8653 44.6438 84.9923 44.8635C85.1241 45.0784 85.295 45.2468 85.505 45.3689C85.7149 45.491 85.9713 45.552 86.274 45.552C86.567 45.552 86.8185 45.491 87.0284 45.3689C87.2384 45.2468 87.4068 45.0784 87.5338 44.8635C87.6607 44.6438 87.7535 44.3899 87.8121 44.1018C87.8756 43.8137 87.9073 43.5037 87.9073 43.1716V43.0178C87.9073 42.6956 87.8756 42.3928 87.8121 42.1096C87.7535 41.8215 87.6583 41.5676 87.5265 41.3479C87.3995 41.1233 87.2311 40.9475 87.0211 40.8206C86.8111 40.6936 86.5572 40.6301 86.2594 40.6301C85.9615 40.6301 85.7076 40.6936 85.4977 40.8206C85.2926 40.9475 85.1241 41.1233 84.9923 41.3479C84.8653 41.5676 84.7726 41.8215 84.714 42.1096C84.6554 42.3928 84.6261 42.6956 84.6261 43.0178ZM93.7298 40.7693V47.0535H91.6131V39.1287H93.5979L93.7298 40.7693ZM93.4368 42.8127H92.8509C92.8509 42.261 92.9168 41.7532 93.0486 41.2893C93.1854 40.8206 93.3831 40.4153 93.6419 40.0735C93.9056 39.7268 94.2303 39.4583 94.616 39.2678C95.0018 39.0774 95.4485 38.9822 95.9563 38.9822C96.3079 38.9822 96.6302 39.0359 96.9231 39.1433C97.2161 39.2458 97.4676 39.4094 97.6775 39.634C97.8924 39.8538 98.0584 40.1418 98.1756 40.4983C98.2928 40.8499 98.3514 41.2722 98.3514 41.7654V47.0535H96.242V41.9998C96.242 41.6384 96.1932 41.3601 96.0955 41.1648C95.9979 40.9695 95.8587 40.8328 95.678 40.7546C95.5022 40.6765 95.2898 40.6375 95.0408 40.6375C94.7674 40.6375 94.5281 40.6936 94.323 40.8059C94.1229 40.9182 93.9568 41.0745 93.825 41.2747C93.6932 41.47 93.5955 41.6995 93.532 41.9631C93.4686 42.2268 93.4368 42.51 93.4368 42.8127ZM98.1536 42.571L97.3992 42.6663C97.3992 42.1487 97.4627 41.6677 97.5896 41.2234C97.7215 40.7791 97.9144 40.3884 98.1683 40.0515C98.4271 39.7146 98.7469 39.4534 99.1277 39.2678C99.5086 39.0774 99.948 38.9822 100.446 38.9822C100.827 38.9822 101.174 39.0383 101.486 39.1506C101.799 39.2581 102.065 39.4314 102.284 39.6707C102.509 39.905 102.68 40.2126 102.797 40.5935C102.919 40.9744 102.98 41.4407 102.98 41.9924V47.0535H100.864V41.9924C100.864 41.6262 100.815 41.3479 100.717 41.1575C100.624 40.9622 100.488 40.8279 100.307 40.7546C100.131 40.6765 99.9212 40.6375 99.6771 40.6375C99.4231 40.6375 99.201 40.6887 99.0105 40.7913C98.8201 40.8889 98.6614 41.0256 98.5345 41.2014C98.4075 41.3772 98.3123 41.5823 98.2488 41.8167C98.1854 42.0461 98.1536 42.2976 98.1536 42.571ZM108.561 47.2C107.946 47.2 107.394 47.1023 106.906 46.907C106.417 46.7068 106.002 46.4309 105.661 46.0793C105.324 45.7278 105.065 45.3201 104.884 44.8562C104.704 44.3875 104.613 43.8894 104.613 43.3621V43.0691C104.613 42.4685 104.699 41.9192 104.87 41.4211C105.041 40.9231 105.285 40.491 105.602 40.1248C105.924 39.7585 106.315 39.4778 106.774 39.2825C107.233 39.0823 107.75 38.9822 108.327 38.9822C108.888 38.9822 109.386 39.075 109.821 39.2605C110.255 39.446 110.619 39.7097 110.912 40.0515C111.21 40.3933 111.435 40.8035 111.586 41.282C111.737 41.7556 111.813 42.283 111.813 42.864V43.7429H105.514V42.3367H109.74V42.1755C109.74 41.8826 109.687 41.6213 109.579 41.3918C109.477 41.1575 109.32 40.9719 109.11 40.8352C108.9 40.6985 108.632 40.6301 108.305 40.6301C108.026 40.6301 107.787 40.6912 107.587 40.8132C107.387 40.9353 107.223 41.1062 107.096 41.3259C106.974 41.5457 106.881 41.8044 106.818 42.1023C106.759 42.3953 106.73 42.7175 106.73 43.0691V43.3621C106.73 43.6794 106.774 43.9724 106.862 44.241C106.955 44.5095 107.084 44.7415 107.25 44.9368C107.421 45.1321 107.626 45.2834 107.865 45.3909C108.109 45.4983 108.385 45.552 108.693 45.552C109.074 45.552 109.428 45.4788 109.755 45.3323C110.087 45.1809 110.373 44.9539 110.612 44.6511L111.637 45.7644C111.471 46.0037 111.244 46.2332 110.956 46.4529C110.673 46.6726 110.331 46.8533 109.931 46.9949C109.53 47.1316 109.074 47.2 108.561 47.2ZM115.424 40.8572V47.0535H113.314V39.1287H115.299L115.424 40.8572ZM117.811 39.0774L117.775 41.033C117.672 41.0183 117.548 41.0061 117.401 40.9963C117.259 40.9817 117.13 40.9744 117.013 40.9744C116.715 40.9744 116.456 41.0134 116.237 41.0916C116.022 41.1648 115.841 41.2747 115.695 41.4211C115.553 41.5676 115.446 41.7458 115.372 41.9558C115.304 42.1658 115.265 42.405 115.255 42.6736L114.83 42.5417C114.83 42.0291 114.882 41.5579 114.984 41.1282C115.087 40.6936 115.236 40.3152 115.431 39.9929C115.631 39.6707 115.875 39.4216 116.163 39.2458C116.451 39.0701 116.781 38.9822 117.152 38.9822C117.269 38.9822 117.389 38.9919 117.511 39.0115C117.633 39.0261 117.733 39.0481 117.811 39.0774ZM48.4093 63.3396V65.0535H42.733V63.3396H48.4093ZM43.4508 54.3894V65.0535H41.2535V54.3894H43.4508ZM47.6695 58.7327V60.4026H42.733V58.7327H47.6695ZM48.402 54.3894V56.1106H42.733V54.3894H48.402ZM51.9246 58.8206V65.0535H49.8152V57.1287H51.7928L51.9246 58.8206ZM51.617 60.8127H51.0457C51.0457 60.2268 51.1214 59.6995 51.2728 59.2307C51.4241 58.7571 51.6365 58.3542 51.91 58.0222C52.1834 57.6853 52.5081 57.429 52.8841 57.2532C53.2649 57.0725 53.6897 56.9822 54.1585 56.9822C54.5296 56.9822 54.8689 57.0359 55.1766 57.1433C55.4842 57.2507 55.7479 57.4216 55.9676 57.656C56.1922 57.8904 56.3631 58.2004 56.4803 58.5862C56.6023 58.9719 56.6634 59.4431 56.6634 59.9998V65.0535H54.5394V59.9924C54.5394 59.6409 54.4905 59.3674 54.3929 59.1721C54.2952 58.9768 54.1512 58.8401 53.9607 58.762C53.7752 58.679 53.5457 58.6375 53.2723 58.6375C52.9891 58.6375 52.7425 58.6936 52.5325 58.8059C52.3274 58.9182 52.1565 59.0745 52.0198 59.2747C51.888 59.47 51.7879 59.6995 51.7195 59.9631C51.6512 60.2268 51.617 60.51 51.617 60.8127ZM63.5845 57.1287H65.4961V64.7898C65.4961 65.5125 65.335 66.1252 65.0127 66.6282C64.6953 67.136 64.251 67.5193 63.6797 67.7781C63.1084 68.0417 62.4443 68.1736 61.6875 68.1736C61.3555 68.1736 61.0039 68.1296 60.6328 68.0417C60.2666 67.9539 59.915 67.8171 59.5781 67.6316C59.2461 67.446 58.9678 67.2117 58.7432 66.9285L59.6733 65.6833C59.9175 65.9666 60.2007 66.1863 60.523 66.3425C60.8452 66.5037 61.2017 66.5842 61.5923 66.5842C61.9731 66.5842 62.2954 66.5134 62.5591 66.3718C62.8228 66.2351 63.0254 66.0325 63.167 65.7639C63.3086 65.5002 63.3794 65.1804 63.3794 64.8044V58.9597L63.5845 57.1287ZM58.2524 61.1863V61.0325C58.2524 60.427 58.3257 59.8777 58.4722 59.3845C58.6235 58.8865 58.8359 58.4592 59.1094 58.1028C59.3877 57.7463 59.7246 57.4705 60.1201 57.2751C60.5156 57.0798 60.9624 56.9822 61.4605 56.9822C61.9878 56.9822 62.4297 57.0798 62.7861 57.2751C63.1426 57.4705 63.4355 57.7488 63.665 58.1101C63.8945 58.4666 64.0728 58.8889 64.1997 59.3772C64.3315 59.8606 64.4341 60.3904 64.5073 60.9666V61.3035C64.4341 61.8552 64.3242 62.3679 64.1777 62.8416C64.0313 63.3152 63.8384 63.7302 63.5991 64.0867C63.3599 64.4382 63.062 64.7117 62.7056 64.907C62.354 65.1023 61.9341 65.2 61.4458 65.2C60.9575 65.2 60.5156 65.0999 60.1201 64.8997C59.7295 64.6995 59.395 64.4187 59.1167 64.0574C58.8384 63.696 58.6235 63.2712 58.4722 62.783C58.3257 62.2947 58.2524 61.7625 58.2524 61.1863ZM60.3618 61.0325V61.1863C60.3618 61.5134 60.3936 61.8186 60.457 62.1018C60.5205 62.385 60.6182 62.6365 60.75 62.8562C60.8867 63.071 61.0552 63.2395 61.2554 63.3616C61.4605 63.4788 61.7022 63.5374 61.9805 63.5374C62.3662 63.5374 62.6812 63.4568 62.9253 63.2957C63.1694 63.1296 63.3525 62.9026 63.4746 62.6145C63.5967 62.3264 63.6675 61.9944 63.687 61.6184V60.6589C63.6772 60.3513 63.6357 60.0754 63.5625 59.8313C63.4893 59.5823 63.3867 59.3699 63.2549 59.1941C63.123 59.0183 62.9522 58.8816 62.7422 58.7839C62.5322 58.6863 62.2832 58.6375 61.9951 58.6375C61.7168 58.6375 61.4751 58.7009 61.27 58.8279C61.0698 58.95 60.9014 59.1184 60.7647 59.3333C60.6328 59.5481 60.5327 59.802 60.4644 60.095C60.396 60.3831 60.3618 60.6956 60.3618 61.0325ZM71.7141 63.2664V59.7361C71.7141 59.4822 71.6726 59.2649 71.5896 59.0842C71.5065 58.8987 71.3771 58.7546 71.2014 58.6521C71.0305 58.5496 70.8083 58.4983 70.5349 58.4983C70.3005 58.4983 70.0979 58.5398 69.927 58.6228C69.7561 58.7009 69.6242 58.8157 69.5314 58.967C69.4387 59.1135 69.3923 59.2869 69.3923 59.4871H67.2829C67.2829 59.1501 67.361 58.8303 67.5173 58.5276C67.6735 58.2249 67.9006 57.9587 68.1984 57.7292C68.4963 57.4949 68.8503 57.3118 69.2605 57.1799C69.6755 57.0481 70.1394 56.9822 70.6521 56.9822C71.2673 56.9822 71.8142 57.0847 72.2927 57.2898C72.7712 57.4949 73.1472 57.8025 73.4206 58.2126C73.6989 58.6228 73.8381 59.1355 73.8381 59.7507V63.1418C73.8381 63.5764 73.8649 63.9329 73.9187 64.2112C73.9724 64.4846 74.0505 64.7239 74.153 64.929V65.0535H72.0217C71.9191 64.8386 71.841 64.5701 71.7873 64.2478C71.7385 63.9207 71.7141 63.5935 71.7141 63.2664ZM71.9924 60.2268L72.007 61.4207H70.8278C70.5495 61.4207 70.3078 61.4524 70.1027 61.5159C69.8977 61.5793 69.7292 61.6697 69.5974 61.7869C69.4655 61.8992 69.3679 62.031 69.3044 62.1824C69.2458 62.3337 69.2165 62.4998 69.2165 62.6804C69.2165 62.8611 69.258 63.0247 69.341 63.1711C69.424 63.3127 69.5437 63.425 69.6999 63.5081C69.8562 63.5862 70.0393 63.6252 70.2492 63.6252C70.5666 63.6252 70.8425 63.5618 71.0769 63.4348C71.3112 63.3079 71.4919 63.1516 71.6188 62.9661C71.7507 62.7805 71.819 62.6047 71.8239 62.4387L72.3806 63.3323C72.3024 63.5325 72.195 63.74 72.0583 63.9548C71.9265 64.1697 71.758 64.3723 71.5529 64.5627C71.3479 64.7483 71.1013 64.9021 70.8132 65.0242C70.5251 65.1414 70.1833 65.2 69.7878 65.2C69.2849 65.2 68.8283 65.0999 68.4182 64.8997C68.0129 64.6946 67.6906 64.4138 67.4514 64.0574C67.217 63.696 67.0998 63.2859 67.0998 62.8269C67.0998 62.4119 67.1779 62.0432 67.3342 61.7209C67.4904 61.3987 67.7199 61.1277 68.0227 60.908C68.3303 60.6833 68.7136 60.5149 69.1726 60.4026C69.6315 60.2854 70.1638 60.2268 70.7692 60.2268H71.9924ZM80.7812 57.1287H82.6928V64.7898C82.6928 65.5125 82.5316 66.1252 82.2094 66.6282C81.892 67.136 81.4477 67.5193 80.8764 67.7781C80.3051 68.0417 79.641 68.1736 78.8842 68.1736C78.5522 68.1736 78.2006 68.1296 77.8295 68.0417C77.4633 67.9539 77.1117 67.8171 76.7748 67.6316C76.4428 67.446 76.1645 67.2117 75.9398 66.9285L76.87 65.6833C77.1142 65.9666 77.3974 66.1863 77.7196 66.3425C78.0419 66.5037 78.3983 66.5842 78.789 66.5842C79.1698 66.5842 79.4921 66.5134 79.7558 66.3718C80.0194 66.2351 80.2221 66.0325 80.3637 65.7639C80.5053 65.5002 80.5761 65.1804 80.5761 64.8044V58.9597L80.7812 57.1287ZM75.4491 61.1863V61.0325C75.4491 60.427 75.5224 59.8777 75.6688 59.3845C75.8202 58.8865 76.0326 58.4592 76.3061 58.1028C76.5844 57.7463 76.9213 57.4705 77.3168 57.2751C77.7123 57.0798 78.1591 56.9822 78.6571 56.9822C79.1845 56.9822 79.6264 57.0798 79.9828 57.2751C80.3393 57.4705 80.6322 57.7488 80.8617 58.1101C81.0912 58.4666 81.2694 58.8889 81.3964 59.3772C81.5282 59.8606 81.6308 60.3904 81.704 60.9666V61.3035C81.6308 61.8552 81.5209 62.3679 81.3744 62.8416C81.2279 63.3152 81.0351 63.7302 80.7958 64.0867C80.5565 64.4382 80.2587 64.7117 79.9022 64.907C79.5507 65.1023 79.1308 65.2 78.6425 65.2C78.1542 65.2 77.7123 65.0999 77.3168 64.8997C76.9262 64.6995 76.5917 64.4187 76.3134 64.0574C76.0351 63.696 75.8202 63.2712 75.6688 62.783C75.5224 62.2947 75.4491 61.7625 75.4491 61.1863ZM77.5585 61.0325V61.1863C77.5585 61.5134 77.5902 61.8186 77.6537 62.1018C77.7172 62.385 77.8148 62.6365 77.9467 62.8562C78.0834 63.071 78.2519 63.2395 78.4521 63.3616C78.6571 63.4788 78.8988 63.5374 79.1772 63.5374C79.5629 63.5374 79.8778 63.4568 80.122 63.2957C80.3661 63.1296 80.5492 62.9026 80.6713 62.6145C80.7934 62.3264 80.8642 61.9944 80.8837 61.6184V60.6589C80.8739 60.3513 80.8324 60.0754 80.7592 59.8313C80.6859 59.5823 80.5834 59.3699 80.4516 59.1941C80.3197 59.0183 80.1488 58.8816 79.9389 58.7839C79.7289 58.6863 79.4799 58.6375 79.1918 58.6375C78.9135 58.6375 78.6718 58.7009 78.4667 58.8279C78.2665 58.95 78.098 59.1184 77.9613 59.3333C77.8295 59.5481 77.7294 59.802 77.661 60.095C77.5927 60.3831 77.5585 60.6956 77.5585 61.0325ZM88.2809 65.2C87.6656 65.2 87.1139 65.1023 86.6256 64.907C86.1373 64.7068 85.7223 64.4309 85.3805 64.0793C85.0436 63.7278 84.7848 63.3201 84.6041 62.8562C84.4234 62.3875 84.3331 61.8894 84.3331 61.3621V61.0691C84.3331 60.4685 84.4186 59.9192 84.5895 59.4211C84.7604 58.9231 85.0045 58.491 85.3219 58.1248C85.6441 57.7585 86.0348 57.4778 86.4938 57.2825C86.9527 57.0823 87.4703 56.9822 88.0465 56.9822C88.608 56.9822 89.1061 57.075 89.5406 57.2605C89.9752 57.446 90.339 57.7097 90.6319 58.0515C90.9298 58.3933 91.1544 58.8035 91.3058 59.282C91.4571 59.7556 91.5328 60.283 91.5328 60.864V61.7429H85.234V60.3367H89.4601V60.1755C89.4601 59.8826 89.4063 59.6213 89.2989 59.3918C89.1964 59.1575 89.0401 58.9719 88.8302 58.8352C88.6202 58.6985 88.3517 58.6301 88.0245 58.6301C87.7462 58.6301 87.5069 58.6912 87.3067 58.8132C87.1065 58.9353 86.943 59.1062 86.816 59.3259C86.6939 59.5457 86.6012 59.8044 86.5377 60.1023C86.4791 60.3953 86.4498 60.7175 86.4498 61.0691V61.3621C86.4498 61.6794 86.4938 61.9724 86.5816 62.241C86.6744 62.5095 86.8038 62.7415 86.9698 62.9368C87.1407 63.1321 87.3458 63.2834 87.5851 63.3909C87.8292 63.4983 88.1051 63.552 88.4127 63.552C88.7936 63.552 89.1476 63.4788 89.4747 63.3323C89.8067 63.1809 90.0924 62.9539 90.3316 62.6511L91.357 63.7644C91.191 64.0037 90.964 64.2332 90.6759 64.4529C90.3927 64.6726 90.0509 64.8533 89.6505 64.9949C89.2501 65.1316 88.7936 65.2 88.2809 65.2ZM95.1434 58.7693V65.0535H93.0267V57.1287H95.0115L95.1434 58.7693ZM94.8504 60.8127H94.2645C94.2645 60.261 94.3304 59.7532 94.4622 59.2893C94.5989 58.8206 94.7967 58.4153 95.0555 58.0735C95.3191 57.7268 95.6438 57.4583 96.0296 57.2678C96.4153 57.0774 96.8621 56.9822 97.3699 56.9822C97.7215 56.9822 98.0438 57.0359 98.3367 57.1433C98.6297 57.2458 98.8812 57.4094 99.0911 57.634C99.306 57.8538 99.472 58.1418 99.5892 58.4983C99.7063 58.8499 99.7649 59.2722 99.7649 59.7654V65.0535H97.6556V59.9998C97.6556 59.6384 97.6067 59.3601 97.5091 59.1648C97.4114 58.9695 97.2723 58.8328 97.0916 58.7546C96.9158 58.6765 96.7034 58.6375 96.4544 58.6375C96.181 58.6375 95.9417 58.6936 95.7366 58.8059C95.5364 58.9182 95.3704 59.0745 95.2386 59.2747C95.1067 59.47 95.0091 59.6995 94.9456 59.9631C94.8821 60.2268 94.8504 60.51 94.8504 60.8127ZM99.5672 60.571L98.8128 60.6663C98.8128 60.1487 98.8763 59.6677 99.0032 59.2234C99.1351 58.7791 99.3279 58.3884 99.5818 58.0515C99.8406 57.7146 100.16 57.4534 100.541 57.2678C100.922 57.0774 101.362 56.9822 101.86 56.9822C102.241 56.9822 102.587 57.0383 102.9 57.1506C103.212 57.2581 103.478 57.4314 103.698 57.6707C103.923 57.905 104.094 58.2126 104.211 58.5935C104.333 58.9744 104.394 59.4407 104.394 59.9924V65.0535H102.277V59.9924C102.277 59.6262 102.228 59.3479 102.131 59.1575C102.038 58.9622 101.901 58.8279 101.721 58.7546C101.545 58.6765 101.335 58.6375 101.091 58.6375C100.837 58.6375 100.615 58.6887 100.424 58.7913C100.234 58.8889 100.075 59.0256 99.948 59.2014C99.8211 59.3772 99.7259 59.5823 99.6624 59.8167C99.5989 60.0461 99.5672 60.2976 99.5672 60.571ZM109.975 65.2C109.359 65.2 108.808 65.1023 108.319 64.907C107.831 64.7068 107.416 64.4309 107.074 64.0793C106.737 63.7278 106.479 63.3201 106.298 62.8562C106.117 62.3875 106.027 61.8894 106.027 61.3621V61.0691C106.027 60.4685 106.112 59.9192 106.283 59.4211C106.454 58.9231 106.698 58.491 107.016 58.1248C107.338 57.7585 107.729 57.4778 108.188 57.2825C108.646 57.0823 109.164 56.9822 109.74 56.9822C110.302 56.9822 110.8 57.075 111.234 57.2605C111.669 57.446 112.033 57.7097 112.326 58.0515C112.624 58.3933 112.848 58.8035 113 59.282C113.151 59.7556 113.227 60.283 113.227 60.864V61.7429H106.928V60.3367H111.154V60.1755C111.154 59.8826 111.1 59.6213 110.993 59.3918C110.89 59.1575 110.734 58.9719 110.524 58.8352C110.314 58.6985 110.045 58.6301 109.718 58.6301C109.44 58.6301 109.201 58.6912 109 58.8132C108.8 58.9353 108.637 59.1062 108.51 59.3259C108.388 59.5457 108.295 59.8044 108.231 60.1023C108.173 60.3953 108.144 60.7175 108.144 61.0691V61.3621C108.144 61.6794 108.188 61.9724 108.275 62.241C108.368 62.5095 108.498 62.7415 108.664 62.9368C108.834 63.1321 109.04 63.2834 109.279 63.3909C109.523 63.4983 109.799 63.552 110.106 63.552C110.487 63.552 110.841 63.4788 111.168 63.3323C111.5 63.1809 111.786 62.9539 112.025 62.6511L113.051 63.7644C112.885 64.0037 112.658 64.2332 112.37 64.4529C112.086 64.6726 111.745 64.8533 111.344 64.9949C110.944 65.1316 110.487 65.2 109.975 65.2ZM116.793 58.8206V65.0535H114.684V57.1287H116.661L116.793 58.8206ZM116.486 60.8127H115.914C115.914 60.2268 115.99 59.6995 116.141 59.2307C116.293 58.7571 116.505 58.3542 116.779 58.0222C117.052 57.6853 117.377 57.429 117.753 57.2532C118.133 57.0725 118.558 56.9822 119.027 56.9822C119.398 56.9822 119.738 57.0359 120.045 57.1433C120.353 57.2507 120.616 57.4216 120.836 57.656C121.061 57.8904 121.232 58.2004 121.349 58.5862C121.471 58.9719 121.532 59.4431 121.532 59.9998V65.0535H119.408V59.9924C119.408 59.6409 119.359 59.3674 119.261 59.1721C119.164 58.9768 119.02 58.8401 118.829 58.762C118.644 58.679 118.414 58.6375 118.141 58.6375C117.858 58.6375 117.611 58.6936 117.401 58.8059C117.196 58.9182 117.025 59.0745 116.888 59.2747C116.757 59.47 116.656 59.6995 116.588 59.9631C116.52 60.2268 116.486 60.51 116.486 60.8127ZM127.318 57.1287V58.6228H122.704V57.1287H127.318ZM123.846 55.1731H125.955V62.6658C125.955 62.8953 125.985 63.071 126.043 63.1931C126.107 63.3152 126.2 63.4006 126.322 63.4495C126.444 63.4934 126.598 63.5154 126.783 63.5154C126.915 63.5154 127.032 63.5105 127.135 63.5007C127.242 63.4861 127.332 63.4714 127.406 63.4568L127.413 65.0095C127.232 65.0681 127.037 65.1145 126.827 65.1487C126.617 65.1829 126.385 65.2 126.131 65.2C125.667 65.2 125.262 65.1243 124.915 64.9729C124.574 64.8167 124.31 64.5676 124.124 64.2258C123.939 63.884 123.846 63.4348 123.846 62.8782V55.1731Z" fill="#E5E5E5"/>
<path d="M66.6314 91.0337V94H53.5005V91.4688L59.71 84.811C60.334 84.1167 60.8262 83.5059 61.1866 82.9785C61.5469 82.4424 61.8062 81.9634 61.9644 81.5415C62.1314 81.1108 62.2149 80.7021 62.2149 80.3154C62.2149 79.7354 62.1182 79.2388 61.9249 78.8257C61.7315 78.4038 61.4459 78.0786 61.0679 77.8501C60.6988 77.6216 60.2418 77.5073 59.6968 77.5073C59.1168 77.5073 58.6158 77.6479 58.1939 77.9292C57.7808 78.2104 57.4644 78.6016 57.2447 79.1025C57.0338 79.6035 56.9283 80.1704 56.9283 80.8032H53.1182C53.1182 79.6606 53.3907 78.6147 53.9356 77.6655C54.4805 76.7075 55.2496 75.9473 56.2427 75.3848C57.2359 74.8135 58.4136 74.5278 59.7759 74.5278C61.1207 74.5278 62.2545 74.7476 63.1773 75.187C64.1089 75.6177 64.8121 76.2417 65.2867 77.0591C65.7701 77.8677 66.0118 78.8345 66.0118 79.9595C66.0118 80.5923 65.9107 81.2119 65.7086 81.8184C65.5064 82.416 65.2164 83.0137 64.8384 83.6113C64.4693 84.2002 64.0211 84.7979 63.4937 85.4043C62.9664 86.0107 62.3819 86.6392 61.7403 87.2896L58.4048 91.0337H66.6314ZM82.4644 82.7148V86.0371C82.4644 87.4785 82.3106 88.7222 82.003 89.7681C81.6953 90.8052 81.2515 91.6577 80.6714 92.3257C80.1001 92.9849 79.419 93.4727 78.628 93.7891C77.8369 94.1055 76.958 94.2637 75.9912 94.2637C75.2178 94.2637 74.4971 94.167 73.8291 93.9736C73.1612 93.7715 72.5591 93.4595 72.023 93.0376C71.4956 92.6157 71.0386 92.084 70.6519 91.4424C70.2739 90.792 69.9839 90.0186 69.7818 89.1221C69.5796 88.2256 69.4785 87.1973 69.4785 86.0371V82.7148C69.4785 81.2734 69.6323 80.0386 69.94 79.0103C70.2564 77.9731 70.7002 77.125 71.2715 76.4658C71.8516 75.8066 72.5371 75.3232 73.3281 75.0156C74.1192 74.6992 74.9981 74.541 75.9649 74.541C76.7383 74.541 77.4546 74.6421 78.1138 74.8442C78.7818 75.0376 79.3838 75.3408 79.9199 75.7539C80.4561 76.167 80.9131 76.6987 81.291 77.3491C81.669 77.9907 81.959 78.7598 82.1612 79.6562C82.3633 80.5439 82.4644 81.5635 82.4644 82.7148ZM78.6543 86.5381V82.2007C78.6543 81.5063 78.6148 80.8999 78.5357 80.3813C78.4654 79.8628 78.3555 79.4233 78.2061 79.063C78.0567 78.6938 77.8721 78.395 77.6524 78.1665C77.4326 77.938 77.1821 77.771 76.9009 77.6655C76.6196 77.5601 76.3076 77.5073 75.9649 77.5073C75.5342 77.5073 75.1519 77.5908 74.8179 77.7578C74.4927 77.9248 74.2158 78.1929 73.9873 78.562C73.7588 78.9224 73.583 79.4058 73.46 80.0122C73.3457 80.6099 73.2886 81.3394 73.2886 82.2007V86.5381C73.2886 87.2324 73.3238 87.8433 73.3941 88.3706C73.4732 88.8979 73.5874 89.3506 73.7368 89.7285C73.895 90.0977 74.0796 90.4009 74.2905 90.6382C74.5103 90.8667 74.7608 91.0337 75.042 91.1392C75.3321 91.2446 75.6485 91.2974 75.9912 91.2974C76.4131 91.2974 76.7866 91.2139 77.1118 91.0469C77.4458 90.8711 77.7271 90.5986 77.9556 90.2295C78.1929 89.8516 78.3687 89.3594 78.4829 88.7529C78.5972 88.1465 78.6543 87.4082 78.6543 86.5381ZM98.7192 91.0337V94H85.5884V91.4688L91.7978 84.811C92.4219 84.1167 92.914 83.5059 93.2744 82.9785C93.6348 82.4424 93.894 81.9634 94.0522 81.5415C94.2192 81.1108 94.3027 80.7021 94.3027 80.3154C94.3027 79.7354 94.206 79.2388 94.0127 78.8257C93.8193 78.4038 93.5337 78.0786 93.1557 77.8501C92.7866 77.6216 92.3296 77.5073 91.7847 77.5073C91.2046 77.5073 90.7036 77.6479 90.2817 77.9292C89.8686 78.2104 89.5522 78.6016 89.3325 79.1025C89.1216 79.6035 89.0161 80.1704 89.0161 80.8032H85.206C85.206 79.6606 85.4785 78.6147 86.0234 77.6655C86.5683 76.7075 87.3374 75.9473 88.3306 75.3848C89.3237 74.8135 90.5014 74.5278 91.8638 74.5278C93.2085 74.5278 94.3423 74.7476 95.2651 75.187C96.1968 75.6177 96.8999 76.2417 97.3745 77.0591C97.8579 77.8677 98.0996 78.8345 98.0996 79.9595C98.0996 80.5923 97.9985 81.2119 97.7964 81.8184C97.5942 82.416 97.3042 83.0137 96.9263 83.6113C96.5571 84.2002 96.1089 84.7979 95.5815 85.4043C95.0542 86.0107 94.4697 86.6392 93.8281 87.2896L90.4927 91.0337H98.7192ZM114.763 91.0337V94H101.632V91.4688L107.842 84.811C108.466 84.1167 108.958 83.5059 109.318 82.9785C109.679 82.4424 109.938 81.9634 110.096 81.5415C110.263 81.1108 110.347 80.7021 110.347 80.3154C110.347 79.7354 110.25 79.2388 110.057 78.8257C109.863 78.4038 109.578 78.0786 109.2 77.8501C108.831 77.6216 108.373 77.5073 107.829 77.5073C107.248 77.5073 106.747 77.6479 106.326 77.9292C105.913 78.2104 105.596 78.6016 105.376 79.1025C105.165 79.6035 105.06 80.1704 105.06 80.8032H101.25C101.25 79.6606 101.522 78.6147 102.067 77.6655C102.612 76.7075 103.381 75.9473 104.374 75.3848C105.368 74.8135 106.545 74.5278 107.908 74.5278C109.252 74.5278 110.386 74.7476 111.309 75.187C112.241 75.6177 112.944 76.2417 113.418 77.0591C113.902 77.8677 114.143 78.8345 114.143 79.9595C114.143 80.5923 114.042 81.2119 113.84 81.8184C113.638 82.416 113.348 83.0137 112.97 83.6113C112.601 84.2002 112.153 84.7979 111.625 85.4043C111.098 86.0107 110.514 86.6392 109.872 87.2896L106.537 91.0337H114.763Z" fill="#E5E5E5"/>
</svg>
