<svg width="165" height="101" viewBox="0 0 165 101" fill="none" xmlns="http://www.w3.org/2000/svg">
<path fill-rule="evenodd" clip-rule="evenodd" d="M132.075 76.6568C132.851 77.6684 133.868 78.4695 135.033 78.9868C136.198 79.5042 137.474 79.7213 138.745 79.6185C141.419 79.4956 144.035 78.7995 146.416 77.5773C142.32 76.9503 143.308 76.1098 140.439 75.1493C138.602 74.7119 136.679 74.7997 134.89 75.4028C136.968 74.6978 138.967 73.7767 140.853 72.6546C141.763 73.3458 142.82 73.8195 143.941 74.0391C145.063 74.2588 146.22 74.2187 147.323 73.9219C149.752 73.2647 152.021 72.1209 153.994 70.56C150.165 70.8269 150.939 69.893 148.164 69.6395C146.789 69.5844 145.42 69.8445 144.162 70.4C145.536 69.3278 146.821 68.1454 148.004 66.8646C149.015 67.3162 150.119 67.5215 151.226 67.4635C152.332 67.4055 153.409 67.086 154.367 66.5311C156.506 65.3421 158.384 63.7362 159.89 61.8084C156.355 62.9557 156.875 61.8751 154.221 62.2754C152.742 62.616 151.368 63.312 150.218 64.3032C151.381 62.776 152.425 61.1614 153.34 59.4738C154.448 59.6703 155.587 59.6089 156.667 59.2942C157.748 58.9796 158.741 58.4201 159.57 57.6594C161.449 55.9725 162.985 53.9386 164.093 51.6694C160.784 53.6171 161.104 52.4298 158.53 53.4304C156.932 54.188 155.555 55.3405 154.527 56.7789C155.345 54.9179 156.014 52.9953 156.529 51.029C157.597 50.9327 158.631 50.5989 159.554 50.0518C160.478 49.5048 161.267 48.7584 161.865 47.8672C163.291 45.8576 164.319 43.5933 164.893 41.1968C162.225 43.8649 162.225 42.6109 160.024 44.1584C158.765 45.1915 157.777 46.5145 157.142 48.014C157.486 46.0699 157.692 44.1038 157.756 42.1306C158.733 41.8477 159.634 41.3498 160.393 40.6735C161.153 39.9971 161.751 39.1594 162.145 38.2218C163.095 36.118 163.647 33.8563 163.773 31.5513C161.812 34.4196 161.665 33.3523 159.957 35.1667C158.818 36.6235 158.066 38.3443 157.769 40.1695C157.739 37.9821 157.534 35.8006 157.156 33.6458C158.071 33.2141 158.873 32.5763 159.501 31.7824C160.128 30.9885 160.563 30.0601 160.771 29.0699C161.253 26.9527 161.29 24.7583 160.878 22.6263C159.544 25.6947 159.13 24.7341 157.809 26.7753C157.023 28.273 156.659 29.9561 156.755 31.6447C156.622 31.0444 156.475 30.4574 156.302 29.857C155.982 28.643 155.595 27.469 155.168 26.3217C155.918 25.7364 156.528 24.9904 156.953 24.1386C157.378 23.2868 157.607 22.3506 157.622 21.3989C157.663 19.3819 157.3 17.3771 156.555 15.5022C155.915 18.584 155.368 17.7835 154.554 19.9181C154.153 21.2979 154.102 22.7562 154.407 24.1605C153.758 22.6776 153.014 21.2383 152.179 19.8514C152.681 19.1978 153.044 18.4495 153.248 17.6516C153.452 16.8537 153.493 16.0227 153.367 15.2087C153.127 13.3758 152.562 11.6004 151.699 9.96574C151.592 12.8341 151.045 12.1804 150.685 14.2082C150.543 15.5952 150.721 16.9964 151.206 18.3038C150.3 16.9076 149.307 15.5708 148.231 14.3016C148.633 13.6657 148.9 12.9537 149.015 12.2099C149.13 11.4662 149.09 10.7067 148.898 9.97908C148.511 8.38014 147.818 6.87141 146.856 5.53657C147.043 8.09802 146.47 7.59107 146.336 9.44545C146.351 10.8192 146.708 12.1674 147.377 13.3677C146.344 12.2849 145.243 11.2689 144.081 10.326C144.407 9.7142 144.592 9.0379 144.625 8.3458C144.657 7.6537 144.535 6.96306 144.268 6.32368C143.735 4.99921 142.92 3.80655 141.88 2.82837C142.334 5.0563 141.747 4.72278 141.88 6.39039C142.012 7.57083 142.474 8.69007 143.214 9.61888C142.103 8.749 140.94 7.94709 139.732 7.21752C139.828 6.63843 139.806 6.04607 139.669 5.47549C139.531 4.90491 139.281 4.3677 138.932 3.89564C138.191 2.84646 137.264 1.9421 136.197 1.22747C137.078 3.04183 136.531 2.82837 136.984 4.21582C137.372 5.15218 137.976 5.98396 138.745 6.64386C137.643 6.02853 136.508 5.47621 135.343 4.9896C135.36 4.4379 135.265 3.88847 135.063 3.37473C134.862 2.86098 134.557 2.39368 134.169 2.00124C133.316 1.14245 132.288 0.478036 131.154 0.0534668C132.221 1.65438 131.648 1.58767 132.248 2.8684C132.603 3.53808 133.122 4.10714 133.756 4.52266C133.465 4.463 133.166 4.463 132.875 4.52266C132.058 4.78758 131.224 5.00145 130.38 5.16303C130.999 5.75744 131.778 6.1565 132.622 6.31034C133.094 6.40821 133.582 6.39144 134.047 6.26145C134.511 6.13146 134.937 5.89203 135.29 5.56325C136.317 6.0035 137.318 6.48377 138.278 7.00407C137.851 6.84651 137.389 6.81411 136.944 6.91068C135.61 7.23086 135.97 7.48434 134.369 7.80452C135.095 8.36884 135.963 8.71993 136.877 8.81843C137.389 8.87805 137.908 8.81475 138.391 8.63378C138.873 8.45281 139.306 8.15938 139.652 7.77784C140.848 8.50166 141.998 9.29921 143.094 10.1659C142.349 9.62845 141.452 9.34332 140.533 9.35206C138.905 9.43211 139.199 9.73895 137.238 9.76563C138.135 10.4826 139.185 10.9846 140.306 11.2332C140.891 11.3841 141.5 11.417 142.098 11.33C142.696 11.2429 143.27 11.0377 143.788 10.7262C144.835 11.5948 145.824 12.5306 146.75 13.5278C146.088 12.9464 145.254 12.5994 144.375 12.5406C142.467 12.4472 142.827 12.8874 140.479 12.6873C141.357 13.7254 142.487 14.5202 143.761 14.9953C144.404 15.2561 145.096 15.371 145.788 15.3318C146.48 15.2926 147.155 15.1002 147.764 14.7685C149.039 16.3245 150.181 17.9846 151.179 19.7313C150.528 18.5985 149.483 17.7441 148.244 17.3299C146.309 16.8096 146.603 17.3299 144.242 16.6229C144.976 17.8522 145.991 18.89 147.203 19.6512C147.831 20.067 148.541 20.3408 149.286 20.4537C150.03 20.5666 150.79 20.5159 151.512 20.305C152.372 21.866 153.134 23.4789 153.794 25.1344C153.234 24.1743 152.384 23.4173 151.366 22.9731C149.391 22.186 149.658 22.7597 147.257 21.7057C147.927 23.0712 148.898 24.2664 150.098 25.2011C150.678 25.688 151.351 26.0515 152.075 26.2695C152.8 26.4874 153.562 26.5551 154.314 26.4684C154.701 27.509 155.061 28.5896 155.408 29.7103L155.728 30.8576C155.237 30.1116 154.561 29.505 153.767 29.0966C151.712 28.056 151.953 28.7097 149.458 27.3489C150.075 28.8722 151.023 30.2393 152.233 31.3512C153.303 32.4129 154.729 33.0402 156.235 33.1122C156.576 34.9179 156.786 36.7459 156.862 38.582C156.446 37.6777 155.83 36.8795 155.061 36.2473C153.047 34.6464 153.207 35.3935 150.779 33.3257C151.219 35.1088 152.018 36.7837 153.127 38.2484C154.051 39.5562 155.362 40.5408 156.875 41.0634C156.825 43.2136 156.593 45.3558 156.182 47.467C156.007 46.233 155.515 45.0654 154.754 44.0784C152.9 41.9305 152.913 42.7443 150.752 40.0761C150.821 42.1017 151.322 44.0891 152.219 45.9061C152.959 47.587 154.255 48.9624 155.888 49.8016C155.37 51.9068 154.673 53.9642 153.807 55.9518C153.793 54.6718 153.448 53.4173 152.806 52.3097C151.272 49.7483 151.139 50.6021 149.338 47.3736C149.052 49.4644 149.211 51.5921 149.805 53.6171C150.27 55.4234 151.304 57.0323 152.753 58.2064C151.641 60.285 150.337 62.2548 148.858 64.0897C149.216 62.7021 149.18 61.2417 148.751 59.874C147.817 57.0724 147.51 57.8595 146.47 54.3642C145.746 56.2921 145.445 58.3533 145.589 60.4076C145.66 62.32 146.364 64.1546 147.59 65.6239C146.014 67.4202 144.247 69.0395 142.32 70.4533C143.007 68.999 143.275 67.3821 143.094 65.784C142.667 62.7289 142.227 63.476 141.76 59.6739C140.723 61.5379 140.078 63.5946 139.866 65.7173C139.613 67.6737 139.962 69.6607 140.866 71.4139C139.023 72.5988 137.049 73.5659 134.983 74.2955L134.276 74.6157C135.4 73.4304 136.1 71.9054 136.264 70.2799C136.531 67.1181 135.837 67.7051 136.264 63.8229C134.645 65.2809 133.409 67.1131 132.662 69.1592C131.842 71.1614 131.799 73.3974 132.542 75.4295C128.873 77.0971 122.162 80.2589 120.695 81.5796C119.801 82.3667 120.495 83.5541 121.028 83.1272C122.109 82.2733 125.031 80.459 126.191 79.6985C128.088 78.564 130.053 77.5481 132.075 76.6568Z" fill="#E5E5E5"/>
<path fill-rule="evenodd" clip-rule="evenodd" d="M38.689 79.6584C39.823 80.4322 42.771 82.2332 43.851 83.087C44.398 83.5139 45.079 82.3266 44.198 81.5261C42.731 80.1921 36.02 77.057 32.338 75.3893C33.084 73.3543 33.046 71.1143 32.232 69.1058C31.481 67.0582 30.239 65.226 28.616 63.7694C29.07 67.6516 28.389 67.078 28.616 70.2398C28.786 71.8917 29.515 73.4359 30.684 74.6156L29.964 74.3087C27.901 73.5744 25.932 72.6029 24.094 71.4138C25.001 69.6666 25.346 67.6814 25.081 65.7305C24.875 63.6066 24.23 61.5485 23.186 59.6871C22.786 63.4893 22.346 62.7422 21.932 65.7973C21.744 67.3885 22.002 69.0009 22.679 70.4532C20.751 69.0468 18.988 67.4267 17.423 65.6238C18.65 64.1558 19.35 62.3195 19.411 60.4075C19.558 58.3586 19.263 56.3019 18.544 54.3775C17.503 57.8728 17.21 57.0456 16.249 59.8739C15.828 61.2433 15.795 62.7029 16.156 64.0896C14.7 62.2213 13.432 60.2151 12.367 58.0996C13.821 56.93 14.856 55.3193 15.315 53.5103C15.903 51.4887 16.062 49.3667 15.782 47.2801C13.981 50.5086 13.848 49.6548 12.314 52.2029C11.674 53.312 11.325 54.5649 11.3 55.845C10.447 53.8567 9.75099 51.8048 9.21899 49.7082C10.857 48.8714 12.157 47.4957 12.901 45.8126C13.792 43.998 14.292 42.0163 14.368 39.996C12.154 42.6642 12.154 41.9037 10.366 43.9983C9.54 44.984 8.992 46.1721 8.778 47.4402C8.357 45.3466 8.098 43.2235 8.005 41.0899C9.524 40.5715 10.841 39.5863 11.767 38.275C12.877 36.8276 13.684 35.1716 14.141 33.4056C11.7 35.4734 11.873 34.7397 9.85899 36.3406C9.07499 36.9438 8.44 37.7199 8.005 38.6085C8.073 36.7719 8.282 34.9432 8.632 33.1388C10.137 33.0668 11.563 32.4394 12.634 31.3778C13.846 30.2673 14.794 28.8999 15.409 27.3755C12.901 28.7096 13.154 28.0959 11.1 29.1232C10.305 29.5316 9.63001 30.1382 9.13901 30.8842C9.23201 30.4973 9.339 30.1237 9.459 29.7369C9.792 28.6296 10.166 27.549 10.553 26.5084C11.309 26.586 12.074 26.5076 12.799 26.2782C13.524 26.0487 14.194 25.673 14.768 25.1743C15.968 24.2448 16.94 23.0539 17.61 21.6923C15.209 22.7462 15.475 22.1592 13.501 22.9463C12.507 23.4152 11.683 24.1793 11.14 25.1343C11.804 23.4786 12.57 21.8657 13.434 20.3049C14.156 20.5222 14.917 20.5764 15.662 20.4633C16.408 20.3502 17.119 20.0728 17.743 19.6511C18.956 18.8899 19.971 17.8521 20.705 16.6228C18.33 17.3432 18.637 16.8229 16.703 17.3298C15.463 17.7439 14.419 18.5984 13.768 19.7312C14.76 17.9682 15.902 16.2944 17.183 14.7284C17.794 15.0544 18.469 15.2425 19.16 15.2793C19.852 15.3162 20.543 15.201 21.185 14.9418C22.456 14.4674 23.585 13.6778 24.467 12.6472C22.119 12.8473 22.479 12.3937 20.572 12.4871C19.691 12.5497 18.857 12.9015 18.197 13.4877C19.149 12.5056 20.16 11.5834 21.225 10.7261C21.743 11.0381 22.318 11.2427 22.916 11.3275C23.514 11.4123 24.124 11.3756 24.707 11.2197C25.831 10.9767 26.881 10.4741 27.776 9.75219C25.748 9.75219 26.108 9.41866 24.481 9.35196C23.563 9.33839 22.665 9.6189 21.919 10.1524C23.01 9.27252 24.155 8.46159 25.348 7.72437C25.694 8.10592 26.127 8.39935 26.609 8.58032C27.092 8.76129 27.611 8.82459 28.123 8.76496C29.057 8.68284 29.947 8.33054 30.684 7.75105C29.78 7.50415 28.889 7.21025 28.016 6.87056C27.573 6.76263 27.108 6.79052 26.682 6.9506C27.642 6.43031 28.643 5.95004 29.67 5.50979C30.023 5.83812 30.449 6.07818 30.913 6.21035C31.377 6.34252 31.865 6.36303 32.338 6.27022C33.218 6.13026 34.035 5.73074 34.686 5.1229C33.846 4.94947 33.019 4.73602 32.192 4.48254C31.902 4.41626 31.601 4.41626 31.311 4.48254C31.942 4.06355 32.46 3.49533 32.819 2.82827C33.406 1.49418 32.819 1.60091 33.913 0C32.789 0.42796 31.769 1.09218 30.924 1.94777C30.538 2.34158 30.235 2.80912 30.033 3.32254C29.832 3.83595 29.735 4.38472 29.75 4.93613C28.588 5.42814 27.453 5.98031 26.348 6.5904C27.08 5.92797 27.651 5.10646 28.016 4.18904C28.469 2.85495 27.922 3.02838 28.803 1.20068C27.738 1.91832 26.812 2.8222 26.068 3.86886C25.731 4.35326 25.493 4.90005 25.369 5.47729C25.246 6.05453 25.238 6.65063 25.348 7.23076C24.143 7.9544 22.985 8.75193 21.879 9.61878C22.643 8.69762 23.129 7.57771 23.28 6.39028C23.347 4.72267 22.76 5.0562 23.213 2.82827C22.176 3.81186 21.358 5.00281 20.812 6.32358C20.55 6.96456 20.432 7.65535 20.466 8.34699C20.501 9.03863 20.687 9.71421 21.012 10.3259C19.841 11.3059 18.731 12.3574 17.69 13.4743C18.34 12.2692 18.679 10.9212 18.677 9.55207C18.53 7.69769 17.97 8.21799 18.157 5.6432C17.2 6.98089 16.508 8.48863 16.116 10.0857C15.924 10.8133 15.884 11.5728 15.998 12.3165C16.113 13.0603 16.38 13.7723 16.783 14.4082C15.706 15.6799 14.708 17.0165 13.794 18.4104C14.29 17.1056 14.472 15.703 14.328 14.3148C13.955 12.287 13.408 12.9807 13.314 10.0857C12.449 11.6958 11.884 13.4498 11.647 15.262C11.522 16.0729 11.562 16.9006 11.764 17.6958C11.965 18.491 12.325 19.2377 12.821 19.8913C12.021 21.2889 11.304 22.7322 10.673 24.2137C10.98 22.8089 10.925 21.349 10.513 19.9713C9.699 17.8368 9.179 18.6372 8.511 15.5422C7.743 17.398 7.35701 19.3901 7.37801 21.3988C7.38501 22.3355 7.599 23.259 8.005 24.1032C8.411 24.9473 8.998 25.6912 9.726 26.2816C9.299 27.4289 8.925 28.6029 8.578 29.8169C8.418 30.4172 8.271 31.0042 8.138 31.6046C8.234 29.9159 7.87 28.2329 7.084 26.7352C5.75 24.694 5.35001 25.6545 4.01601 22.5861C3.60401 24.7182 3.63999 26.9126 4.12199 29.0298C4.32499 30.0272 4.75699 30.9636 5.38499 31.7649C6.01199 32.5661 6.81801 33.2101 7.73801 33.6457C7.36001 35.8005 7.15399 37.982 7.12399 40.1694C6.82199 38.346 6.07 36.6266 4.936 35.1666C3.228 33.4056 3.082 34.4328 1.121 31.5512C1.24 33.857 1.793 36.1198 2.748 38.2217C3.142 39.1593 3.74 39.997 4.5 40.6734C5.259 41.3498 6.16099 41.8476 7.13699 42.1305C7.19499 44.1042 7.40001 46.0708 7.75101 48.0139C7.12401 46.484 6.13 45.1323 4.856 44.0783C2.668 42.5708 2.668 43.7715 0 41.1566C0.575 43.5506 1.598 45.814 3.015 47.8271C3.626 48.7236 4.429 49.4726 5.366 50.0195C6.303 50.5665 7.35 50.8976 8.431 50.9889C8.944 52.9558 9.613 54.8786 10.433 56.7388C9.425 55.3145 8.06999 54.1711 6.49699 53.4169C3.92199 52.4164 4.24201 53.6037 0.934006 51.6426C2.05701 53.9164 3.61099 55.9506 5.50999 57.6326C6.33699 58.3981 7.329 58.9624 8.41 59.2817C9.49 59.601 10.63 59.6667 11.74 59.4737C12.655 61.1613 13.699 62.7759 14.862 64.3031C13.712 63.3119 12.339 62.6159 10.859 62.2753C8.19099 61.875 8.725 62.9556 5.19 61.8083C6.685 63.732 8.549 65.3377 10.673 66.531C11.633 67.0819 12.708 67.4002 13.813 67.4605C14.918 67.5207 16.022 67.3212 17.036 66.8779C18.223 68.1509 19.507 69.3286 20.878 70.3999C19.619 69.8458 18.251 69.5857 16.876 69.6394C14.101 69.8929 14.875 70.8401 11.046 70.5599C13.016 72.1259 15.286 73.2702 17.717 73.9218C18.82 74.2186 19.977 74.2587 21.099 74.0391C22.221 73.8194 23.277 73.3457 24.187 72.6545C26.073 73.7766 28.072 74.6977 30.15 75.4027C28.361 74.7996 26.438 74.7118 24.601 75.1492C21.732 76.1098 22.72 76.9502 18.624 77.5773C21.005 78.7994 23.621 79.4955 26.295 79.6184C27.566 79.7213 28.842 79.5041 30.007 78.9867C31.172 78.4694 32.189 77.6683 32.965 76.6567C34.932 77.5409 36.843 78.5433 38.689 79.6584Z" fill="#E5E5E5"/>
<path d="M73.9426 24.3733H71.2033L71.1887 22.8645H73.4885C73.8937 22.8645 74.2258 22.8132 74.4846 22.7107C74.7434 22.6033 74.9362 22.4495 75.0632 22.2493C75.195 22.0442 75.2609 21.7952 75.2609 21.5022C75.2609 21.1702 75.1975 20.9016 75.0705 20.6965C74.9484 20.4915 74.7556 20.3425 74.4919 20.2498C74.2331 20.157 73.8986 20.1106 73.4885 20.1106H71.965V29.0535H69.7678V18.3894H73.4885C74.1086 18.3894 74.6628 18.448 75.1511 18.5652C75.6442 18.6824 76.0617 18.8606 76.4035 19.0999C76.7453 19.3391 77.0065 19.6418 77.1872 20.0081C77.3679 20.3694 77.4582 20.7991 77.4582 21.2971C77.4582 21.7366 77.3581 22.1418 77.1579 22.5129C76.9626 22.884 76.6525 23.1868 76.2277 23.4211C75.8078 23.6555 75.2585 23.7849 74.5798 23.8093L73.9426 24.3733ZM73.8474 29.0535H70.6027L71.4597 27.3396H73.8474C74.2331 27.3396 74.548 27.2786 74.7922 27.1565C75.0363 27.0295 75.217 26.8586 75.3342 26.6438C75.4514 26.429 75.51 26.1824 75.51 25.9041C75.51 25.5916 75.4562 25.3206 75.3488 25.0911C75.2463 24.8616 75.0803 24.6858 74.8508 24.5637C74.6213 24.4368 74.3186 24.3733 73.9426 24.3733H71.8259L71.8405 22.8645H74.4772L74.9826 23.4578C75.632 23.448 76.1545 23.5627 76.55 23.802C76.9504 24.0364 77.2409 24.3416 77.4216 24.7175C77.6071 25.0935 77.6999 25.4963 77.6999 25.926C77.6999 26.6096 77.551 27.1858 77.2531 27.6545C76.9553 28.1184 76.5183 28.4675 75.9421 28.7019C75.3708 28.9363 74.6726 29.0535 73.8474 29.0535ZM83.1635 29.2C82.5482 29.2 81.9965 29.1023 81.5082 28.907C81.0199 28.7068 80.6049 28.4309 80.2631 28.0793C79.9262 27.7278 79.6674 27.3201 79.4867 26.8562C79.3061 26.3875 79.2157 25.8894 79.2157 25.3621V25.0691C79.2157 24.4685 79.3012 23.9192 79.4721 23.4211C79.643 22.9231 79.8871 22.491 80.2045 22.1248C80.5268 21.7585 80.9174 21.4778 81.3764 21.2825C81.8354 21.0823 82.3529 20.9822 82.9291 20.9822C83.4906 20.9822 83.9887 21.075 84.4232 21.2605C84.8578 21.446 85.2216 21.7097 85.5145 22.0515C85.8124 22.3933 86.037 22.8035 86.1884 23.282C86.3397 23.7556 86.4154 24.283 86.4154 24.864V25.7429H80.1166V24.3367H84.3427V24.1755C84.3427 23.8826 84.289 23.6213 84.1815 23.3918C84.079 23.1575 83.9228 22.9719 83.7128 22.8352C83.5028 22.6985 83.2343 22.6301 82.9071 22.6301C82.6288 22.6301 82.3895 22.6912 82.1894 22.8132C81.9892 22.9353 81.8256 23.1062 81.6986 23.3259C81.5766 23.5457 81.4838 23.8044 81.4203 24.1023C81.3617 24.3953 81.3324 24.7175 81.3324 25.0691V25.3621C81.3324 25.6794 81.3764 25.9724 81.4643 26.241C81.557 26.5095 81.6864 26.7415 81.8524 26.9368C82.0233 27.1321 82.2284 27.2834 82.4677 27.3909C82.7118 27.4983 82.9877 27.552 83.2953 27.552C83.6762 27.552 84.0302 27.4788 84.3573 27.3323C84.6894 27.1809 84.975 26.9539 85.2143 26.6511L86.2396 27.7644C86.0736 28.0037 85.8466 28.2332 85.5585 28.4529C85.2753 28.6726 84.9335 28.8533 84.5331 28.9949C84.1327 29.1316 83.6762 29.2 83.1635 29.2ZM92.2013 26.8635C92.2013 26.7122 92.1573 26.5754 92.0694 26.4534C91.9815 26.3313 91.818 26.219 91.5787 26.1165C91.3443 26.009 91.005 25.9114 90.5606 25.8235C90.1603 25.7356 89.7867 25.6257 89.44 25.4939C89.0982 25.3572 88.8004 25.1936 88.5465 25.0032C88.2975 24.8127 88.1021 24.5881 87.9605 24.3293C87.8189 24.0657 87.7481 23.7654 87.7481 23.4285C87.7481 23.0964 87.8189 22.7839 87.9605 22.491C88.107 22.198 88.3146 21.9392 88.5831 21.7146C88.8565 21.4851 89.1886 21.3069 89.5792 21.1799C89.9747 21.0481 90.419 20.9822 90.9122 20.9822C91.6007 20.9822 92.1915 21.092 92.6847 21.3118C93.1827 21.5315 93.5636 21.8342 93.8272 22.22C94.0958 22.6008 94.2301 23.0354 94.2301 23.5237H92.1207C92.1207 23.3186 92.0768 23.1355 91.9889 22.9744C91.9059 22.8083 91.774 22.679 91.5934 22.5862C91.4176 22.4885 91.1881 22.4397 90.9049 22.4397C90.6705 22.4397 90.4679 22.4812 90.297 22.5642C90.1261 22.6423 89.9942 22.7498 89.9015 22.8865C89.8136 23.0183 89.7696 23.1648 89.7696 23.3259C89.7696 23.448 89.794 23.5579 89.8429 23.6555C89.8966 23.7483 89.982 23.8337 90.0992 23.9119C90.2164 23.99 90.3678 24.0632 90.5533 24.1316C90.7438 24.1951 90.9781 24.2537 91.2564 24.3074C91.8277 24.4246 92.338 24.5784 92.7872 24.7688C93.2364 24.9543 93.5929 25.2083 93.8565 25.5305C94.1202 25.8479 94.2521 26.2654 94.2521 26.783C94.2521 27.1345 94.1739 27.4568 94.0177 27.7498C93.8614 28.0427 93.6368 28.2991 93.3438 28.5188C93.0509 28.7336 92.6993 28.9021 92.2892 29.0242C91.8839 29.1414 91.4273 29.2 90.9195 29.2C90.1822 29.2 89.5572 29.0681 89.0445 28.8044C88.5367 28.5408 88.151 28.2063 87.8873 27.801C87.6285 27.3909 87.4991 26.9709 87.4991 26.5413H89.4986C89.5084 26.8293 89.5816 27.0613 89.7184 27.2371C89.86 27.4128 90.0382 27.5398 90.253 27.6179C90.4728 27.696 90.7096 27.7351 90.9635 27.7351C91.2369 27.7351 91.464 27.6985 91.6446 27.6252C91.8253 27.5471 91.962 27.4446 92.0548 27.3176C92.1524 27.1858 92.2013 27.0344 92.2013 26.8635ZM99.8035 21.1287V22.6228H95.1893V21.1287H99.8035ZM96.3318 19.1731H98.4412V26.6658C98.4412 26.8953 98.4705 27.071 98.5291 27.1931C98.5926 27.3152 98.6853 27.4006 98.8074 27.4495C98.9295 27.4934 99.0833 27.5154 99.2688 27.5154C99.4007 27.5154 99.5179 27.5105 99.6204 27.5007C99.7278 27.4861 99.8182 27.4714 99.8914 27.4568L99.8987 29.0095C99.7181 29.0681 99.5228 29.1145 99.3128 29.1487C99.1028 29.1829 98.8709 29.2 98.617 29.2C98.1531 29.2 97.7478 29.1243 97.4012 28.9729C97.0594 28.8167 96.7957 28.5676 96.6102 28.2258C96.4246 27.884 96.3318 27.4348 96.3318 26.8782V19.1731ZM48.5504 36.3894V47.0535H46.3605V36.3894H48.5504ZM52.8421 40.8206V47.0535H50.7327V39.1287H52.7103L52.8421 40.8206ZM52.5345 42.8127H51.9632C51.9632 42.2268 52.0389 41.6995 52.1902 41.2307C52.3416 40.7571 52.554 40.3542 52.8274 40.0222C53.1009 39.6853 53.4256 39.429 53.8016 39.2532C54.1824 39.0725 54.6072 38.9822 55.076 38.9822C55.4471 38.9822 55.7864 39.0359 56.094 39.1433C56.4017 39.2507 56.6653 39.4216 56.8851 39.656C57.1097 39.8904 57.2806 40.2004 57.3978 40.5862C57.5198 40.9719 57.5809 41.4431 57.5809 41.9998V47.0535H55.4568V41.9924C55.4568 41.6409 55.408 41.3674 55.3104 41.1721C55.2127 40.9768 55.0687 40.8401 54.8782 40.762C54.6927 40.679 54.4632 40.6375 54.1897 40.6375C53.9065 40.6375 53.66 40.6936 53.45 40.8059C53.2449 40.9182 53.074 41.0745 52.9373 41.2747C52.8055 41.47 52.7054 41.6995 52.637 41.9631C52.5687 42.2268 52.5345 42.51 52.5345 42.8127ZM62.1802 45.5154L63.938 39.1287H66.1426L63.4692 47.0535H62.1362L62.1802 45.5154ZM60.9717 39.1287L62.7368 45.5227L62.7734 47.0535H61.4331L58.7598 39.1287H60.9717ZM70.9323 47.2C70.3171 47.2 69.7653 47.1023 69.2771 46.907C68.7888 46.7068 68.3737 46.4309 68.0319 46.0793C67.695 45.7278 67.4362 45.3201 67.2556 44.8562C67.0749 44.3875 66.9846 43.8894 66.9846 43.3621V43.0691C66.9846 42.4685 67.07 41.9192 67.2409 41.4211C67.4118 40.9231 67.656 40.491 67.9733 40.1248C68.2956 39.7585 68.6862 39.4778 69.1452 39.2825C69.6042 39.0823 70.1218 38.9822 70.698 38.9822C71.2595 38.9822 71.7575 39.075 72.1921 39.2605C72.6267 39.446 72.9904 39.7097 73.2834 40.0515C73.5813 40.3933 73.8059 40.8035 73.9572 41.282C74.1086 41.7556 74.1843 42.283 74.1843 42.864V43.7429H67.8855V42.3367H72.1115V42.1755C72.1115 41.8826 72.0578 41.6213 71.9504 41.3918C71.8479 41.1575 71.6916 40.9719 71.4816 40.8352C71.2717 40.6985 71.0031 40.6301 70.676 40.6301C70.3977 40.6301 70.1584 40.6912 69.9582 40.8132C69.758 40.9353 69.5944 41.1062 69.4675 41.3259C69.3454 41.5457 69.2526 41.8044 69.1892 42.1023C69.1306 42.3953 69.1013 42.7175 69.1013 43.0691V43.3621C69.1013 43.6794 69.1452 43.9724 69.2331 44.241C69.3259 44.5095 69.4553 44.7415 69.6213 44.9368C69.7922 45.1321 69.9973 45.2834 70.2365 45.3909C70.4807 45.4983 70.7565 45.552 71.0642 45.552C71.445 45.552 71.799 45.4788 72.1262 45.3323C72.4582 45.1809 72.7438 44.9539 72.9831 44.6511L74.0085 45.7644C73.8425 46.0037 73.6154 46.2332 73.3273 46.4529C73.0441 46.6726 72.7023 46.8533 72.302 46.9949C71.9016 47.1316 71.445 47.2 70.9323 47.2ZM79.9701 44.8635C79.9701 44.7122 79.9262 44.5754 79.8383 44.4534C79.7504 44.3313 79.5868 44.219 79.3476 44.1165C79.1132 44.009 78.7738 43.9114 78.3295 43.8235C77.9291 43.7356 77.5556 43.6257 77.2089 43.4939C76.8671 43.3572 76.5692 43.1936 76.3153 43.0032C76.0663 42.8127 75.871 42.5881 75.7294 42.3293C75.5878 42.0657 75.517 41.7654 75.517 41.4285C75.517 41.0964 75.5878 40.7839 75.7294 40.491C75.8759 40.198 76.0834 39.9392 76.352 39.7146C76.6254 39.4851 76.9574 39.3069 77.348 39.1799C77.7436 39.0481 78.1879 38.9822 78.6811 38.9822C79.3695 38.9822 79.9604 39.092 80.4535 39.3118C80.9516 39.5315 81.3324 39.8342 81.5961 40.22C81.8647 40.6008 81.9989 41.0354 81.9989 41.5237H79.8896C79.8896 41.3186 79.8456 41.1355 79.7577 40.9744C79.6747 40.8083 79.5429 40.679 79.3622 40.5862C79.1864 40.4885 78.9569 40.4397 78.6737 40.4397C78.4394 40.4397 78.2367 40.4812 78.0658 40.5642C77.8949 40.6423 77.7631 40.7498 77.6703 40.8865C77.5824 41.0183 77.5385 41.1648 77.5385 41.3259C77.5385 41.448 77.5629 41.5579 77.6117 41.6555C77.6654 41.7483 77.7509 41.8337 77.8681 41.9119C77.9853 41.99 78.1366 42.0632 78.3222 42.1316C78.5126 42.1951 78.747 42.2537 79.0253 42.3074C79.5966 42.4246 80.1068 42.5784 80.5561 42.7688C81.0053 42.9543 81.3617 43.2083 81.6254 43.5305C81.8891 43.8479 82.0209 44.2654 82.0209 44.783C82.0209 45.1345 81.9428 45.4568 81.7865 45.7498C81.6303 46.0427 81.4057 46.2991 81.1127 46.5188C80.8197 46.7336 80.4682 46.9021 80.058 47.0242C79.6527 47.1414 79.1962 47.2 78.6884 47.2C77.9511 47.2 77.3261 47.0681 76.8134 46.8044C76.3056 46.5408 75.9198 46.2063 75.6562 45.801C75.3974 45.3909 75.268 44.9709 75.268 44.5413H77.2675C77.2772 44.8293 77.3505 45.0613 77.4872 45.2371C77.6288 45.4128 77.807 45.5398 78.0219 45.6179C78.2416 45.696 78.4784 45.7351 78.7323 45.7351C79.0058 45.7351 79.2328 45.6985 79.4135 45.6252C79.5941 45.5471 79.7309 45.4446 79.8236 45.3176C79.9213 45.1858 79.9701 45.0344 79.9701 44.8635ZM87.5724 39.1287V40.6228H82.9581V39.1287H87.5724ZM84.1007 37.1731H86.2101V44.6658C86.2101 44.8953 86.2394 45.071 86.298 45.1931C86.3614 45.3152 86.4542 45.4006 86.5763 45.4495C86.6983 45.4934 86.8521 45.5154 87.0377 45.5154C87.1695 45.5154 87.2867 45.5105 87.3893 45.5007C87.4967 45.4861 87.587 45.4714 87.6603 45.4568L87.6676 47.0095C87.4869 47.0681 87.2916 47.1145 87.0816 47.1487C86.8717 47.1829 86.6397 47.2 86.3858 47.2C85.922 47.2 85.5167 47.1243 85.17 46.9729C84.8282 46.8167 84.5646 46.5676 84.379 46.2258C84.1935 45.884 84.1007 45.4348 84.1007 44.8782V37.1731ZM91.1829 40.7693V47.0535H89.0662V39.1287H91.0511L91.1829 40.7693ZM90.8899 42.8127H90.304C90.304 42.261 90.3699 41.7532 90.5018 41.2893C90.6385 40.8206 90.8362 40.4153 91.095 40.0735C91.3587 39.7268 91.6834 39.4583 92.0691 39.2678C92.4549 39.0774 92.9017 38.9822 93.4095 38.9822C93.761 38.9822 94.0833 39.0359 94.3763 39.1433C94.6692 39.2458 94.9207 39.4094 95.1307 39.634C95.3455 39.8538 95.5115 40.1418 95.6287 40.4983C95.7459 40.8499 95.8045 41.2722 95.8045 41.7654V47.0535H93.6951V41.9998C93.6951 41.6384 93.6463 41.3601 93.5486 41.1648C93.451 40.9695 93.3118 40.8328 93.1312 40.7546C92.9554 40.6765 92.743 40.6375 92.4939 40.6375C92.2205 40.6375 91.9813 40.6936 91.7762 40.8059C91.576 40.9182 91.41 41.0745 91.2781 41.2747C91.1463 41.47 91.0486 41.6995 90.9852 41.9631C90.9217 42.2268 90.8899 42.51 90.8899 42.8127ZM95.6067 42.571L94.8523 42.6663C94.8523 42.1487 94.9158 41.6677 95.0428 41.2234C95.1746 40.7791 95.3675 40.3884 95.6214 40.0515C95.8802 39.7146 96.2 39.4534 96.5809 39.2678C96.9617 39.0774 97.4012 38.9822 97.8992 38.9822C98.2801 38.9822 98.6268 39.0383 98.9393 39.1506C99.2518 39.2581 99.5179 39.4314 99.7376 39.6707C99.9622 39.905 100.133 40.2126 100.25 40.5935C100.372 40.9744 100.433 41.4407 100.433 41.9924V47.0535H98.3167V41.9924C98.3167 41.6262 98.2679 41.3479 98.1702 41.1575C98.0774 40.9622 97.9407 40.8279 97.7601 40.7546C97.5843 40.6765 97.3743 40.6375 97.1302 40.6375C96.8763 40.6375 96.6541 40.6887 96.4637 40.7913C96.2732 40.8889 96.1146 41.0256 95.9876 41.2014C95.8606 41.3772 95.7654 41.5823 95.702 41.8167C95.6385 42.0461 95.6067 42.2976 95.6067 42.571ZM106.014 47.2C105.399 47.2 104.847 47.1023 104.359 46.907C103.871 46.7068 103.456 46.4309 103.114 46.0793C102.777 45.7278 102.518 45.3201 102.337 44.8562C102.157 44.3875 102.066 43.8894 102.066 43.3621V43.0691C102.066 42.4685 102.152 41.9192 102.323 41.4211C102.494 40.9231 102.738 40.491 103.055 40.1248C103.377 39.7585 103.768 39.4778 104.227 39.2825C104.686 39.0823 105.204 38.9822 105.78 38.9822C106.341 38.9822 106.839 39.075 107.274 39.2605C107.708 39.446 108.072 39.7097 108.365 40.0515C108.663 40.3933 108.888 40.8035 109.039 41.282C109.19 41.7556 109.266 42.283 109.266 42.864V43.7429H102.967V42.3367H107.193V42.1755C107.193 41.8826 107.14 41.6213 107.032 41.3918C106.93 41.1575 106.773 40.9719 106.563 40.8352C106.354 40.6985 106.085 40.6301 105.758 40.6301C105.479 40.6301 105.24 40.6912 105.04 40.8132C104.84 40.9353 104.676 41.1062 104.549 41.3259C104.427 41.5457 104.334 41.8044 104.271 42.1023C104.212 42.3953 104.183 42.7175 104.183 43.0691V43.3621C104.183 43.6794 104.227 43.9724 104.315 44.241C104.408 44.5095 104.537 44.7415 104.703 44.9368C104.874 45.1321 105.079 45.2834 105.318 45.3909C105.562 45.4983 105.838 45.552 106.146 45.552C106.527 45.552 106.881 45.4788 107.208 45.3323C107.54 45.1809 107.826 44.9539 108.065 44.6511L109.09 45.7644C108.924 46.0037 108.697 46.2332 108.409 46.4529C108.126 46.6726 107.784 46.8533 107.384 46.9949C106.983 47.1316 106.527 47.2 106.014 47.2ZM112.833 40.8206V47.0535H110.723V39.1287H112.701L112.833 40.8206ZM112.525 42.8127H111.954C111.954 42.2268 112.029 41.6995 112.181 41.2307C112.332 40.7571 112.545 40.3542 112.818 40.0222C113.092 39.6853 113.416 39.429 113.792 39.2532C114.173 39.0725 114.598 38.9822 115.067 38.9822C115.438 38.9822 115.777 39.0359 116.085 39.1433C116.392 39.2507 116.656 39.4216 116.876 39.656C117.1 39.8904 117.271 40.2004 117.388 40.5862C117.51 40.9719 117.571 41.4431 117.571 41.9998V47.0535H115.447V41.9924C115.447 41.6409 115.399 41.3674 115.301 41.1721C115.203 40.9768 115.059 40.8401 114.869 40.762C114.683 40.679 114.454 40.6375 114.18 40.6375C113.897 40.6375 113.651 40.6936 113.441 40.8059C113.236 40.9182 113.065 41.0745 112.928 41.2747C112.796 41.47 112.696 41.6995 112.628 41.9631C112.559 42.2268 112.525 42.51 112.525 42.8127ZM123.357 39.1287V40.6228H118.743V39.1287H123.357ZM119.886 37.1731H121.995V44.6658C121.995 44.8953 122.024 45.071 122.083 45.1931C122.146 45.3152 122.239 45.4006 122.361 45.4495C122.483 45.4934 122.637 45.5154 122.823 45.5154C122.954 45.5154 123.072 45.5105 123.174 45.5007C123.282 45.4861 123.372 45.4714 123.445 45.4568L123.453 47.0095C123.272 47.0681 123.077 47.1145 122.867 47.1487C122.657 47.1829 122.425 47.2 122.171 47.2C121.707 47.2 121.302 47.1243 120.955 46.9729C120.613 46.8167 120.35 46.5676 120.164 46.2258C119.978 45.884 119.886 45.4348 119.886 44.8782V37.1731ZM54.0069 63.3396V65.0535H48.3307V63.3396H54.0069ZM49.0484 54.3894V65.0535H46.8512V54.3894H49.0484ZM53.2672 58.7327V60.4026H48.3307V58.7327H53.2672ZM53.9996 54.3894V56.1106H48.3307V54.3894H53.9996ZM57.1561 57.1287L58.4671 59.5383L59.8147 57.1287H62.0633L59.8221 61.0032L62.1658 65.0535H59.91L58.4817 62.5046L57.0535 65.0535H54.7977L57.1414 61.0032L54.9002 57.1287H57.1561ZM65.498 58.6521V68.1003H63.3887V57.1287H65.3442L65.498 58.6521ZM70.5151 61.0032V61.157C70.5151 61.7332 70.4468 62.2678 70.3101 62.761C70.1782 63.2542 69.9829 63.6838 69.7241 64.05C69.4653 64.4114 69.1431 64.6946 68.7573 64.8997C68.3765 65.0999 67.937 65.2 67.439 65.2C66.9556 65.2 66.5356 65.1023 66.1792 64.907C65.8228 64.7117 65.5225 64.4382 65.2783 64.0867C65.0391 63.7302 64.8462 63.3176 64.6997 62.8489C64.5532 62.3801 64.4409 61.8772 64.3628 61.3401V60.9373C64.4409 60.3611 64.5532 59.8337 64.6997 59.3552C64.8462 58.8718 65.0391 58.4543 65.2783 58.1028C65.5225 57.7463 65.8203 57.4705 66.1719 57.2751C66.5283 57.0798 66.9458 56.9822 67.4243 56.9822C67.9272 56.9822 68.3691 57.0774 68.75 57.2678C69.1357 57.4583 69.458 57.7317 69.7168 58.0881C69.9805 58.4446 70.1782 58.8694 70.3101 59.3625C70.4468 59.8557 70.5151 60.4026 70.5151 61.0032ZM68.3984 61.157V61.0032C68.3984 60.6663 68.3691 60.3562 68.3105 60.073C68.2568 59.7849 68.1689 59.5334 68.0469 59.3186C67.9297 59.1038 67.7734 58.9377 67.5781 58.8206C67.3877 58.6985 67.1558 58.6375 66.8823 58.6375C66.5942 58.6375 66.3477 58.6838 66.1426 58.7766C65.9424 58.8694 65.7788 59.0037 65.6519 59.1794C65.5249 59.3552 65.4297 59.5652 65.3662 59.8093C65.3027 60.0535 65.2637 60.3293 65.249 60.637V61.655C65.2734 62.0164 65.3418 62.3411 65.4541 62.6292C65.5664 62.9124 65.7397 63.137 65.9741 63.303C66.2085 63.469 66.5161 63.552 66.897 63.552C67.1753 63.552 67.4097 63.491 67.6001 63.3689C67.7905 63.2419 67.9443 63.0686 68.0615 62.8489C68.1836 62.6292 68.269 62.3752 68.3179 62.0872C68.3716 61.7991 68.3984 61.489 68.3984 61.157ZM75.7736 65.2C75.1584 65.2 74.6066 65.1023 74.1184 64.907C73.6301 64.7068 73.215 64.4309 72.8732 64.0793C72.5363 63.7278 72.2775 63.3201 72.0969 62.8562C71.9162 62.3875 71.8259 61.8894 71.8259 61.3621V61.0691C71.8259 60.4685 71.9113 59.9192 72.0822 59.4211C72.2531 58.9231 72.4973 58.491 72.8146 58.1248C73.1369 57.7585 73.5275 57.4778 73.9865 57.2825C74.4455 57.0823 74.9631 56.9822 75.5393 56.9822C76.1008 56.9822 76.5988 57.075 77.0334 57.2605C77.468 57.446 77.8317 57.7097 78.1247 58.0515C78.4226 58.3933 78.6472 58.8035 78.7985 59.282C78.9499 59.7556 79.0256 60.283 79.0256 60.864V61.7429H72.7268V60.3367H76.9528V60.1755C76.9528 59.8826 76.8991 59.6213 76.7917 59.3918C76.6892 59.1575 76.5329 58.9719 76.323 58.8352C76.113 58.6985 75.8444 58.6301 75.5173 58.6301C75.239 58.6301 74.9997 58.6912 74.7995 58.8132C74.5993 58.9353 74.4357 59.1062 74.3088 59.3259C74.1867 59.5457 74.0939 59.8044 74.0305 60.1023C73.9719 60.3953 73.9426 60.7175 73.9426 61.0691V61.3621C73.9426 61.6794 73.9865 61.9724 74.0744 62.241C74.1672 62.5095 74.2966 62.7415 74.4626 62.9368C74.6335 63.1321 74.8386 63.2834 75.0778 63.3909C75.322 63.4983 75.5979 63.552 75.9055 63.552C76.2863 63.552 76.6403 63.4788 76.9675 63.3323C77.2995 63.1809 77.5852 62.9539 77.8244 62.6511L78.8498 63.7644C78.6838 64.0037 78.4567 64.2332 78.1687 64.4529C77.8855 64.6726 77.5437 64.8533 77.1433 64.9949C76.7429 65.1316 76.2863 65.2 75.7736 65.2ZM82.6361 58.8572V65.0535H80.5268V57.1287H82.5116L82.6361 58.8572ZM85.0238 57.0774L84.9872 59.033C84.8847 59.0183 84.7602 59.0061 84.6137 58.9963C84.4721 58.9817 84.3427 58.9744 84.2255 58.9744C83.9276 58.9744 83.6688 59.0134 83.4491 59.0916C83.2343 59.1648 83.0536 59.2747 82.9071 59.4211C82.7655 59.5676 82.6581 59.7458 82.5849 59.9558C82.5165 60.1658 82.4774 60.405 82.4677 60.6736L82.0429 60.5417C82.0429 60.0291 82.0941 59.5579 82.1967 59.1282C82.2992 58.6936 82.4481 58.3152 82.6435 57.9929C82.8437 57.6707 83.0878 57.4216 83.3759 57.2458C83.664 57.0701 83.9936 56.9822 84.3647 56.9822C84.4818 56.9822 84.6015 56.9919 84.7235 57.0115C84.8456 57.0261 84.9457 57.0481 85.0238 57.0774ZM88.5465 57.1287V65.0535H86.4298V57.1287H88.5465ZM86.298 55.0632C86.298 54.7556 86.4054 54.5017 86.6202 54.3015C86.8351 54.1013 87.1231 54.0012 87.4845 54.0012C87.8409 54.0012 88.1266 54.1013 88.3414 54.3015C88.5611 54.5017 88.671 54.7556 88.671 55.0632C88.671 55.3708 88.5611 55.6248 88.3414 55.825C88.1266 56.0251 87.8409 56.1252 87.4845 56.1252C87.1231 56.1252 86.8351 56.0251 86.6202 55.825C86.4054 55.6248 86.298 55.3708 86.298 55.0632ZM94.2371 65.2C93.6219 65.2 93.0701 65.1023 92.5818 64.907C92.0936 64.7068 91.6785 64.4309 91.3367 64.0793C90.9998 63.7278 90.741 63.3201 90.5604 62.8562C90.3797 62.3875 90.2894 61.8894 90.2894 61.3621V61.0691C90.2894 60.4685 90.3748 59.9192 90.5457 59.4211C90.7166 58.9231 90.9607 58.491 91.2781 58.1248C91.6004 57.7585 91.991 57.4778 92.45 57.2825C92.909 57.0823 93.4266 56.9822 94.0027 56.9822C94.5643 56.9822 95.0623 57.075 95.4969 57.2605C95.9314 57.446 96.2952 57.7097 96.5882 58.0515C96.886 58.3933 97.1106 58.8035 97.262 59.282C97.4134 59.7556 97.4891 60.283 97.4891 60.864V61.7429H91.1902V60.3367H95.4163V60.1755C95.4163 59.8826 95.3626 59.6213 95.2552 59.3918C95.1526 59.1575 94.9964 58.9719 94.7864 58.8352C94.5765 58.6985 94.3079 58.6301 93.9808 58.6301C93.7024 58.6301 93.4632 58.6912 93.263 58.8132C93.0628 58.9353 92.8992 59.1062 92.7723 59.3259C92.6502 59.5457 92.5574 59.8044 92.4939 60.1023C92.4354 60.3953 92.4061 60.7175 92.4061 61.0691V61.3621C92.4061 61.6794 92.45 61.9724 92.5379 62.241C92.6307 62.5095 92.7601 62.7415 92.9261 62.9368C93.097 63.1321 93.3021 63.2834 93.5413 63.3909C93.7854 63.4983 94.0613 63.552 94.3689 63.552C94.7498 63.552 95.1038 63.4788 95.431 63.3323C95.763 63.1809 96.0486 62.9539 96.2879 62.6511L97.3133 63.7644C97.1473 64.0037 96.9202 64.2332 96.6321 64.4529C96.3489 64.6726 96.0071 64.8533 95.6067 64.9949C95.2063 65.1316 94.7498 65.2 94.2371 65.2ZM101.056 58.8206V65.0535H98.9463V57.1287H100.924L101.056 58.8206ZM100.748 60.8127H100.177C100.177 60.2268 100.252 59.6995 100.404 59.2307C100.555 58.7571 100.768 58.3542 101.041 58.0222C101.314 57.6853 101.639 57.429 102.015 57.2532C102.396 57.0725 102.821 56.9822 103.29 56.9822C103.661 56.9822 104 57.0359 104.308 57.1433C104.615 57.2507 104.879 57.4216 105.099 57.656C105.323 57.8904 105.494 58.2004 105.611 58.5862C105.733 58.9719 105.794 59.4431 105.794 59.9998V65.0535H103.67V59.9924C103.67 59.6409 103.622 59.3674 103.524 59.1721C103.426 58.9768 103.282 58.8401 103.092 58.762C102.906 58.679 102.677 58.6375 102.403 58.6375C102.12 58.6375 101.874 58.6936 101.664 58.8059C101.458 58.9182 101.288 59.0745 101.151 59.2747C101.019 59.47 100.919 59.6995 100.851 59.9631C100.782 60.2268 100.748 60.51 100.748 60.8127ZM110.972 63.552C111.231 63.552 111.461 63.5032 111.661 63.4055C111.861 63.303 112.017 63.1614 112.13 62.9807C112.247 62.7952 112.308 62.5779 112.313 62.3289H114.298C114.293 62.8855 114.144 63.3811 113.851 63.8157C113.558 64.2454 113.165 64.5847 112.672 64.8337C112.178 65.0779 111.627 65.2 111.016 65.2C110.401 65.2 109.864 65.0974 109.405 64.8923C108.951 64.6873 108.572 64.4041 108.27 64.0427C107.967 63.6765 107.74 63.2517 107.589 62.7683C107.437 62.28 107.362 61.7576 107.362 61.2009V60.9885C107.362 60.427 107.437 59.9045 107.589 59.4211C107.74 58.9329 107.967 58.5081 108.27 58.1467C108.572 57.7805 108.951 57.4949 109.405 57.2898C109.859 57.0847 110.391 56.9822 111.002 56.9822C111.651 56.9822 112.22 57.1067 112.708 57.3557C113.201 57.6047 113.587 57.9612 113.865 58.425C114.149 58.884 114.293 59.4285 114.298 60.0583H112.313C112.308 59.7947 112.252 59.5554 112.144 59.3406C112.042 59.1257 111.89 58.9548 111.69 58.8279C111.495 58.696 111.253 58.6301 110.965 58.6301C110.657 58.6301 110.406 58.696 110.211 58.8279C110.015 58.9548 109.864 59.1306 109.757 59.3552C109.649 59.575 109.573 59.8264 109.529 60.1096C109.49 60.3879 109.471 60.6809 109.471 60.9885V61.2009C109.471 61.5085 109.49 61.804 109.529 62.0872C109.569 62.3704 109.642 62.6218 109.749 62.8416C109.862 63.0613 110.015 63.2346 110.211 63.3616C110.406 63.4885 110.66 63.552 110.972 63.552ZM119.468 65.2C118.853 65.2 118.301 65.1023 117.813 64.907C117.325 64.7068 116.91 64.4309 116.568 64.0793C116.231 63.7278 115.972 63.3201 115.791 62.8562C115.611 62.3875 115.52 61.8894 115.52 61.3621V61.0691C115.52 60.4685 115.606 59.9192 115.777 59.4211C115.948 58.9231 116.192 58.491 116.509 58.1248C116.831 57.7585 117.222 57.4778 117.681 57.2825C118.14 57.0823 118.658 56.9822 119.234 56.9822C119.795 56.9822 120.293 57.075 120.728 57.2605C121.162 57.446 121.526 57.7097 121.819 58.0515C122.117 58.3933 122.342 58.8035 122.493 59.282C122.644 59.7556 122.72 60.283 122.72 60.864V61.7429H116.421V60.3367H120.647V60.1755C120.647 59.8826 120.594 59.6213 120.486 59.3918C120.384 59.1575 120.227 58.9719 120.017 58.8352C119.808 58.6985 119.539 58.6301 119.212 58.6301C118.933 58.6301 118.694 58.6912 118.494 58.8132C118.294 58.9353 118.13 59.1062 118.003 59.3259C117.881 59.5457 117.788 59.8044 117.725 60.1023C117.666 60.3953 117.637 60.7175 117.637 61.0691V61.3621C117.637 61.6794 117.681 61.9724 117.769 62.241C117.862 62.5095 117.991 62.7415 118.157 62.9368C118.328 63.1321 118.533 63.2834 118.772 63.3909C119.017 63.4983 119.292 63.552 119.6 63.552C119.981 63.552 120.335 63.4788 120.662 63.3323C120.994 63.1809 121.28 62.9539 121.519 62.6511L122.544 63.7644C122.378 64.0037 122.151 64.2332 121.863 64.4529C121.58 64.6726 121.238 64.8533 120.838 64.9949C120.437 65.1316 119.981 65.2 119.468 65.2Z" fill="#E5E5E5"/>
<path d="M66.6314 91.0337V94H53.5005V91.4688L59.71 84.811C60.334 84.1167 60.8262 83.5059 61.1866 82.9785C61.5469 82.4424 61.8062 81.9634 61.9644 81.5415C62.1314 81.1108 62.2149 80.7021 62.2149 80.3154C62.2149 79.7354 62.1182 79.2388 61.9249 78.8257C61.7315 78.4038 61.4459 78.0786 61.0679 77.8501C60.6988 77.6216 60.2418 77.5073 59.6968 77.5073C59.1168 77.5073 58.6158 77.6479 58.1939 77.9292C57.7808 78.2104 57.4644 78.6016 57.2447 79.1025C57.0338 79.6035 56.9283 80.1704 56.9283 80.8032H53.1182C53.1182 79.6606 53.3907 78.6147 53.9356 77.6655C54.4805 76.7075 55.2496 75.9473 56.2427 75.3848C57.2359 74.8135 58.4136 74.5278 59.7759 74.5278C61.1207 74.5278 62.2545 74.7476 63.1773 75.187C64.1089 75.6177 64.8121 76.2417 65.2867 77.0591C65.7701 77.8677 66.0118 78.8345 66.0118 79.9595C66.0118 80.5923 65.9107 81.2119 65.7086 81.8184C65.5064 82.416 65.2164 83.0137 64.8384 83.6113C64.4693 84.2002 64.0211 84.7979 63.4937 85.4043C62.9664 86.0107 62.3819 86.6392 61.7403 87.2896L58.4048 91.0337H66.6314ZM82.4644 82.7148V86.0371C82.4644 87.4785 82.3106 88.7222 82.003 89.7681C81.6953 90.8052 81.2515 91.6577 80.6714 92.3257C80.1001 92.9849 79.419 93.4727 78.628 93.7891C77.8369 94.1055 76.958 94.2637 75.9912 94.2637C75.2178 94.2637 74.4971 94.167 73.8291 93.9736C73.1612 93.7715 72.5591 93.4595 72.023 93.0376C71.4956 92.6157 71.0386 92.084 70.6519 91.4424C70.2739 90.792 69.9839 90.0186 69.7818 89.1221C69.5796 88.2256 69.4785 87.1973 69.4785 86.0371V82.7148C69.4785 81.2734 69.6323 80.0386 69.94 79.0103C70.2564 77.9731 70.7002 77.125 71.2715 76.4658C71.8516 75.8066 72.5371 75.3232 73.3281 75.0156C74.1192 74.6992 74.9981 74.541 75.9649 74.541C76.7383 74.541 77.4546 74.6421 78.1138 74.8442C78.7818 75.0376 79.3838 75.3408 79.9199 75.7539C80.4561 76.167 80.9131 76.6987 81.291 77.3491C81.669 77.9907 81.959 78.7598 82.1612 79.6562C82.3633 80.5439 82.4644 81.5635 82.4644 82.7148ZM78.6543 86.5381V82.2007C78.6543 81.5063 78.6148 80.8999 78.5357 80.3813C78.4654 79.8628 78.3555 79.4233 78.2061 79.063C78.0567 78.6938 77.8721 78.395 77.6524 78.1665C77.4326 77.938 77.1821 77.771 76.9009 77.6655C76.6196 77.5601 76.3076 77.5073 75.9649 77.5073C75.5342 77.5073 75.1519 77.5908 74.8179 77.7578C74.4927 77.9248 74.2158 78.1929 73.9873 78.562C73.7588 78.9224 73.583 79.4058 73.46 80.0122C73.3457 80.6099 73.2886 81.3394 73.2886 82.2007V86.5381C73.2886 87.2324 73.3238 87.8433 73.3941 88.3706C73.4732 88.8979 73.5874 89.3506 73.7368 89.7285C73.895 90.0977 74.0796 90.4009 74.2905 90.6382C74.5103 90.8667 74.7608 91.0337 75.042 91.1392C75.3321 91.2446 75.6485 91.2974 75.9912 91.2974C76.4131 91.2974 76.7866 91.2139 77.1118 91.0469C77.4458 90.8711 77.7271 90.5986 77.9556 90.2295C78.1929 89.8516 78.3687 89.3594 78.4829 88.7529C78.5972 88.1465 78.6543 87.4082 78.6543 86.5381ZM98.7192 91.0337V94H85.5884V91.4688L91.7978 84.811C92.4219 84.1167 92.914 83.5059 93.2744 82.9785C93.6348 82.4424 93.894 81.9634 94.0522 81.5415C94.2192 81.1108 94.3027 80.7021 94.3027 80.3154C94.3027 79.7354 94.206 79.2388 94.0127 78.8257C93.8193 78.4038 93.5337 78.0786 93.1557 77.8501C92.7866 77.6216 92.3296 77.5073 91.7847 77.5073C91.2046 77.5073 90.7036 77.6479 90.2817 77.9292C89.8686 78.2104 89.5522 78.6016 89.3325 79.1025C89.1216 79.6035 89.0161 80.1704 89.0161 80.8032H85.206C85.206 79.6606 85.4785 78.6147 86.0234 77.6655C86.5683 76.7075 87.3374 75.9473 88.3306 75.3848C89.3237 74.8135 90.5014 74.5278 91.8638 74.5278C93.2085 74.5278 94.3423 74.7476 95.2651 75.187C96.1968 75.6177 96.8999 76.2417 97.3745 77.0591C97.8579 77.8677 98.0996 78.8345 98.0996 79.9595C98.0996 80.5923 97.9985 81.2119 97.7964 81.8184C97.5942 82.416 97.3042 83.0137 96.9263 83.6113C96.5571 84.2002 96.1089 84.7979 95.5815 85.4043C95.0542 86.0107 94.4697 86.6392 93.8281 87.2896L90.4927 91.0337H98.7192ZM114.763 91.0337V94H101.632V91.4688L107.842 84.811C108.466 84.1167 108.958 83.5059 109.318 82.9785C109.679 82.4424 109.938 81.9634 110.096 81.5415C110.263 81.1108 110.347 80.7021 110.347 80.3154C110.347 79.7354 110.25 79.2388 110.057 78.8257C109.863 78.4038 109.578 78.0786 109.2 77.8501C108.831 77.6216 108.373 77.5073 107.829 77.5073C107.248 77.5073 106.747 77.6479 106.326 77.9292C105.913 78.2104 105.596 78.6016 105.376 79.1025C105.165 79.6035 105.06 80.1704 105.06 80.8032H101.25C101.25 79.6606 101.522 78.6147 102.067 77.6655C102.612 76.7075 103.381 75.9473 104.374 75.3848C105.368 74.8135 106.545 74.5278 107.908 74.5278C109.252 74.5278 110.386 74.7476 111.309 75.187C112.241 75.6177 112.944 76.2417 113.418 77.0591C113.902 77.8677 114.143 78.8345 114.143 79.9595C114.143 80.5923 114.042 81.2119 113.84 81.8184C113.638 82.416 113.348 83.0137 112.97 83.6113C112.601 84.2002 112.153 84.7979 111.625 85.4043C111.098 86.0107 110.514 86.6392 109.872 87.2896L106.537 91.0337H114.763Z" fill="#E5E5E5"/>
</svg>
