<svg width="165" height="101" viewBox="0 0 165 101" fill="none" xmlns="http://www.w3.org/2000/svg">
<path fill-rule="evenodd" clip-rule="evenodd" d="M132.075 76.6568C132.851 77.6684 133.868 78.4695 135.033 78.9868C136.198 79.5042 137.474 79.7213 138.745 79.6185C141.419 79.4956 144.035 78.7995 146.416 77.5773C142.32 76.9503 143.308 76.1098 140.439 75.1493C138.602 74.7119 136.679 74.7997 134.89 75.4028C136.968 74.6978 138.967 73.7767 140.853 72.6546C141.763 73.3458 142.82 73.8195 143.941 74.0391C145.063 74.2588 146.22 74.2187 147.323 73.9219C149.752 73.2647 152.021 72.1209 153.994 70.56C150.165 70.8269 150.939 69.893 148.164 69.6395C146.789 69.5844 145.42 69.8445 144.162 70.4C145.536 69.3278 146.821 68.1454 148.004 66.8646C149.015 67.3162 150.119 67.5215 151.226 67.4635C152.332 67.4055 153.409 67.086 154.367 66.5311C156.506 65.3421 158.384 63.7362 159.89 61.8084C156.355 62.9557 156.875 61.8751 154.221 62.2754C152.742 62.616 151.368 63.312 150.218 64.3032C151.381 62.776 152.425 61.1614 153.34 59.4738C154.448 59.6703 155.587 59.6089 156.667 59.2942C157.748 58.9796 158.741 58.4201 159.57 57.6594C161.449 55.9725 162.985 53.9386 164.093 51.6694C160.784 53.6171 161.104 52.4298 158.53 53.4304C156.932 54.188 155.555 55.3405 154.527 56.7789C155.345 54.9179 156.014 52.9953 156.529 51.029C157.597 50.9327 158.631 50.5989 159.554 50.0518C160.478 49.5048 161.267 48.7584 161.865 47.8672C163.291 45.8576 164.319 43.5933 164.893 41.1968C162.225 43.8649 162.225 42.6109 160.024 44.1584C158.765 45.1915 157.777 46.5145 157.142 48.014C157.486 46.0699 157.692 44.1038 157.756 42.1306C158.733 41.8477 159.634 41.3498 160.393 40.6735C161.153 39.9971 161.751 39.1594 162.145 38.2218C163.095 36.118 163.647 33.8563 163.773 31.5513C161.812 34.4196 161.665 33.3523 159.957 35.1667C158.818 36.6235 158.066 38.3443 157.769 40.1695C157.739 37.9821 157.534 35.8006 157.156 33.6458C158.071 33.2141 158.873 32.5763 159.501 31.7824C160.128 30.9885 160.563 30.0601 160.771 29.0699C161.253 26.9527 161.29 24.7583 160.878 22.6263C159.544 25.6947 159.13 24.7341 157.809 26.7753C157.023 28.273 156.659 29.9561 156.755 31.6447C156.622 31.0444 156.475 30.4574 156.302 29.857C155.982 28.643 155.595 27.469 155.168 26.3217C155.918 25.7364 156.528 24.9904 156.953 24.1386C157.378 23.2868 157.607 22.3506 157.622 21.3989C157.663 19.3819 157.3 17.3771 156.555 15.5022C155.915 18.584 155.368 17.7835 154.554 19.9181C154.153 21.2979 154.102 22.7562 154.407 24.1605C153.758 22.6776 153.014 21.2383 152.179 19.8514C152.681 19.1978 153.044 18.4495 153.248 17.6516C153.452 16.8537 153.493 16.0227 153.367 15.2087C153.127 13.3758 152.562 11.6004 151.699 9.96574C151.592 12.8341 151.045 12.1804 150.685 14.2082C150.543 15.5952 150.721 16.9964 151.206 18.3038C150.3 16.9076 149.307 15.5708 148.231 14.3016C148.633 13.6657 148.9 12.9537 149.015 12.2099C149.13 11.4662 149.09 10.7067 148.898 9.97908C148.511 8.38014 147.818 6.87141 146.856 5.53657C147.043 8.09802 146.47 7.59107 146.336 9.44545C146.351 10.8192 146.708 12.1674 147.377 13.3677C146.344 12.2849 145.243 11.2689 144.081 10.326C144.407 9.7142 144.592 9.0379 144.625 8.3458C144.657 7.6537 144.535 6.96306 144.268 6.32368C143.735 4.99921 142.92 3.80655 141.88 2.82837C142.334 5.0563 141.747 4.72278 141.88 6.39039C142.012 7.57083 142.474 8.69007 143.214 9.61888C142.103 8.749 140.94 7.94709 139.732 7.21752C139.828 6.63843 139.806 6.04607 139.669 5.47549C139.531 4.90491 139.281 4.3677 138.932 3.89564C138.191 2.84646 137.264 1.9421 136.197 1.22747C137.078 3.04183 136.531 2.82837 136.984 4.21582C137.372 5.15218 137.976 5.98396 138.745 6.64386C137.643 6.02853 136.508 5.47621 135.343 4.9896C135.36 4.4379 135.265 3.88847 135.063 3.37473C134.862 2.86098 134.557 2.39368 134.169 2.00124C133.316 1.14245 132.288 0.478036 131.154 0.0534668C132.221 1.65438 131.648 1.58767 132.248 2.8684C132.603 3.53808 133.122 4.10714 133.756 4.52266C133.465 4.463 133.166 4.463 132.875 4.52266C132.058 4.78758 131.224 5.00145 130.38 5.16303C130.999 5.75744 131.778 6.1565 132.622 6.31034C133.094 6.40821 133.582 6.39144 134.047 6.26145C134.511 6.13146 134.937 5.89203 135.29 5.56325C136.317 6.0035 137.318 6.48377 138.278 7.00407C137.851 6.84651 137.389 6.81411 136.944 6.91068C135.61 7.23086 135.97 7.48434 134.369 7.80452C135.095 8.36884 135.963 8.71993 136.877 8.81843C137.389 8.87805 137.908 8.81475 138.391 8.63378C138.873 8.45281 139.306 8.15938 139.652 7.77784C140.848 8.50166 141.998 9.29921 143.094 10.1659C142.349 9.62845 141.452 9.34332 140.533 9.35206C138.905 9.43211 139.199 9.73895 137.238 9.76563C138.135 10.4826 139.185 10.9846 140.306 11.2332C140.891 11.3841 141.5 11.417 142.098 11.33C142.696 11.2429 143.27 11.0377 143.788 10.7262C144.835 11.5948 145.824 12.5306 146.75 13.5278C146.088 12.9464 145.254 12.5994 144.375 12.5406C142.467 12.4472 142.827 12.8874 140.479 12.6873C141.357 13.7254 142.487 14.5202 143.761 14.9953C144.404 15.2561 145.096 15.371 145.788 15.3318C146.48 15.2926 147.155 15.1002 147.764 14.7685C149.039 16.3245 150.181 17.9846 151.179 19.7313C150.528 18.5985 149.483 17.7441 148.244 17.3299C146.309 16.8096 146.603 17.3299 144.242 16.6229C144.976 17.8522 145.991 18.89 147.203 19.6512C147.831 20.067 148.541 20.3408 149.286 20.4537C150.03 20.5666 150.79 20.5159 151.512 20.305C152.372 21.866 153.134 23.4789 153.794 25.1344C153.234 24.1743 152.384 23.4173 151.366 22.9731C149.391 22.186 149.658 22.7597 147.257 21.7057C147.927 23.0712 148.898 24.2664 150.098 25.2011C150.678 25.688 151.351 26.0515 152.075 26.2695C152.8 26.4874 153.562 26.5551 154.314 26.4684C154.701 27.509 155.061 28.5896 155.408 29.7103L155.728 30.8576C155.237 30.1116 154.561 29.505 153.767 29.0966C151.712 28.056 151.953 28.7097 149.458 27.3489C150.075 28.8722 151.023 30.2393 152.233 31.3512C153.303 32.4129 154.729 33.0402 156.235 33.1122C156.576 34.9179 156.786 36.7459 156.862 38.582C156.446 37.6777 155.83 36.8795 155.061 36.2473C153.047 34.6464 153.207 35.3935 150.779 33.3257C151.219 35.1088 152.018 36.7837 153.127 38.2484C154.051 39.5562 155.362 40.5408 156.875 41.0634C156.825 43.2136 156.593 45.3558 156.182 47.467C156.007 46.233 155.515 45.0654 154.754 44.0784C152.9 41.9305 152.913 42.7443 150.752 40.0761C150.821 42.1017 151.322 44.0891 152.219 45.9061C152.959 47.587 154.255 48.9624 155.888 49.8016C155.37 51.9068 154.673 53.9642 153.807 55.9518C153.793 54.6718 153.448 53.4173 152.806 52.3097C151.272 49.7483 151.139 50.6021 149.338 47.3736C149.052 49.4644 149.211 51.5921 149.805 53.6171C150.27 55.4234 151.304 57.0323 152.753 58.2064C151.641 60.285 150.337 62.2548 148.858 64.0897C149.216 62.7021 149.18 61.2417 148.751 59.874C147.817 57.0724 147.51 57.8595 146.47 54.3642C145.746 56.2921 145.445 58.3533 145.589 60.4076C145.66 62.32 146.364 64.1546 147.59 65.6239C146.014 67.4202 144.247 69.0395 142.32 70.4533C143.007 68.999 143.275 67.3821 143.094 65.784C142.667 62.7289 142.227 63.476 141.76 59.6739C140.723 61.5379 140.078 63.5946 139.866 65.7173C139.613 67.6737 139.962 69.6607 140.866 71.4139C139.023 72.5988 137.049 73.5659 134.983 74.2955L134.276 74.6157C135.4 73.4304 136.1 71.9054 136.264 70.2799C136.531 67.1181 135.837 67.7051 136.264 63.8229C134.645 65.2809 133.409 67.1131 132.662 69.1592C131.842 71.1614 131.799 73.3974 132.542 75.4295C128.873 77.0971 122.162 80.2589 120.695 81.5796C119.801 82.3667 120.495 83.5541 121.028 83.1272C122.109 82.2733 125.031 80.459 126.191 79.6985C128.088 78.564 130.053 77.5481 132.075 76.6568Z" fill="#E5E5E5"/>
<path fill-rule="evenodd" clip-rule="evenodd" d="M38.689 79.6584C39.823 80.4322 42.771 82.2332 43.851 83.087C44.398 83.5139 45.079 82.3266 44.198 81.5261C42.731 80.1921 36.02 77.057 32.338 75.3893C33.084 73.3543 33.046 71.1143 32.232 69.1058C31.481 67.0582 30.239 65.226 28.616 63.7694C29.07 67.6516 28.389 67.078 28.616 70.2398C28.786 71.8917 29.515 73.4359 30.684 74.6156L29.964 74.3087C27.901 73.5744 25.932 72.6029 24.094 71.4138C25.001 69.6666 25.346 67.6814 25.081 65.7305C24.875 63.6066 24.23 61.5485 23.186 59.6871C22.786 63.4893 22.346 62.7422 21.932 65.7973C21.744 67.3885 22.002 69.0009 22.679 70.4532C20.751 69.0468 18.988 67.4267 17.423 65.6238C18.65 64.1558 19.35 62.3195 19.411 60.4075C19.558 58.3586 19.263 56.3019 18.544 54.3775C17.503 57.8728 17.21 57.0456 16.249 59.8739C15.828 61.2433 15.795 62.7029 16.156 64.0896C14.7 62.2213 13.432 60.2151 12.367 58.0996C13.821 56.93 14.856 55.3193 15.315 53.5103C15.903 51.4887 16.062 49.3667 15.782 47.2801C13.981 50.5086 13.848 49.6548 12.314 52.2029C11.674 53.312 11.325 54.5649 11.3 55.845C10.447 53.8567 9.75099 51.8048 9.21899 49.7082C10.857 48.8714 12.157 47.4957 12.901 45.8126C13.792 43.998 14.292 42.0163 14.368 39.996C12.154 42.6642 12.154 41.9037 10.366 43.9983C9.54 44.984 8.992 46.1721 8.778 47.4402C8.357 45.3466 8.098 43.2235 8.005 41.0899C9.524 40.5715 10.841 39.5863 11.767 38.275C12.877 36.8276 13.684 35.1716 14.141 33.4056C11.7 35.4734 11.873 34.7397 9.85899 36.3406C9.07499 36.9438 8.44 37.7199 8.005 38.6085C8.073 36.7719 8.282 34.9432 8.632 33.1388C10.137 33.0668 11.563 32.4394 12.634 31.3778C13.846 30.2673 14.794 28.8999 15.409 27.3755C12.901 28.7096 13.154 28.0959 11.1 29.1232C10.305 29.5316 9.63001 30.1382 9.13901 30.8842C9.23201 30.4973 9.339 30.1237 9.459 29.7369C9.792 28.6296 10.166 27.549 10.553 26.5084C11.309 26.586 12.074 26.5076 12.799 26.2782C13.524 26.0487 14.194 25.673 14.768 25.1743C15.968 24.2448 16.94 23.0539 17.61 21.6923C15.209 22.7462 15.475 22.1592 13.501 22.9463C12.507 23.4152 11.683 24.1793 11.14 25.1343C11.804 23.4786 12.57 21.8657 13.434 20.3049C14.156 20.5222 14.917 20.5764 15.662 20.4633C16.408 20.3502 17.119 20.0728 17.743 19.6511C18.956 18.8899 19.971 17.8521 20.705 16.6228C18.33 17.3432 18.637 16.8229 16.703 17.3298C15.463 17.7439 14.419 18.5984 13.768 19.7312C14.76 17.9682 15.902 16.2944 17.183 14.7284C17.794 15.0544 18.469 15.2425 19.16 15.2793C19.852 15.3162 20.543 15.201 21.185 14.9418C22.456 14.4674 23.585 13.6778 24.467 12.6472C22.119 12.8473 22.479 12.3937 20.572 12.4871C19.691 12.5497 18.857 12.9015 18.197 13.4877C19.149 12.5056 20.16 11.5834 21.225 10.7261C21.743 11.0381 22.318 11.2427 22.916 11.3275C23.514 11.4123 24.124 11.3756 24.707 11.2197C25.831 10.9767 26.881 10.4741 27.776 9.75219C25.748 9.75219 26.108 9.41866 24.481 9.35196C23.563 9.33839 22.665 9.6189 21.919 10.1524C23.01 9.27252 24.155 8.46159 25.348 7.72437C25.694 8.10592 26.127 8.39935 26.609 8.58032C27.092 8.76129 27.611 8.82459 28.123 8.76496C29.057 8.68284 29.947 8.33054 30.684 7.75105C29.78 7.50415 28.889 7.21025 28.016 6.87056C27.573 6.76263 27.108 6.79052 26.682 6.9506C27.642 6.43031 28.643 5.95004 29.67 5.50979C30.023 5.83812 30.449 6.07818 30.913 6.21035C31.377 6.34252 31.865 6.36303 32.338 6.27022C33.218 6.13026 34.035 5.73074 34.686 5.1229C33.846 4.94947 33.019 4.73602 32.192 4.48254C31.902 4.41626 31.601 4.41626 31.311 4.48254C31.942 4.06355 32.46 3.49533 32.819 2.82827C33.406 1.49418 32.819 1.60091 33.913 0C32.789 0.42796 31.769 1.09218 30.924 1.94777C30.538 2.34158 30.235 2.80912 30.033 3.32254C29.832 3.83595 29.735 4.38472 29.75 4.93613C28.588 5.42814 27.453 5.98031 26.348 6.5904C27.08 5.92797 27.651 5.10646 28.016 4.18904C28.469 2.85495 27.922 3.02838 28.803 1.20068C27.738 1.91832 26.812 2.8222 26.068 3.86886C25.731 4.35326 25.493 4.90005 25.369 5.47729C25.246 6.05453 25.238 6.65063 25.348 7.23076C24.143 7.9544 22.985 8.75193 21.879 9.61878C22.643 8.69762 23.129 7.57771 23.28 6.39028C23.347 4.72267 22.76 5.0562 23.213 2.82827C22.176 3.81186 21.358 5.00281 20.812 6.32358C20.55 6.96456 20.432 7.65535 20.466 8.34699C20.501 9.03863 20.687 9.71421 21.012 10.3259C19.841 11.3059 18.731 12.3574 17.69 13.4743C18.34 12.2692 18.679 10.9212 18.677 9.55207C18.53 7.69769 17.97 8.21799 18.157 5.6432C17.2 6.98089 16.508 8.48863 16.116 10.0857C15.924 10.8133 15.884 11.5728 15.998 12.3165C16.113 13.0603 16.38 13.7723 16.783 14.4082C15.706 15.6799 14.708 17.0165 13.794 18.4104C14.29 17.1056 14.472 15.703 14.328 14.3148C13.955 12.287 13.408 12.9807 13.314 10.0857C12.449 11.6958 11.884 13.4498 11.647 15.262C11.522 16.0729 11.562 16.9006 11.764 17.6958C11.965 18.491 12.325 19.2377 12.821 19.8913C12.021 21.2889 11.304 22.7322 10.673 24.2137C10.98 22.8089 10.925 21.349 10.513 19.9713C9.699 17.8368 9.179 18.6372 8.511 15.5422C7.743 17.398 7.35701 19.3901 7.37801 21.3988C7.38501 22.3355 7.599 23.259 8.005 24.1032C8.411 24.9473 8.998 25.6912 9.726 26.2816C9.299 27.4289 8.925 28.6029 8.578 29.8169C8.418 30.4172 8.271 31.0042 8.138 31.6046C8.234 29.9159 7.87 28.2329 7.084 26.7352C5.75 24.694 5.35001 25.6545 4.01601 22.5861C3.60401 24.7182 3.63999 26.9126 4.12199 29.0298C4.32499 30.0272 4.75699 30.9636 5.38499 31.7649C6.01199 32.5661 6.81801 33.2101 7.73801 33.6457C7.36001 35.8005 7.15399 37.982 7.12399 40.1694C6.82199 38.346 6.07 36.6266 4.936 35.1666C3.228 33.4056 3.082 34.4328 1.121 31.5512C1.24 33.857 1.793 36.1198 2.748 38.2217C3.142 39.1593 3.74 39.997 4.5 40.6734C5.259 41.3498 6.16099 41.8476 7.13699 42.1305C7.19499 44.1042 7.40001 46.0708 7.75101 48.0139C7.12401 46.484 6.13 45.1323 4.856 44.0783C2.668 42.5708 2.668 43.7715 0 41.1566C0.575 43.5506 1.598 45.814 3.015 47.8271C3.626 48.7236 4.429 49.4726 5.366 50.0195C6.303 50.5665 7.35 50.8976 8.431 50.9889C8.944 52.9558 9.613 54.8786 10.433 56.7388C9.425 55.3145 8.06999 54.1711 6.49699 53.4169C3.92199 52.4164 4.24201 53.6037 0.934006 51.6426C2.05701 53.9164 3.61099 55.9506 5.50999 57.6326C6.33699 58.3981 7.329 58.9624 8.41 59.2817C9.49 59.601 10.63 59.6667 11.74 59.4737C12.655 61.1613 13.699 62.7759 14.862 64.3031C13.712 63.3119 12.339 62.6159 10.859 62.2753C8.19099 61.875 8.725 62.9556 5.19 61.8083C6.685 63.732 8.549 65.3377 10.673 66.531C11.633 67.0819 12.708 67.4002 13.813 67.4605C14.918 67.5207 16.022 67.3212 17.036 66.8779C18.223 68.1509 19.507 69.3286 20.878 70.3999C19.619 69.8458 18.251 69.5857 16.876 69.6394C14.101 69.8929 14.875 70.8401 11.046 70.5599C13.016 72.1259 15.286 73.2702 17.717 73.9218C18.82 74.2186 19.977 74.2587 21.099 74.0391C22.221 73.8194 23.277 73.3457 24.187 72.6545C26.073 73.7766 28.072 74.6977 30.15 75.4027C28.361 74.7996 26.438 74.7118 24.601 75.1492C21.732 76.1098 22.72 76.9502 18.624 77.5773C21.005 78.7994 23.621 79.4955 26.295 79.6184C27.566 79.7213 28.842 79.5041 30.007 78.9867C31.172 78.4694 32.189 77.6683 32.965 76.6567C34.932 77.5409 36.843 78.5433 38.689 79.6584Z" fill="#E5E5E5"/>
<path d="M49.4258 24.3733H46.6865L46.6719 22.8645H48.9717C49.377 22.8645 49.709 22.8132 49.9678 22.7107C50.2266 22.6033 50.4194 22.4495 50.5464 22.2493C50.6782 22.0442 50.7441 21.7952 50.7441 21.5022C50.7441 21.1702 50.6807 20.9016 50.5537 20.6965C50.4316 20.4915 50.2388 20.3425 49.9751 20.2498C49.7163 20.157 49.3818 20.1106 48.9717 20.1106H47.4482V29.0535H45.251V18.3894H48.9717C49.5918 18.3894 50.146 18.448 50.6343 18.5652C51.1274 18.6824 51.5449 18.8606 51.8867 19.0999C52.2285 19.3391 52.4897 19.6418 52.6704 20.0081C52.8511 20.3694 52.9414 20.7991 52.9414 21.2971C52.9414 21.7366 52.8413 22.1418 52.6411 22.5129C52.4458 22.884 52.1357 23.1868 51.7109 23.4211C51.291 23.6555 50.7417 23.7849 50.063 23.8093L49.4258 24.3733ZM49.3306 29.0535H46.0859L46.9429 27.3396H49.3306C49.7163 27.3396 50.0312 27.2786 50.2754 27.1565C50.5195 27.0295 50.7002 26.8586 50.8174 26.6438C50.9346 26.429 50.9932 26.1824 50.9932 25.9041C50.9932 25.5916 50.9395 25.3206 50.832 25.0911C50.7295 24.8616 50.5635 24.6858 50.334 24.5637C50.1045 24.4368 49.8018 24.3733 49.4258 24.3733H47.3091L47.3237 22.8645H49.9604L50.4658 23.4578C51.1152 23.448 51.6377 23.5627 52.0332 23.802C52.4336 24.0364 52.7241 24.3416 52.9048 24.7175C53.0903 25.0935 53.1831 25.4963 53.1831 25.926C53.1831 26.6096 53.0342 27.1858 52.7363 27.6545C52.4385 28.1184 52.0015 28.4675 51.4253 28.7019C50.854 28.9363 50.1558 29.0535 49.3306 29.0535ZM58.6467 29.2C58.0314 29.2 57.4797 29.1023 56.9914 28.907C56.5031 28.7068 56.0881 28.4309 55.7463 28.0793C55.4094 27.7278 55.1506 27.3201 54.9699 26.8562C54.7893 26.3875 54.6989 25.8894 54.6989 25.3621V25.0691C54.6989 24.4685 54.7844 23.9192 54.9553 23.4211C55.1262 22.9231 55.3703 22.491 55.6877 22.1248C56.01 21.7585 56.4006 21.4778 56.8596 21.2825C57.3186 21.0823 57.8361 20.9822 58.4123 20.9822C58.9738 20.9822 59.4719 21.075 59.9064 21.2605C60.341 21.446 60.7048 21.7097 60.9978 22.0515C61.2956 22.3933 61.5202 22.8035 61.6716 23.282C61.8229 23.7556 61.8986 24.283 61.8986 24.864V25.7429H55.5998V24.3367H59.8259V24.1755C59.8259 23.8826 59.7722 23.6213 59.6647 23.3918C59.5622 23.1575 59.406 22.9719 59.196 22.8352C58.986 22.6985 58.7175 22.6301 58.3903 22.6301C58.112 22.6301 57.8728 22.6912 57.6726 22.8132C57.4724 22.9353 57.3088 23.1062 57.1818 23.3259C57.0598 23.5457 56.967 23.8044 56.9035 24.1023C56.8449 24.3953 56.8156 24.7175 56.8156 25.0691V25.3621C56.8156 25.6794 56.8596 25.9724 56.9475 26.241C57.0402 26.5095 57.1696 26.7415 57.3356 26.9368C57.5065 27.1321 57.7116 27.2834 57.9509 27.3909C58.195 27.4983 58.4709 27.552 58.7785 27.552C59.1594 27.552 59.5134 27.4788 59.8405 27.3323C60.1726 27.1809 60.4582 26.9539 60.6975 26.6511L61.7229 27.7644C61.5568 28.0037 61.3298 28.2332 61.0417 28.4529C60.7585 28.6726 60.4167 28.8533 60.0163 28.9949C59.6159 29.1316 59.1594 29.2 58.6467 29.2ZM67.6845 26.8635C67.6845 26.7122 67.6405 26.5754 67.5526 26.4534C67.4647 26.3313 67.3012 26.219 67.0619 26.1165C66.8275 26.009 66.4882 25.9114 66.0438 25.8235C65.6435 25.7356 65.2699 25.6257 64.9232 25.4939C64.5814 25.3572 64.2836 25.1936 64.0297 25.0032C63.7807 24.8127 63.5854 24.5881 63.4438 24.3293C63.3021 24.0657 63.2313 23.7654 63.2313 23.4285C63.2313 23.0964 63.3021 22.7839 63.4438 22.491C63.5902 22.198 63.7978 21.9392 64.0663 21.7146C64.3397 21.4851 64.6718 21.3069 65.0624 21.1799C65.4579 21.0481 65.9022 20.9822 66.3954 20.9822C67.0839 20.9822 67.6747 21.092 68.1679 21.3118C68.6659 21.5315 69.0468 21.8342 69.3104 22.22C69.579 22.6008 69.7133 23.0354 69.7133 23.5237H67.6039C67.6039 23.3186 67.56 23.1355 67.4721 22.9744C67.3891 22.8083 67.2572 22.679 67.0766 22.5862C66.9008 22.4885 66.6713 22.4397 66.3881 22.4397C66.1537 22.4397 65.9511 22.4812 65.7802 22.5642C65.6093 22.6423 65.4774 22.7498 65.3847 22.8865C65.2968 23.0183 65.2528 23.1648 65.2528 23.3259C65.2528 23.448 65.2772 23.5579 65.3261 23.6555C65.3798 23.7483 65.4652 23.8337 65.5824 23.9119C65.6996 23.99 65.851 24.0632 66.0365 24.1316C66.227 24.1951 66.4613 24.2537 66.7396 24.3074C67.3109 24.4246 67.8212 24.5784 68.2704 24.7688C68.7196 24.9543 69.0761 25.2083 69.3397 25.5305C69.6034 25.8479 69.7353 26.2654 69.7353 26.783C69.7353 27.1345 69.6571 27.4568 69.5009 27.7498C69.3446 28.0427 69.12 28.2991 68.8271 28.5188C68.5341 28.7336 68.1825 28.9021 67.7724 29.0242C67.3671 29.1414 66.9105 29.2 66.4027 29.2C65.6654 29.2 65.0404 29.0681 64.5277 28.8044C64.0199 28.5408 63.6342 28.2063 63.3705 27.801C63.1117 27.3909 62.9823 26.9709 62.9823 26.5413H64.9818C64.9916 26.8293 65.0648 27.0613 65.2016 27.2371C65.3432 27.4128 65.5214 27.5398 65.7362 27.6179C65.956 27.696 66.1928 27.7351 66.4467 27.7351C66.7201 27.7351 66.9472 27.6985 67.1278 27.6252C67.3085 27.5471 67.4452 27.4446 67.538 27.3176C67.6356 27.1858 67.6845 27.0344 67.6845 26.8635ZM75.2867 21.1287V22.6228H70.6725V21.1287H75.2867ZM71.815 19.1731H73.9244V26.6658C73.9244 26.8953 73.9537 27.071 74.0123 27.1931C74.0758 27.3152 74.1686 27.4006 74.2906 27.4495C74.4127 27.4934 74.5665 27.5154 74.7521 27.5154C74.8839 27.5154 75.0011 27.5105 75.1036 27.5007C75.211 27.4861 75.3014 27.4714 75.3746 27.4568L75.3819 29.0095C75.2013 29.0681 75.006 29.1145 74.796 29.1487C74.586 29.1829 74.3541 29.2 74.1002 29.2C73.6363 29.2 73.2311 29.1243 72.8844 28.9729C72.5426 28.8167 72.2789 28.5676 72.0934 28.2258C71.9078 27.884 71.815 27.4348 71.815 26.8782V19.1731ZM89.7148 23.4724V23.9778C89.7148 24.7883 89.605 25.5159 89.3853 26.1604C89.1655 26.8049 88.8555 27.3542 88.4551 27.8083C88.0547 28.2576 87.5762 28.6018 87.0195 28.8411C86.4678 29.0803 85.855 29.2 85.1812 29.2C84.5122 29.2 83.8994 29.0803 83.3428 28.8411C82.791 28.6018 82.3125 28.2576 81.9072 27.8083C81.502 27.3542 81.187 26.8049 80.9624 26.1604C80.7427 25.5159 80.6328 24.7883 80.6328 23.9778V23.4724C80.6328 22.657 80.7427 21.9294 80.9624 21.2898C81.1821 20.6453 81.4922 20.0959 81.8926 19.6418C82.2979 19.1877 82.7764 18.8411 83.3281 18.6018C83.8848 18.3625 84.4976 18.2429 85.1665 18.2429C85.8403 18.2429 86.4531 18.3625 87.0049 18.6018C87.5615 18.8411 88.04 19.1877 88.4404 19.6418C88.8457 20.0959 89.1582 20.6453 89.3779 21.2898C89.6025 21.9294 89.7148 22.657 89.7148 23.4724ZM87.4956 23.9778V23.4578C87.4956 22.8914 87.4443 22.3933 87.3418 21.9636C87.2393 21.5339 87.0879 21.1726 86.8877 20.8796C86.6875 20.5867 86.4434 20.3669 86.1553 20.2205C85.8672 20.0691 85.5376 19.9934 85.1665 19.9934C84.7954 19.9934 84.4658 20.0691 84.1777 20.2205C83.8945 20.3669 83.6528 20.5867 83.4526 20.8796C83.2573 21.1726 83.1084 21.5339 83.0059 21.9636C82.9033 22.3933 82.8521 22.8914 82.8521 23.4578V23.9778C82.8521 24.5393 82.9033 25.0374 83.0059 25.4719C83.1084 25.9016 83.2598 26.2654 83.46 26.5632C83.6602 26.8562 83.9043 27.0784 84.1924 27.2297C84.4805 27.3811 84.8101 27.4568 85.1812 27.4568C85.5522 27.4568 85.8818 27.3811 86.1699 27.2297C86.458 27.0784 86.6997 26.8562 86.895 26.5632C87.0903 26.2654 87.2393 25.9016 87.3418 25.4719C87.4443 25.0374 87.4956 24.5393 87.4956 23.9778ZM93.5305 22.8206V29.0535H91.4211V21.1287H93.3986L93.5305 22.8206ZM93.2229 24.8127H92.6516C92.6516 24.2268 92.7272 23.6995 92.8786 23.2307C93.03 22.7571 93.2424 22.3542 93.5158 22.0222C93.7893 21.6853 94.114 21.429 94.4899 21.2532C94.8708 21.0725 95.2956 20.9822 95.7644 20.9822C96.1354 20.9822 96.4748 21.0359 96.7824 21.1433C97.09 21.2507 97.3537 21.4216 97.5734 21.656C97.798 21.8904 97.9689 22.2004 98.0861 22.5862C98.2082 22.9719 98.2692 23.4431 98.2692 23.9998V29.0535H96.1452V23.9924C96.1452 23.6409 96.0964 23.3674 95.9987 23.1721C95.9011 22.9768 95.757 22.8401 95.5666 22.762C95.3811 22.679 95.1516 22.6375 94.8781 22.6375C94.5949 22.6375 94.3483 22.6936 94.1384 22.8059C93.9333 22.9182 93.7624 23.0745 93.6257 23.2747C93.4938 23.47 93.3937 23.6995 93.3254 23.9631C93.257 24.2268 93.2229 24.51 93.2229 24.8127ZM102.4 17.8035V29.0535H100.283V17.8035H102.4ZM106.67 21.1287V29.0535H104.553V21.1287H106.67ZM104.421 19.0632C104.421 18.7556 104.528 18.5017 104.743 18.3015C104.958 18.1013 105.246 18.0012 105.608 18.0012C105.964 18.0012 106.25 18.1013 106.464 18.3015C106.684 18.5017 106.794 18.7556 106.794 19.0632C106.794 19.3708 106.684 19.6248 106.464 19.825C106.25 20.0251 105.964 20.1252 105.608 20.1252C105.246 20.1252 104.958 20.0251 104.743 19.825C104.528 19.6248 104.421 19.3708 104.421 19.0632ZM110.778 22.8206V29.0535H108.669V21.1287H110.646L110.778 22.8206ZM110.471 24.8127H109.899C109.899 24.2268 109.975 23.6995 110.126 23.2307C110.278 22.7571 110.49 22.3542 110.763 22.0222C111.037 21.6853 111.362 21.429 111.738 21.2532C112.118 21.0725 112.543 20.9822 113.012 20.9822C113.383 20.9822 113.722 21.0359 114.03 21.1433C114.338 21.2507 114.601 21.4216 114.821 21.656C115.046 21.8904 115.217 22.2004 115.334 22.5862C115.456 22.9719 115.517 23.4431 115.517 23.9998V29.0535H113.393V23.9924C113.393 23.6409 113.344 23.3674 113.246 23.1721C113.149 22.9768 113.005 22.8401 112.814 22.762C112.629 22.679 112.399 22.6375 112.126 22.6375C111.843 22.6375 111.596 22.6936 111.386 22.8059C111.181 22.9182 111.01 23.0745 110.873 23.2747C110.742 23.47 110.641 23.6995 110.573 23.9631C110.505 24.2268 110.471 24.51 110.471 24.8127ZM121.068 29.2C120.453 29.2 119.901 29.1023 119.413 28.907C118.925 28.7068 118.51 28.4309 118.168 28.0793C117.831 27.7278 117.572 27.3201 117.392 26.8562C117.211 26.3875 117.121 25.8894 117.121 25.3621V25.0691C117.121 24.4685 117.206 23.9192 117.377 23.4211C117.548 22.9231 117.792 22.491 118.109 22.1248C118.432 21.7585 118.822 21.4778 119.281 21.2825C119.74 21.0823 120.258 20.9822 120.834 20.9822C121.396 20.9822 121.894 21.075 122.328 21.2605C122.763 21.446 123.126 21.7097 123.419 22.0515C123.717 22.3933 123.942 22.8035 124.093 23.282C124.245 23.7556 124.32 24.283 124.32 24.864V25.7429H118.021V24.3367H122.248V24.1755C122.248 23.8826 122.194 23.6213 122.086 23.3918C121.984 23.1575 121.828 22.9719 121.618 22.8352C121.408 22.6985 121.139 22.6301 120.812 22.6301C120.534 22.6301 120.294 22.6912 120.094 22.8132C119.894 22.9353 119.73 23.1062 119.604 23.3259C119.481 23.5457 119.389 23.8044 119.325 24.1023C119.267 24.3953 119.237 24.7175 119.237 25.0691V25.3621C119.237 25.6794 119.281 25.9724 119.369 26.241C119.462 26.5095 119.591 26.7415 119.757 26.9368C119.928 27.1321 120.133 27.2834 120.373 27.3909C120.617 27.4983 120.893 27.552 121.2 27.552C121.581 27.552 121.935 27.4788 122.262 27.3323C122.594 27.1809 122.88 26.9539 123.119 26.6511L124.145 27.7644C123.979 28.0037 123.751 28.2332 123.463 28.4529C123.18 28.6726 122.838 28.8533 122.438 28.9949C122.038 29.1316 121.581 29.2 121.068 29.2ZM48.5504 36.3894V47.0535H46.3605V36.3894H48.5504ZM52.8421 40.8206V47.0535H50.7327V39.1287H52.7103L52.8421 40.8206ZM52.5345 42.8127H51.9632C51.9632 42.2268 52.0389 41.6995 52.1902 41.2307C52.3416 40.7571 52.554 40.3542 52.8274 40.0222C53.1009 39.6853 53.4256 39.429 53.8016 39.2532C54.1824 39.0725 54.6072 38.9822 55.076 38.9822C55.4471 38.9822 55.7864 39.0359 56.094 39.1433C56.4017 39.2507 56.6653 39.4216 56.8851 39.656C57.1097 39.8904 57.2806 40.2004 57.3978 40.5862C57.5198 40.9719 57.5809 41.4431 57.5809 41.9998V47.0535H55.4568V41.9924C55.4568 41.6409 55.408 41.3674 55.3104 41.1721C55.2127 40.9768 55.0687 40.8401 54.8782 40.762C54.6927 40.679 54.4632 40.6375 54.1897 40.6375C53.9065 40.6375 53.66 40.6936 53.45 40.8059C53.2449 40.9182 53.074 41.0745 52.9373 41.2747C52.8055 41.47 52.7054 41.6995 52.637 41.9631C52.5687 42.2268 52.5345 42.51 52.5345 42.8127ZM62.1802 45.5154L63.938 39.1287H66.1426L63.4692 47.0535H62.1362L62.1802 45.5154ZM60.9717 39.1287L62.7368 45.5227L62.7734 47.0535H61.4331L58.7598 39.1287H60.9717ZM70.9323 47.2C70.3171 47.2 69.7653 47.1023 69.2771 46.907C68.7888 46.7068 68.3737 46.4309 68.0319 46.0793C67.695 45.7278 67.4362 45.3201 67.2556 44.8562C67.0749 44.3875 66.9846 43.8894 66.9846 43.3621V43.0691C66.9846 42.4685 67.07 41.9192 67.2409 41.4211C67.4118 40.9231 67.656 40.491 67.9733 40.1248C68.2956 39.7585 68.6862 39.4778 69.1452 39.2825C69.6042 39.0823 70.1218 38.9822 70.698 38.9822C71.2595 38.9822 71.7575 39.075 72.1921 39.2605C72.6267 39.446 72.9904 39.7097 73.2834 40.0515C73.5813 40.3933 73.8059 40.8035 73.9572 41.282C74.1086 41.7556 74.1843 42.283 74.1843 42.864V43.7429H67.8855V42.3367H72.1115V42.1755C72.1115 41.8826 72.0578 41.6213 71.9504 41.3918C71.8479 41.1575 71.6916 40.9719 71.4816 40.8352C71.2717 40.6985 71.0031 40.6301 70.676 40.6301C70.3977 40.6301 70.1584 40.6912 69.9582 40.8132C69.758 40.9353 69.5944 41.1062 69.4675 41.3259C69.3454 41.5457 69.2526 41.8044 69.1892 42.1023C69.1306 42.3953 69.1013 42.7175 69.1013 43.0691V43.3621C69.1013 43.6794 69.1452 43.9724 69.2331 44.241C69.3259 44.5095 69.4553 44.7415 69.6213 44.9368C69.7922 45.1321 69.9973 45.2834 70.2365 45.3909C70.4807 45.4983 70.7565 45.552 71.0642 45.552C71.445 45.552 71.799 45.4788 72.1262 45.3323C72.4582 45.1809 72.7438 44.9539 72.9831 44.6511L74.0085 45.7644C73.8425 46.0037 73.6154 46.2332 73.3273 46.4529C73.0441 46.6726 72.7023 46.8533 72.302 46.9949C71.9016 47.1316 71.445 47.2 70.9323 47.2ZM79.9701 44.8635C79.9701 44.7122 79.9262 44.5754 79.8383 44.4534C79.7504 44.3313 79.5868 44.219 79.3476 44.1165C79.1132 44.009 78.7738 43.9114 78.3295 43.8235C77.9291 43.7356 77.5556 43.6257 77.2089 43.4939C76.8671 43.3572 76.5692 43.1936 76.3153 43.0032C76.0663 42.8127 75.871 42.5881 75.7294 42.3293C75.5878 42.0657 75.517 41.7654 75.517 41.4285C75.517 41.0964 75.5878 40.7839 75.7294 40.491C75.8759 40.198 76.0834 39.9392 76.352 39.7146C76.6254 39.4851 76.9574 39.3069 77.348 39.1799C77.7436 39.0481 78.1879 38.9822 78.6811 38.9822C79.3695 38.9822 79.9604 39.092 80.4535 39.3118C80.9516 39.5315 81.3324 39.8342 81.5961 40.22C81.8647 40.6008 81.9989 41.0354 81.9989 41.5237H79.8896C79.8896 41.3186 79.8456 41.1355 79.7577 40.9744C79.6747 40.8083 79.5429 40.679 79.3622 40.5862C79.1864 40.4885 78.9569 40.4397 78.6737 40.4397C78.4394 40.4397 78.2367 40.4812 78.0658 40.5642C77.8949 40.6423 77.7631 40.7498 77.6703 40.8865C77.5824 41.0183 77.5385 41.1648 77.5385 41.3259C77.5385 41.448 77.5629 41.5579 77.6117 41.6555C77.6654 41.7483 77.7509 41.8337 77.8681 41.9119C77.9853 41.99 78.1366 42.0632 78.3222 42.1316C78.5126 42.1951 78.747 42.2537 79.0253 42.3074C79.5966 42.4246 80.1068 42.5784 80.5561 42.7688C81.0053 42.9543 81.3617 43.2083 81.6254 43.5305C81.8891 43.8479 82.0209 44.2654 82.0209 44.783C82.0209 45.1345 81.9428 45.4568 81.7865 45.7498C81.6303 46.0427 81.4057 46.2991 81.1127 46.5188C80.8197 46.7336 80.4682 46.9021 80.058 47.0242C79.6527 47.1414 79.1962 47.2 78.6884 47.2C77.9511 47.2 77.3261 47.0681 76.8134 46.8044C76.3056 46.5408 75.9198 46.2063 75.6562 45.801C75.3974 45.3909 75.268 44.9709 75.268 44.5413H77.2675C77.2772 44.8293 77.3505 45.0613 77.4872 45.2371C77.6288 45.4128 77.807 45.5398 78.0219 45.6179C78.2416 45.696 78.4784 45.7351 78.7323 45.7351C79.0058 45.7351 79.2328 45.6985 79.4135 45.6252C79.5941 45.5471 79.7309 45.4446 79.8236 45.3176C79.9213 45.1858 79.9701 45.0344 79.9701 44.8635ZM87.5724 39.1287V40.6228H82.9581V39.1287H87.5724ZM84.1007 37.1731H86.2101V44.6658C86.2101 44.8953 86.2394 45.071 86.298 45.1931C86.3614 45.3152 86.4542 45.4006 86.5763 45.4495C86.6983 45.4934 86.8521 45.5154 87.0377 45.5154C87.1695 45.5154 87.2867 45.5105 87.3893 45.5007C87.4967 45.4861 87.587 45.4714 87.6603 45.4568L87.6676 47.0095C87.4869 47.0681 87.2916 47.1145 87.0816 47.1487C86.8717 47.1829 86.6397 47.2 86.3858 47.2C85.922 47.2 85.5167 47.1243 85.17 46.9729C84.8282 46.8167 84.5646 46.5676 84.379 46.2258C84.1935 45.884 84.1007 45.4348 84.1007 44.8782V37.1731ZM91.1829 40.7693V47.0535H89.0662V39.1287H91.0511L91.1829 40.7693ZM90.8899 42.8127H90.304C90.304 42.261 90.3699 41.7532 90.5018 41.2893C90.6385 40.8206 90.8362 40.4153 91.095 40.0735C91.3587 39.7268 91.6834 39.4583 92.0691 39.2678C92.4549 39.0774 92.9017 38.9822 93.4095 38.9822C93.761 38.9822 94.0833 39.0359 94.3763 39.1433C94.6692 39.2458 94.9207 39.4094 95.1307 39.634C95.3455 39.8538 95.5115 40.1418 95.6287 40.4983C95.7459 40.8499 95.8045 41.2722 95.8045 41.7654V47.0535H93.6951V41.9998C93.6951 41.6384 93.6463 41.3601 93.5486 41.1648C93.451 40.9695 93.3118 40.8328 93.1312 40.7546C92.9554 40.6765 92.743 40.6375 92.4939 40.6375C92.2205 40.6375 91.9813 40.6936 91.7762 40.8059C91.576 40.9182 91.41 41.0745 91.2781 41.2747C91.1463 41.47 91.0486 41.6995 90.9852 41.9631C90.9217 42.2268 90.8899 42.51 90.8899 42.8127ZM95.6067 42.571L94.8523 42.6663C94.8523 42.1487 94.9158 41.6677 95.0428 41.2234C95.1746 40.7791 95.3675 40.3884 95.6214 40.0515C95.8802 39.7146 96.2 39.4534 96.5809 39.2678C96.9617 39.0774 97.4012 38.9822 97.8992 38.9822C98.2801 38.9822 98.6268 39.0383 98.9393 39.1506C99.2518 39.2581 99.5179 39.4314 99.7376 39.6707C99.9622 39.905 100.133 40.2126 100.25 40.5935C100.372 40.9744 100.433 41.4407 100.433 41.9924V47.0535H98.3167V41.9924C98.3167 41.6262 98.2679 41.3479 98.1702 41.1575C98.0774 40.9622 97.9407 40.8279 97.7601 40.7546C97.5843 40.6765 97.3743 40.6375 97.1302 40.6375C96.8763 40.6375 96.6541 40.6887 96.4637 40.7913C96.2732 40.8889 96.1146 41.0256 95.9876 41.2014C95.8606 41.3772 95.7654 41.5823 95.702 41.8167C95.6385 42.0461 95.6067 42.2976 95.6067 42.571ZM106.014 47.2C105.399 47.2 104.847 47.1023 104.359 46.907C103.871 46.7068 103.456 46.4309 103.114 46.0793C102.777 45.7278 102.518 45.3201 102.337 44.8562C102.157 44.3875 102.066 43.8894 102.066 43.3621V43.0691C102.066 42.4685 102.152 41.9192 102.323 41.4211C102.494 40.9231 102.738 40.491 103.055 40.1248C103.377 39.7585 103.768 39.4778 104.227 39.2825C104.686 39.0823 105.204 38.9822 105.78 38.9822C106.341 38.9822 106.839 39.075 107.274 39.2605C107.708 39.446 108.072 39.7097 108.365 40.0515C108.663 40.3933 108.888 40.8035 109.039 41.282C109.19 41.7556 109.266 42.283 109.266 42.864V43.7429H102.967V42.3367H107.193V42.1755C107.193 41.8826 107.14 41.6213 107.032 41.3918C106.93 41.1575 106.773 40.9719 106.563 40.8352C106.354 40.6985 106.085 40.6301 105.758 40.6301C105.479 40.6301 105.24 40.6912 105.04 40.8132C104.84 40.9353 104.676 41.1062 104.549 41.3259C104.427 41.5457 104.334 41.8044 104.271 42.1023C104.212 42.3953 104.183 42.7175 104.183 43.0691V43.3621C104.183 43.6794 104.227 43.9724 104.315 44.241C104.408 44.5095 104.537 44.7415 104.703 44.9368C104.874 45.1321 105.079 45.2834 105.318 45.3909C105.562 45.4983 105.838 45.552 106.146 45.552C106.527 45.552 106.881 45.4788 107.208 45.3323C107.54 45.1809 107.826 44.9539 108.065 44.6511L109.09 45.7644C108.924 46.0037 108.697 46.2332 108.409 46.4529C108.126 46.6726 107.784 46.8533 107.384 46.9949C106.983 47.1316 106.527 47.2 106.014 47.2ZM112.833 40.8206V47.0535H110.723V39.1287H112.701L112.833 40.8206ZM112.525 42.8127H111.954C111.954 42.2268 112.029 41.6995 112.181 41.2307C112.332 40.7571 112.545 40.3542 112.818 40.0222C113.092 39.6853 113.416 39.429 113.792 39.2532C114.173 39.0725 114.598 38.9822 115.067 38.9822C115.438 38.9822 115.777 39.0359 116.085 39.1433C116.392 39.2507 116.656 39.4216 116.876 39.656C117.1 39.8904 117.271 40.2004 117.388 40.5862C117.51 40.9719 117.571 41.4431 117.571 41.9998V47.0535H115.447V41.9924C115.447 41.6409 115.399 41.3674 115.301 41.1721C115.203 40.9768 115.059 40.8401 114.869 40.762C114.683 40.679 114.454 40.6375 114.18 40.6375C113.897 40.6375 113.651 40.6936 113.441 40.8059C113.236 40.9182 113.065 41.0745 112.928 41.2747C112.796 41.47 112.696 41.6995 112.628 41.9631C112.559 42.2268 112.525 42.51 112.525 42.8127ZM123.357 39.1287V40.6228H118.743V39.1287H123.357ZM119.886 37.1731H121.995V44.6658C121.995 44.8953 122.024 45.071 122.083 45.1931C122.146 45.3152 122.239 45.4006 122.361 45.4495C122.483 45.4934 122.637 45.5154 122.823 45.5154C122.954 45.5154 123.072 45.5105 123.174 45.5007C123.282 45.4861 123.372 45.4714 123.445 45.4568L123.453 47.0095C123.272 47.0681 123.077 47.1145 122.867 47.1487C122.657 47.1829 122.425 47.2 122.171 47.2C121.707 47.2 121.302 47.1243 120.955 46.9729C120.613 46.8167 120.35 46.5676 120.164 46.2258C119.978 45.884 119.886 45.4348 119.886 44.8782V37.1731ZM59.0164 61.2522H56.2991V59.5383H59.0164C59.4363 59.5383 59.7781 59.47 60.0418 59.3333C60.3055 59.1917 60.4983 58.9963 60.6204 58.7473C60.7425 58.4983 60.8035 58.2175 60.8035 57.905C60.8035 57.5876 60.7425 57.2922 60.6204 57.0188C60.4983 56.7454 60.3055 56.5256 60.0418 56.3596C59.7781 56.1936 59.4363 56.1106 59.0164 56.1106H57.0608V65.0535H54.8636V54.3894H59.0164C59.8514 54.3894 60.5667 54.5408 61.1624 54.8435C61.763 55.1414 62.222 55.554 62.5394 56.0813C62.8567 56.6086 63.0154 57.2117 63.0154 57.8904C63.0154 58.5789 62.8567 59.1746 62.5394 59.6775C62.222 60.1804 61.763 60.5686 61.1624 60.842C60.5667 61.1155 59.8514 61.2522 59.0164 61.2522ZM66.9263 53.8035V65.0535H64.8096V53.8035H66.9263ZM73.2468 63.2664V59.7361C73.2468 59.4822 73.2053 59.2649 73.1223 59.0842C73.0393 58.8987 72.9099 58.7546 72.7341 58.6521C72.5632 58.5496 72.341 58.4983 72.0676 58.4983C71.8332 58.4983 71.6306 58.5398 71.4597 58.6228C71.2888 58.7009 71.1569 58.8157 71.0642 58.967C70.9714 59.1135 70.925 59.2869 70.925 59.4871H68.8156C68.8156 59.1501 68.8938 58.8303 69.05 58.5276C69.2063 58.2249 69.4333 57.9587 69.7312 57.7292C70.029 57.4949 70.383 57.3118 70.7932 57.1799C71.2082 57.0481 71.6721 56.9822 72.1848 56.9822C72.8 56.9822 73.3469 57.0847 73.8254 57.2898C74.3039 57.4949 74.6799 57.8025 74.9533 58.2126C75.2316 58.6228 75.3708 59.1355 75.3708 59.7507V63.1418C75.3708 63.5764 75.3977 63.9329 75.4514 64.2112C75.5051 64.4846 75.5832 64.7239 75.6857 64.929V65.0535H73.5544C73.4519 64.8386 73.3737 64.5701 73.32 64.2478C73.2712 63.9207 73.2468 63.5935 73.2468 63.2664ZM73.5251 60.2268L73.5397 61.4207H72.3605C72.0822 61.4207 71.8405 61.4524 71.6355 61.5159C71.4304 61.5793 71.2619 61.6697 71.1301 61.7869C70.9982 61.8992 70.9006 62.031 70.8371 62.1824C70.7785 62.3337 70.7492 62.4998 70.7492 62.6804C70.7492 62.8611 70.7907 63.0247 70.8737 63.1711C70.9567 63.3127 71.0764 63.425 71.2326 63.5081C71.3889 63.5862 71.572 63.6252 71.7819 63.6252C72.0993 63.6252 72.3752 63.5618 72.6096 63.4348C72.8439 63.3079 73.0246 63.1516 73.1516 62.9661C73.2834 62.7805 73.3518 62.6047 73.3566 62.4387L73.9133 63.3323C73.8352 63.5325 73.7277 63.74 73.591 63.9548C73.4592 64.1697 73.2907 64.3723 73.0856 64.5627C72.8806 64.7483 72.634 64.9021 72.3459 65.0242C72.0578 65.1414 71.716 65.2 71.3205 65.2C70.8176 65.2 70.361 65.0999 69.9509 64.8997C69.5456 64.6946 69.2233 64.4138 68.9841 64.0574C68.7497 63.696 68.6325 63.2859 68.6325 62.8269C68.6325 62.4119 68.7106 62.0432 68.8669 61.7209C69.0231 61.3987 69.2526 61.1277 69.5554 60.908C69.863 60.6833 70.2463 60.5149 70.7053 60.4026C71.1643 60.2854 71.6965 60.2268 72.302 60.2268H73.5251ZM81.1786 57.1287V58.6228H76.5644V57.1287H81.1786ZM77.7069 55.1731H79.8163V62.6658C79.8163 62.8953 79.8456 63.071 79.9042 63.1931C79.9677 63.3152 80.0604 63.4006 80.1825 63.4495C80.3046 63.4934 80.4584 63.5154 80.6439 63.5154C80.7758 63.5154 80.893 63.5105 80.9955 63.5007C81.1029 63.4861 81.1933 63.4714 81.2665 63.4568L81.2738 65.0095C81.0932 65.0681 80.8979 65.1145 80.6879 65.1487C80.4779 65.1829 80.246 65.2 79.9921 65.2C79.5282 65.2 79.1229 65.1243 78.7763 64.9729C78.4345 64.8167 78.1708 64.5676 77.9853 64.2258C77.7997 63.884 77.7069 63.4348 77.7069 62.8782V55.1731ZM85.3678 65.0535H83.2438V56.4255C83.2438 55.825 83.3609 55.3196 83.5953 54.9094C83.8346 54.4944 84.169 54.1819 84.5987 53.9719C85.0333 53.7571 85.5484 53.6497 86.1441 53.6497C86.3395 53.6497 86.5274 53.6643 86.7081 53.6936C86.8888 53.718 87.0646 53.7498 87.2355 53.7888L87.2135 55.3782C87.1207 55.3538 87.023 55.3367 86.9205 55.3269C86.818 55.3171 86.6983 55.3123 86.5616 55.3123C86.3077 55.3123 86.0904 55.3562 85.9098 55.4441C85.734 55.5271 85.5997 55.6516 85.5069 55.8176C85.4142 55.9836 85.3678 56.1863 85.3678 56.4255V65.0535ZM86.9498 57.1287V58.6228H82.0646V57.1287H86.9498ZM88.0188 61.1716V61.0178C88.0188 60.4368 88.1019 59.9021 88.2679 59.4138C88.4339 58.9207 88.6756 58.4934 88.993 58.1321C89.3104 57.7708 89.701 57.49 90.1648 57.2898C90.6287 57.0847 91.1609 56.9822 91.7615 56.9822C92.3621 56.9822 92.8968 57.0847 93.3655 57.2898C93.8343 57.49 94.2273 57.7708 94.5447 58.1321C94.867 58.4934 95.1111 58.9207 95.2771 59.4138C95.4432 59.9021 95.5262 60.4368 95.5262 61.0178V61.1716C95.5262 61.7478 95.4432 62.2825 95.2771 62.7756C95.1111 63.2639 94.867 63.6912 94.5447 64.0574C94.2273 64.4187 93.8367 64.6995 93.3729 64.8997C92.909 65.0999 92.3768 65.2 91.7762 65.2C91.1756 65.2 90.6409 65.0999 90.1722 64.8997C89.7083 64.6995 89.3152 64.4187 88.993 64.0574C88.6756 63.6912 88.4339 63.2639 88.2679 62.7756C88.1019 62.2825 88.0188 61.7478 88.0188 61.1716ZM90.1282 61.0178V61.1716C90.1282 61.5037 90.1575 61.8137 90.2161 62.1018C90.2747 62.3899 90.3675 62.6438 90.4944 62.8635C90.6263 63.0784 90.7972 63.2468 91.0071 63.3689C91.2171 63.491 91.4734 63.552 91.7762 63.552C92.0691 63.552 92.3206 63.491 92.5306 63.3689C92.7405 63.2468 92.909 63.0784 93.0359 62.8635C93.1629 62.6438 93.2557 62.3899 93.3143 62.1018C93.3777 61.8137 93.4095 61.5037 93.4095 61.1716V61.0178C93.4095 60.6956 93.3777 60.3928 93.3143 60.1096C93.2557 59.8215 93.1604 59.5676 93.0286 59.3479C92.9017 59.1233 92.7332 58.9475 92.5232 58.8206C92.3133 58.6936 92.0594 58.6301 91.7615 58.6301C91.4637 58.6301 91.2098 58.6936 90.9998 58.8206C90.7947 58.9475 90.6263 59.1233 90.4944 59.3479C90.3675 59.5676 90.2747 59.8215 90.2161 60.1096C90.1575 60.3928 90.1282 60.6956 90.1282 61.0178ZM99.2319 58.8572V65.0535H97.1226V57.1287H99.1074L99.2319 58.8572ZM101.62 57.0774L101.583 59.033C101.48 59.0183 101.356 59.0061 101.209 58.9963C101.068 58.9817 100.938 58.9744 100.821 58.9744C100.523 58.9744 100.265 59.0134 100.045 59.0916C99.8301 59.1648 99.6494 59.2747 99.5029 59.4211C99.3613 59.5676 99.2539 59.7458 99.1807 59.9558C99.1123 60.1658 99.0732 60.405 99.0635 60.6736L98.6387 60.5417C98.6387 60.0291 98.6899 59.5579 98.7925 59.1282C98.895 58.6936 99.0439 58.3152 99.2393 57.9929C99.4395 57.6707 99.6836 57.4216 99.9717 57.2458C100.26 57.0701 100.589 56.9822 100.96 56.9822C101.078 56.9822 101.197 56.9919 101.319 57.0115C101.441 57.0261 101.542 57.0481 101.62 57.0774ZM105.025 58.7693V65.0535H102.908V57.1287H104.893L105.025 58.7693ZM104.732 60.8127H104.146C104.146 60.261 104.212 59.7532 104.344 59.2893C104.481 58.8206 104.678 58.4153 104.937 58.0735C105.201 57.7268 105.526 57.4583 105.911 57.2678C106.297 57.0774 106.744 56.9822 107.252 56.9822C107.603 56.9822 107.925 57.0359 108.218 57.1433C108.511 57.2458 108.763 57.4094 108.973 57.634C109.188 57.8538 109.354 58.1418 109.471 58.4983C109.588 58.8499 109.647 59.2722 109.647 59.7654V65.0535H107.537V59.9998C107.537 59.6384 107.488 59.3601 107.391 59.1648C107.293 58.9695 107.154 58.8328 106.973 58.7546C106.798 58.6765 106.585 58.6375 106.336 58.6375C106.063 58.6375 105.823 58.6936 105.618 58.8059C105.418 58.9182 105.252 59.0745 105.12 59.2747C104.988 59.47 104.891 59.6995 104.827 59.9631C104.764 60.2268 104.732 60.51 104.732 60.8127ZM109.449 60.571L108.695 60.6663C108.695 60.1487 108.758 59.6677 108.885 59.2234C109.017 58.7791 109.21 58.3884 109.464 58.0515C109.722 57.7146 110.042 57.4534 110.423 57.2678C110.804 57.0774 111.243 56.9822 111.741 56.9822C112.122 56.9822 112.469 57.0383 112.781 57.1506C113.094 57.2581 113.36 57.4314 113.58 57.6707C113.804 57.905 113.975 58.2126 114.092 58.5935C114.215 58.9744 114.276 59.4407 114.276 59.9924V65.0535H112.159V59.9924C112.159 59.6262 112.11 59.3479 112.012 59.1575C111.92 58.9622 111.783 58.8279 111.602 58.7546C111.426 58.6765 111.217 58.6375 110.972 58.6375C110.718 58.6375 110.496 58.6887 110.306 58.7913C110.115 58.8889 109.957 59.0256 109.83 59.2014C109.703 59.3772 109.608 59.5823 109.544 59.8167C109.481 60.0461 109.449 60.2976 109.449 60.571Z" fill="#E5E5E5"/>
<path d="M66.6314 91.0337V94H53.5005V91.4688L59.71 84.811C60.334 84.1167 60.8262 83.5059 61.1866 82.9785C61.5469 82.4424 61.8062 81.9634 61.9644 81.5415C62.1314 81.1108 62.2149 80.7021 62.2149 80.3154C62.2149 79.7354 62.1182 79.2388 61.9249 78.8257C61.7315 78.4038 61.4459 78.0786 61.0679 77.8501C60.6988 77.6216 60.2418 77.5073 59.6968 77.5073C59.1168 77.5073 58.6158 77.6479 58.1939 77.9292C57.7808 78.2104 57.4644 78.6016 57.2447 79.1025C57.0338 79.6035 56.9283 80.1704 56.9283 80.8032H53.1182C53.1182 79.6606 53.3907 78.6147 53.9356 77.6655C54.4805 76.7075 55.2496 75.9473 56.2427 75.3848C57.2359 74.8135 58.4136 74.5278 59.7759 74.5278C61.1207 74.5278 62.2545 74.7476 63.1773 75.187C64.1089 75.6177 64.8121 76.2417 65.2867 77.0591C65.7701 77.8677 66.0118 78.8345 66.0118 79.9595C66.0118 80.5923 65.9107 81.2119 65.7086 81.8184C65.5064 82.416 65.2164 83.0137 64.8384 83.6113C64.4693 84.2002 64.0211 84.7979 63.4937 85.4043C62.9664 86.0107 62.3819 86.6392 61.7403 87.2896L58.4048 91.0337H66.6314ZM82.4644 82.7148V86.0371C82.4644 87.4785 82.3106 88.7222 82.003 89.7681C81.6953 90.8052 81.2515 91.6577 80.6714 92.3257C80.1001 92.9849 79.419 93.4727 78.628 93.7891C77.8369 94.1055 76.958 94.2637 75.9912 94.2637C75.2178 94.2637 74.4971 94.167 73.8291 93.9736C73.1612 93.7715 72.5591 93.4595 72.023 93.0376C71.4956 92.6157 71.0386 92.084 70.6519 91.4424C70.2739 90.792 69.9839 90.0186 69.7818 89.1221C69.5796 88.2256 69.4785 87.1973 69.4785 86.0371V82.7148C69.4785 81.2734 69.6323 80.0386 69.94 79.0103C70.2564 77.9731 70.7002 77.125 71.2715 76.4658C71.8516 75.8066 72.5371 75.3232 73.3281 75.0156C74.1192 74.6992 74.9981 74.541 75.9649 74.541C76.7383 74.541 77.4546 74.6421 78.1138 74.8442C78.7818 75.0376 79.3838 75.3408 79.9199 75.7539C80.4561 76.167 80.9131 76.6987 81.291 77.3491C81.669 77.9907 81.959 78.7598 82.1612 79.6562C82.3633 80.5439 82.4644 81.5635 82.4644 82.7148ZM78.6543 86.5381V82.2007C78.6543 81.5063 78.6148 80.8999 78.5357 80.3813C78.4654 79.8628 78.3555 79.4233 78.2061 79.063C78.0567 78.6938 77.8721 78.395 77.6524 78.1665C77.4326 77.938 77.1821 77.771 76.9009 77.6655C76.6196 77.5601 76.3076 77.5073 75.9649 77.5073C75.5342 77.5073 75.1519 77.5908 74.8179 77.7578C74.4927 77.9248 74.2158 78.1929 73.9873 78.562C73.7588 78.9224 73.583 79.4058 73.46 80.0122C73.3457 80.6099 73.2886 81.3394 73.2886 82.2007V86.5381C73.2886 87.2324 73.3238 87.8433 73.3941 88.3706C73.4732 88.8979 73.5874 89.3506 73.7368 89.7285C73.895 90.0977 74.0796 90.4009 74.2905 90.6382C74.5103 90.8667 74.7608 91.0337 75.042 91.1392C75.3321 91.2446 75.6485 91.2974 75.9912 91.2974C76.4131 91.2974 76.7866 91.2139 77.1118 91.0469C77.4458 90.8711 77.7271 90.5986 77.9556 90.2295C78.1929 89.8516 78.3687 89.3594 78.4829 88.7529C78.5972 88.1465 78.6543 87.4082 78.6543 86.5381ZM98.7192 91.0337V94H85.5884V91.4688L91.7978 84.811C92.4219 84.1167 92.914 83.5059 93.2744 82.9785C93.6348 82.4424 93.894 81.9634 94.0522 81.5415C94.2192 81.1108 94.3027 80.7021 94.3027 80.3154C94.3027 79.7354 94.206 79.2388 94.0127 78.8257C93.8193 78.4038 93.5337 78.0786 93.1557 77.8501C92.7866 77.6216 92.3296 77.5073 91.7847 77.5073C91.2046 77.5073 90.7036 77.6479 90.2817 77.9292C89.8686 78.2104 89.5522 78.6016 89.3325 79.1025C89.1216 79.6035 89.0161 80.1704 89.0161 80.8032H85.206C85.206 79.6606 85.4785 78.6147 86.0234 77.6655C86.5683 76.7075 87.3374 75.9473 88.3306 75.3848C89.3237 74.8135 90.5014 74.5278 91.8638 74.5278C93.2085 74.5278 94.3423 74.7476 95.2651 75.187C96.1968 75.6177 96.8999 76.2417 97.3745 77.0591C97.8579 77.8677 98.0996 78.8345 98.0996 79.9595C98.0996 80.5923 97.9985 81.2119 97.7964 81.8184C97.5942 82.416 97.3042 83.0137 96.9263 83.6113C96.5571 84.2002 96.1089 84.7979 95.5815 85.4043C95.0542 86.0107 94.4697 86.6392 93.8281 87.2896L90.4927 91.0337H98.7192ZM110.887 74.7651V94H107.09V79.1421L102.529 80.5923V77.5996L110.478 74.7651H110.887Z" fill="#E5E5E5"/>
</svg>
