<svg width="165" height="101" viewBox="0 0 165 101" fill="none" xmlns="http://www.w3.org/2000/svg">
<path fill-rule="evenodd" clip-rule="evenodd" d="M132.075 76.6568C132.851 77.6684 133.868 78.4695 135.033 78.9868C136.198 79.5042 137.474 79.7213 138.745 79.6185C141.419 79.4956 144.035 78.7995 146.416 77.5773C142.32 76.9503 143.308 76.1098 140.439 75.1493C138.602 74.7119 136.679 74.7997 134.89 75.4028C136.968 74.6978 138.967 73.7767 140.853 72.6546C141.763 73.3458 142.82 73.8195 143.941 74.0391C145.063 74.2588 146.22 74.2187 147.323 73.9219C149.752 73.2647 152.021 72.1209 153.994 70.56C150.165 70.8269 150.939 69.893 148.164 69.6395C146.789 69.5844 145.42 69.8445 144.162 70.4C145.536 69.3278 146.821 68.1454 148.004 66.8646C149.015 67.3162 150.119 67.5215 151.226 67.4635C152.332 67.4055 153.409 67.086 154.367 66.5311C156.506 65.3421 158.384 63.7362 159.89 61.8084C156.355 62.9557 156.875 61.8751 154.221 62.2754C152.742 62.616 151.368 63.312 150.218 64.3032C151.381 62.776 152.425 61.1614 153.34 59.4738C154.448 59.6703 155.587 59.6089 156.667 59.2942C157.748 58.9796 158.741 58.4201 159.57 57.6594C161.449 55.9725 162.985 53.9386 164.093 51.6694C160.784 53.6171 161.104 52.4298 158.53 53.4304C156.932 54.188 155.555 55.3405 154.527 56.7789C155.345 54.9179 156.014 52.9953 156.529 51.029C157.597 50.9327 158.631 50.5989 159.554 50.0518C160.478 49.5048 161.267 48.7584 161.865 47.8672C163.291 45.8576 164.319 43.5933 164.893 41.1968C162.225 43.8649 162.225 42.6109 160.024 44.1584C158.765 45.1915 157.777 46.5145 157.142 48.014C157.486 46.0699 157.692 44.1038 157.756 42.1306C158.733 41.8477 159.634 41.3498 160.393 40.6735C161.153 39.9971 161.751 39.1594 162.145 38.2218C163.095 36.118 163.647 33.8563 163.773 31.5513C161.812 34.4196 161.665 33.3523 159.957 35.1667C158.818 36.6235 158.066 38.3443 157.769 40.1695C157.739 37.9821 157.534 35.8006 157.156 33.6458C158.071 33.2141 158.873 32.5763 159.501 31.7824C160.128 30.9885 160.563 30.0601 160.771 29.0699C161.253 26.9527 161.29 24.7583 160.878 22.6263C159.544 25.6947 159.13 24.7341 157.809 26.7753C157.023 28.273 156.659 29.9561 156.755 31.6447C156.622 31.0444 156.475 30.4574 156.302 29.857C155.982 28.643 155.595 27.469 155.168 26.3217C155.918 25.7364 156.528 24.9904 156.953 24.1386C157.378 23.2868 157.607 22.3506 157.622 21.3989C157.663 19.3819 157.3 17.3771 156.555 15.5022C155.915 18.584 155.368 17.7835 154.554 19.9181C154.153 21.2979 154.102 22.7562 154.407 24.1605C153.758 22.6776 153.014 21.2383 152.179 19.8514C152.681 19.1978 153.044 18.4495 153.248 17.6516C153.452 16.8537 153.493 16.0227 153.367 15.2087C153.127 13.3758 152.562 11.6004 151.699 9.96574C151.592 12.8341 151.045 12.1804 150.685 14.2082C150.543 15.5952 150.721 16.9964 151.206 18.3038C150.3 16.9076 149.307 15.5708 148.231 14.3016C148.633 13.6657 148.9 12.9537 149.015 12.2099C149.13 11.4662 149.09 10.7067 148.898 9.97908C148.511 8.38014 147.818 6.87141 146.856 5.53657C147.043 8.09802 146.47 7.59107 146.336 9.44545C146.351 10.8192 146.708 12.1674 147.377 13.3677C146.344 12.2849 145.243 11.2689 144.081 10.326C144.407 9.7142 144.592 9.0379 144.625 8.3458C144.657 7.6537 144.535 6.96306 144.268 6.32368C143.735 4.99921 142.92 3.80655 141.88 2.82837C142.334 5.0563 141.747 4.72278 141.88 6.39039C142.012 7.57083 142.474 8.69007 143.214 9.61888C142.103 8.749 140.94 7.94709 139.732 7.21752C139.828 6.63843 139.806 6.04607 139.669 5.47549C139.531 4.90491 139.281 4.3677 138.932 3.89564C138.191 2.84646 137.264 1.9421 136.197 1.22747C137.078 3.04183 136.531 2.82837 136.984 4.21582C137.372 5.15218 137.976 5.98396 138.745 6.64386C137.643 6.02853 136.508 5.47621 135.343 4.9896C135.36 4.4379 135.265 3.88847 135.063 3.37473C134.862 2.86098 134.557 2.39368 134.169 2.00124C133.316 1.14245 132.288 0.478036 131.154 0.0534668C132.221 1.65438 131.648 1.58767 132.248 2.8684C132.603 3.53808 133.122 4.10714 133.756 4.52266C133.465 4.463 133.166 4.463 132.875 4.52266C132.058 4.78758 131.224 5.00145 130.38 5.16303C130.999 5.75744 131.778 6.1565 132.622 6.31034C133.094 6.40821 133.582 6.39144 134.047 6.26145C134.511 6.13146 134.937 5.89203 135.29 5.56325C136.317 6.0035 137.318 6.48377 138.278 7.00407C137.851 6.84651 137.389 6.81411 136.944 6.91068C135.61 7.23086 135.97 7.48434 134.369 7.80452C135.095 8.36884 135.963 8.71993 136.877 8.81843C137.389 8.87805 137.908 8.81475 138.391 8.63378C138.873 8.45281 139.306 8.15938 139.652 7.77784C140.848 8.50166 141.998 9.29921 143.094 10.1659C142.349 9.62845 141.452 9.34332 140.533 9.35206C138.905 9.43211 139.199 9.73895 137.238 9.76563C138.135 10.4826 139.185 10.9846 140.306 11.2332C140.891 11.3841 141.5 11.417 142.098 11.33C142.696 11.2429 143.27 11.0377 143.788 10.7262C144.835 11.5948 145.824 12.5306 146.75 13.5278C146.088 12.9464 145.254 12.5994 144.375 12.5406C142.467 12.4472 142.827 12.8874 140.479 12.6873C141.357 13.7254 142.487 14.5202 143.761 14.9953C144.404 15.2561 145.096 15.371 145.788 15.3318C146.48 15.2926 147.155 15.1002 147.764 14.7685C149.039 16.3245 150.181 17.9846 151.179 19.7313C150.528 18.5985 149.483 17.7441 148.244 17.3299C146.309 16.8096 146.603 17.3299 144.242 16.6229C144.976 17.8522 145.991 18.89 147.203 19.6512C147.831 20.067 148.541 20.3408 149.286 20.4537C150.03 20.5666 150.79 20.5159 151.512 20.305C152.372 21.866 153.134 23.4789 153.794 25.1344C153.234 24.1743 152.384 23.4173 151.366 22.9731C149.391 22.186 149.658 22.7597 147.257 21.7057C147.927 23.0712 148.898 24.2664 150.098 25.2011C150.678 25.688 151.351 26.0515 152.075 26.2695C152.8 26.4874 153.562 26.5551 154.314 26.4684C154.701 27.509 155.061 28.5896 155.408 29.7103L155.728 30.8576C155.237 30.1116 154.561 29.505 153.767 29.0966C151.712 28.056 151.953 28.7097 149.458 27.3489C150.075 28.8722 151.023 30.2393 152.233 31.3512C153.303 32.4129 154.729 33.0402 156.235 33.1122C156.576 34.9179 156.786 36.7459 156.862 38.582C156.446 37.6777 155.83 36.8795 155.061 36.2473C153.047 34.6464 153.207 35.3935 150.779 33.3257C151.219 35.1088 152.018 36.7837 153.127 38.2484C154.051 39.5562 155.362 40.5408 156.875 41.0634C156.825 43.2136 156.593 45.3558 156.182 47.467C156.007 46.233 155.515 45.0654 154.754 44.0784C152.9 41.9305 152.913 42.7443 150.752 40.0761C150.821 42.1017 151.322 44.0891 152.219 45.9061C152.959 47.587 154.255 48.9624 155.888 49.8016C155.37 51.9068 154.673 53.9642 153.807 55.9518C153.793 54.6718 153.448 53.4173 152.806 52.3097C151.272 49.7483 151.139 50.6021 149.338 47.3736C149.052 49.4644 149.211 51.5921 149.805 53.6171C150.27 55.4234 151.304 57.0323 152.753 58.2064C151.641 60.285 150.337 62.2548 148.858 64.0897C149.216 62.7021 149.18 61.2417 148.751 59.874C147.817 57.0724 147.51 57.8595 146.47 54.3642C145.746 56.2921 145.445 58.3533 145.589 60.4076C145.66 62.32 146.364 64.1546 147.59 65.6239C146.014 67.4202 144.247 69.0395 142.32 70.4533C143.007 68.999 143.275 67.3821 143.094 65.784C142.667 62.7289 142.227 63.476 141.76 59.6739C140.723 61.5379 140.078 63.5946 139.866 65.7173C139.613 67.6737 139.962 69.6607 140.866 71.4139C139.023 72.5988 137.049 73.5659 134.983 74.2955L134.276 74.6157C135.4 73.4304 136.1 71.9054 136.264 70.2799C136.531 67.1181 135.837 67.7051 136.264 63.8229C134.645 65.2809 133.409 67.1131 132.662 69.1592C131.842 71.1614 131.799 73.3974 132.542 75.4295C128.873 77.0971 122.162 80.2589 120.695 81.5796C119.801 82.3667 120.495 83.5541 121.028 83.1272C122.109 82.2733 125.031 80.459 126.191 79.6985C128.088 78.564 130.053 77.5481 132.075 76.6568Z" fill="#E5E5E5"/>
<path fill-rule="evenodd" clip-rule="evenodd" d="M38.689 79.6584C39.823 80.4322 42.771 82.2332 43.851 83.087C44.398 83.5139 45.079 82.3266 44.198 81.5261C42.731 80.1921 36.02 77.057 32.338 75.3893C33.084 73.3543 33.046 71.1143 32.232 69.1058C31.481 67.0582 30.239 65.226 28.616 63.7694C29.07 67.6516 28.389 67.078 28.616 70.2398C28.786 71.8917 29.515 73.4359 30.684 74.6156L29.964 74.3087C27.901 73.5744 25.932 72.6029 24.094 71.4138C25.001 69.6666 25.346 67.6814 25.081 65.7305C24.875 63.6066 24.23 61.5485 23.186 59.6871C22.786 63.4893 22.346 62.7422 21.932 65.7973C21.744 67.3885 22.002 69.0009 22.679 70.4532C20.751 69.0468 18.988 67.4267 17.423 65.6238C18.65 64.1558 19.35 62.3195 19.411 60.4075C19.558 58.3586 19.263 56.3019 18.544 54.3775C17.503 57.8728 17.21 57.0456 16.249 59.8739C15.828 61.2433 15.795 62.7029 16.156 64.0896C14.7 62.2213 13.432 60.2151 12.367 58.0996C13.821 56.93 14.856 55.3193 15.315 53.5103C15.903 51.4887 16.062 49.3667 15.782 47.2801C13.981 50.5086 13.848 49.6548 12.314 52.2029C11.674 53.312 11.325 54.5649 11.3 55.845C10.447 53.8567 9.75099 51.8048 9.21899 49.7082C10.857 48.8714 12.157 47.4957 12.901 45.8126C13.792 43.998 14.292 42.0163 14.368 39.996C12.154 42.6642 12.154 41.9037 10.366 43.9983C9.54 44.984 8.992 46.1721 8.778 47.4402C8.357 45.3466 8.098 43.2235 8.005 41.0899C9.524 40.5715 10.841 39.5863 11.767 38.275C12.877 36.8276 13.684 35.1716 14.141 33.4056C11.7 35.4734 11.873 34.7397 9.85899 36.3406C9.07499 36.9438 8.44 37.7199 8.005 38.6085C8.073 36.7719 8.282 34.9432 8.632 33.1388C10.137 33.0668 11.563 32.4394 12.634 31.3778C13.846 30.2673 14.794 28.8999 15.409 27.3755C12.901 28.7096 13.154 28.0959 11.1 29.1232C10.305 29.5316 9.63001 30.1382 9.13901 30.8842C9.23201 30.4973 9.339 30.1237 9.459 29.7369C9.792 28.6296 10.166 27.549 10.553 26.5084C11.309 26.586 12.074 26.5076 12.799 26.2782C13.524 26.0487 14.194 25.673 14.768 25.1743C15.968 24.2448 16.94 23.0539 17.61 21.6923C15.209 22.7462 15.475 22.1592 13.501 22.9463C12.507 23.4152 11.683 24.1793 11.14 25.1343C11.804 23.4786 12.57 21.8657 13.434 20.3049C14.156 20.5222 14.917 20.5764 15.662 20.4633C16.408 20.3502 17.119 20.0728 17.743 19.6511C18.956 18.8899 19.971 17.8521 20.705 16.6228C18.33 17.3432 18.637 16.8229 16.703 17.3298C15.463 17.7439 14.419 18.5984 13.768 19.7312C14.76 17.9682 15.902 16.2944 17.183 14.7284C17.794 15.0544 18.469 15.2425 19.16 15.2793C19.852 15.3162 20.543 15.201 21.185 14.9418C22.456 14.4674 23.585 13.6778 24.467 12.6472C22.119 12.8473 22.479 12.3937 20.572 12.4871C19.691 12.5497 18.857 12.9015 18.197 13.4877C19.149 12.5056 20.16 11.5834 21.225 10.7261C21.743 11.0381 22.318 11.2427 22.916 11.3275C23.514 11.4123 24.124 11.3756 24.707 11.2197C25.831 10.9767 26.881 10.4741 27.776 9.75219C25.748 9.75219 26.108 9.41866 24.481 9.35196C23.563 9.33839 22.665 9.6189 21.919 10.1524C23.01 9.27252 24.155 8.46159 25.348 7.72437C25.694 8.10592 26.127 8.39935 26.609 8.58032C27.092 8.76129 27.611 8.82459 28.123 8.76496C29.057 8.68284 29.947 8.33054 30.684 7.75105C29.78 7.50415 28.889 7.21025 28.016 6.87056C27.573 6.76263 27.108 6.79052 26.682 6.9506C27.642 6.43031 28.643 5.95004 29.67 5.50979C30.023 5.83812 30.449 6.07818 30.913 6.21035C31.377 6.34252 31.865 6.36303 32.338 6.27022C33.218 6.13026 34.035 5.73074 34.686 5.1229C33.846 4.94947 33.019 4.73602 32.192 4.48254C31.902 4.41626 31.601 4.41626 31.311 4.48254C31.942 4.06355 32.46 3.49533 32.819 2.82827C33.406 1.49418 32.819 1.60091 33.913 0C32.789 0.42796 31.769 1.09218 30.924 1.94777C30.538 2.34158 30.235 2.80912 30.033 3.32254C29.832 3.83595 29.735 4.38472 29.75 4.93613C28.588 5.42814 27.453 5.98031 26.348 6.5904C27.08 5.92797 27.651 5.10646 28.016 4.18904C28.469 2.85495 27.922 3.02838 28.803 1.20068C27.738 1.91832 26.812 2.8222 26.068 3.86886C25.731 4.35326 25.493 4.90005 25.369 5.47729C25.246 6.05453 25.238 6.65063 25.348 7.23076C24.143 7.9544 22.985 8.75193 21.879 9.61878C22.643 8.69762 23.129 7.57771 23.28 6.39028C23.347 4.72267 22.76 5.0562 23.213 2.82827C22.176 3.81186 21.358 5.00281 20.812 6.32358C20.55 6.96456 20.432 7.65535 20.466 8.34699C20.501 9.03863 20.687 9.71421 21.012 10.3259C19.841 11.3059 18.731 12.3574 17.69 13.4743C18.34 12.2692 18.679 10.9212 18.677 9.55207C18.53 7.69769 17.97 8.21799 18.157 5.6432C17.2 6.98089 16.508 8.48863 16.116 10.0857C15.924 10.8133 15.884 11.5728 15.998 12.3165C16.113 13.0603 16.38 13.7723 16.783 14.4082C15.706 15.6799 14.708 17.0165 13.794 18.4104C14.29 17.1056 14.472 15.703 14.328 14.3148C13.955 12.287 13.408 12.9807 13.314 10.0857C12.449 11.6958 11.884 13.4498 11.647 15.262C11.522 16.0729 11.562 16.9006 11.764 17.6958C11.965 18.491 12.325 19.2377 12.821 19.8913C12.021 21.2889 11.304 22.7322 10.673 24.2137C10.98 22.8089 10.925 21.349 10.513 19.9713C9.699 17.8368 9.179 18.6372 8.511 15.5422C7.743 17.398 7.35701 19.3901 7.37801 21.3988C7.38501 22.3355 7.599 23.259 8.005 24.1032C8.411 24.9473 8.998 25.6912 9.726 26.2816C9.299 27.4289 8.925 28.6029 8.578 29.8169C8.418 30.4172 8.271 31.0042 8.138 31.6046C8.234 29.9159 7.87 28.2329 7.084 26.7352C5.75 24.694 5.35001 25.6545 4.01601 22.5861C3.60401 24.7182 3.63999 26.9126 4.12199 29.0298C4.32499 30.0272 4.75699 30.9636 5.38499 31.7649C6.01199 32.5661 6.81801 33.2101 7.73801 33.6457C7.36001 35.8005 7.15399 37.982 7.12399 40.1694C6.82199 38.346 6.07 36.6266 4.936 35.1666C3.228 33.4056 3.082 34.4328 1.121 31.5512C1.24 33.857 1.793 36.1198 2.748 38.2217C3.142 39.1593 3.74 39.997 4.5 40.6734C5.259 41.3498 6.16099 41.8476 7.13699 42.1305C7.19499 44.1042 7.40001 46.0708 7.75101 48.0139C7.12401 46.484 6.13 45.1323 4.856 44.0783C2.668 42.5708 2.668 43.7715 0 41.1566C0.575 43.5506 1.598 45.814 3.015 47.8271C3.626 48.7236 4.429 49.4726 5.366 50.0195C6.303 50.5665 7.35 50.8976 8.431 50.9889C8.944 52.9558 9.613 54.8786 10.433 56.7388C9.425 55.3145 8.06999 54.1711 6.49699 53.4169C3.92199 52.4164 4.24201 53.6037 0.934006 51.6426C2.05701 53.9164 3.61099 55.9506 5.50999 57.6326C6.33699 58.3981 7.329 58.9624 8.41 59.2817C9.49 59.601 10.63 59.6667 11.74 59.4737C12.655 61.1613 13.699 62.7759 14.862 64.3031C13.712 63.3119 12.339 62.6159 10.859 62.2753C8.19099 61.875 8.725 62.9556 5.19 61.8083C6.685 63.732 8.549 65.3377 10.673 66.531C11.633 67.0819 12.708 67.4002 13.813 67.4605C14.918 67.5207 16.022 67.3212 17.036 66.8779C18.223 68.1509 19.507 69.3286 20.878 70.3999C19.619 69.8458 18.251 69.5857 16.876 69.6394C14.101 69.8929 14.875 70.8401 11.046 70.5599C13.016 72.1259 15.286 73.2702 17.717 73.9218C18.82 74.2186 19.977 74.2587 21.099 74.0391C22.221 73.8194 23.277 73.3457 24.187 72.6545C26.073 73.7766 28.072 74.6977 30.15 75.4027C28.361 74.7996 26.438 74.7118 24.601 75.1492C21.732 76.1098 22.72 76.9502 18.624 77.5773C21.005 78.7994 23.621 79.4955 26.295 79.6184C27.566 79.7213 28.842 79.5041 30.007 78.9867C31.172 78.4694 32.189 77.6683 32.965 76.6567C34.932 77.5409 36.843 78.5433 38.689 79.6584Z" fill="#E5E5E5"/>
<path d="M39.4228 18.3894H41.2831L44.0224 26.219L46.7616 18.3894H48.622L44.7694 29.0535H43.2753L39.4228 18.3894ZM38.4193 18.3894H40.2724L40.6093 26.0212V29.0535H38.4193V18.3894ZM47.7724 18.3894H49.6327V29.0535H47.4354V26.0212L47.7724 18.3894ZM51.3902 25.1716V25.0178C51.3902 24.4368 51.4732 23.9021 51.6393 23.4138C51.8053 22.9207 52.047 22.4934 52.3644 22.1321C52.6817 21.7708 53.0724 21.49 53.5362 21.2898C54.0001 21.0847 54.5323 20.9822 55.1329 20.9822C55.7335 20.9822 56.2682 21.0847 56.7369 21.2898C57.2057 21.49 57.5987 21.7708 57.9161 22.1321C58.2384 22.4934 58.4825 22.9207 58.6485 23.4138C58.8145 23.9021 58.8976 24.4368 58.8976 25.0178V25.1716C58.8976 25.7478 58.8145 26.2825 58.6485 26.7756C58.4825 27.2639 58.2384 27.6912 57.9161 28.0574C57.5987 28.4187 57.2081 28.6995 56.7442 28.8997C56.2804 29.0999 55.7481 29.2 55.1476 29.2C54.547 29.2 54.0123 29.0999 53.5436 28.8997C53.0797 28.6995 52.6866 28.4187 52.3644 28.0574C52.047 27.6912 51.8053 27.2639 51.6393 26.7756C51.4732 26.2825 51.3902 25.7478 51.3902 25.1716ZM53.4996 25.0178V25.1716C53.4996 25.5037 53.5289 25.8137 53.5875 26.1018C53.6461 26.3899 53.7389 26.6438 53.8658 26.8635C53.9977 27.0784 54.1686 27.2468 54.3785 27.3689C54.5885 27.491 54.8448 27.552 55.1476 27.552C55.4405 27.552 55.692 27.491 55.902 27.3689C56.1119 27.2468 56.2804 27.0784 56.4073 26.8635C56.5343 26.6438 56.627 26.3899 56.6856 26.1018C56.7491 25.8137 56.7809 25.5037 56.7809 25.1716V25.0178C56.7809 24.6956 56.7491 24.3928 56.6856 24.1096C56.627 23.8215 56.5318 23.5676 56.4 23.3479C56.273 23.1233 56.1046 22.9475 55.8946 22.8206C55.6847 22.6936 55.4308 22.6301 55.1329 22.6301C54.8351 22.6301 54.5812 22.6936 54.3712 22.8206C54.1661 22.9475 53.9977 23.1233 53.8658 23.3479C53.7389 23.5676 53.6461 23.8215 53.5875 24.1096C53.5289 24.3928 53.4996 24.6956 53.4996 25.0178ZM64.7786 26.8635C64.7786 26.7122 64.7347 26.5754 64.6468 26.4534C64.5589 26.3313 64.3953 26.219 64.1561 26.1165C63.9217 26.009 63.5823 25.9114 63.138 25.8235C62.7376 25.7356 62.3641 25.6257 62.0174 25.4939C61.6756 25.3572 61.3777 25.1936 61.1238 25.0032C60.8748 24.8127 60.6795 24.5881 60.5379 24.3293C60.3963 24.0657 60.3255 23.7654 60.3255 23.4285C60.3255 23.0964 60.3963 22.7839 60.5379 22.491C60.6844 22.198 60.8919 21.9392 61.1604 21.7146C61.4339 21.4851 61.7659 21.3069 62.1565 21.1799C62.552 21.0481 62.9964 20.9822 63.4895 20.9822C64.178 20.9822 64.7688 21.092 65.262 21.3118C65.7601 21.5315 66.1409 21.8342 66.4046 22.22C66.6731 22.6008 66.8074 23.0354 66.8074 23.5237H64.698C64.698 23.3186 64.6541 23.1355 64.5662 22.9744C64.4832 22.8083 64.3514 22.679 64.1707 22.5862C63.9949 22.4885 63.7654 22.4397 63.4822 22.4397C63.2479 22.4397 63.0452 22.4812 62.8743 22.5642C62.7034 22.6423 62.5716 22.7498 62.4788 22.8865C62.3909 23.0183 62.347 23.1648 62.347 23.3259C62.347 23.448 62.3714 23.5579 62.4202 23.6555C62.4739 23.7483 62.5594 23.8337 62.6766 23.9119C62.7937 23.99 62.9451 24.0632 63.1307 24.1316C63.3211 24.1951 63.5555 24.2537 63.8338 24.3074C64.4051 24.4246 64.9153 24.5784 65.3645 24.7688C65.8138 24.9543 66.1702 25.2083 66.4339 25.5305C66.6976 25.8479 66.8294 26.2654 66.8294 26.783C66.8294 27.1345 66.7513 27.4568 66.595 27.7498C66.4388 28.0427 66.2142 28.2991 65.9212 28.5188C65.6282 28.7336 65.2767 28.9021 64.8665 29.0242C64.4612 29.1414 64.0047 29.2 63.4969 29.2C62.7596 29.2 62.1346 29.0681 61.6219 28.8044C61.1141 28.5408 60.7283 28.2063 60.4646 27.801C60.2059 27.3909 60.0765 26.9709 60.0765 26.5413H62.076C62.0857 26.8293 62.159 27.0613 62.2957 27.2371C62.4373 27.4128 62.6155 27.5398 62.8304 27.6179C63.0501 27.696 63.2869 27.7351 63.5408 27.7351C63.8143 27.7351 64.0413 27.6985 64.222 27.6252C64.4026 27.5471 64.5394 27.4446 64.6321 27.3176C64.7298 27.1858 64.7786 27.0344 64.7786 26.8635ZM72.3809 21.1287V22.6228H67.7666V21.1287H72.3809ZM68.9092 19.1731H71.0186V26.6658C71.0186 26.8953 71.0478 27.071 71.1064 27.1931C71.1699 27.3152 71.2627 27.4006 71.3848 27.4495C71.5068 27.4934 71.6606 27.5154 71.8462 27.5154C71.978 27.5154 72.0952 27.5105 72.1978 27.5007C72.3052 27.4861 72.3955 27.4714 72.4687 27.4568L72.4761 29.0095C72.2954 29.0681 72.1001 29.1145 71.8901 29.1487C71.6802 29.1829 71.4482 29.2 71.1943 29.2C70.7305 29.2 70.3252 29.1243 69.9785 28.9729C69.6367 28.8167 69.373 28.5676 69.1875 28.2258C69.002 27.884 68.9092 27.4348 68.9092 26.8782V19.1731ZM82.4218 18.3894V29.0535H80.2318V18.3894H82.4218ZM85.703 18.3894V20.1106H77.0019V18.3894H85.703ZM88.7203 22.8572V29.0535H86.6109V21.1287H88.5958L88.7203 22.8572ZM91.108 21.0774L91.0714 23.033C90.9688 23.0183 90.8443 23.0061 90.6978 22.9963C90.5562 22.9817 90.4269 22.9744 90.3097 22.9744C90.0118 22.9744 89.753 23.0134 89.5333 23.0916C89.3185 23.1648 89.1378 23.2747 88.9913 23.4211C88.8497 23.5676 88.7423 23.7458 88.669 23.9558C88.6007 24.1658 88.5616 24.405 88.5519 24.6736L88.127 24.5417C88.127 24.0291 88.1783 23.5579 88.2809 23.1282C88.3834 22.6936 88.5323 22.3152 88.7276 21.9929C88.9278 21.6707 89.172 21.4216 89.4601 21.2458C89.7481 21.0701 90.0777 20.9822 90.4488 20.9822C90.566 20.9822 90.6856 20.9919 90.8077 21.0115C90.9298 21.0261 91.0299 21.0481 91.108 21.0774ZM97.0916 27.1565V21.1287H99.201V29.0535H97.2161L97.0916 27.1565ZM97.326 25.5305L97.9485 25.5159C97.9485 26.0432 97.8875 26.5339 97.7654 26.988C97.6434 27.4373 97.4603 27.8279 97.2161 28.1599C96.972 28.4871 96.6644 28.7434 96.2933 28.929C95.9222 29.1096 95.4852 29.2 94.9822 29.2C94.5965 29.2 94.24 29.1462 93.9129 29.0388C93.5906 28.9265 93.3123 28.7532 93.0779 28.5188C92.8484 28.2795 92.6678 27.9744 92.5359 27.6033C92.409 27.2273 92.3455 26.7756 92.3455 26.2483V21.1287H94.4549V26.2629C94.4549 26.4973 94.4817 26.6951 94.5354 26.8562C94.594 27.0173 94.6746 27.1492 94.7771 27.2517C94.8797 27.3542 94.9993 27.4275 95.136 27.4714C95.2776 27.5154 95.4339 27.5374 95.6048 27.5374C96.0394 27.5374 96.3811 27.4495 96.6302 27.2737C96.8841 27.0979 97.0623 26.8586 97.1648 26.5559C97.2723 26.2483 97.326 25.9065 97.326 25.5305ZM105.397 26.8635C105.397 26.7122 105.353 26.5754 105.265 26.4534C105.177 26.3313 105.014 26.219 104.774 26.1165C104.54 26.009 104.201 25.9114 103.756 25.8235C103.356 25.7356 102.982 25.6257 102.636 25.4939C102.294 25.3572 101.996 25.1936 101.742 25.0032C101.493 24.8127 101.298 24.5881 101.156 24.3293C101.015 24.0657 100.944 23.7654 100.944 23.4285C100.944 23.0964 101.015 22.7839 101.156 22.491C101.303 22.198 101.51 21.9392 101.779 21.7146C102.052 21.4851 102.384 21.3069 102.775 21.1799C103.17 21.0481 103.615 20.9822 104.108 20.9822C104.796 20.9822 105.387 21.092 105.88 21.3118C106.378 21.5315 106.759 21.8342 107.023 22.22C107.292 22.6008 107.426 23.0354 107.426 23.5237H105.316C105.316 23.3186 105.272 23.1355 105.185 22.9744C105.102 22.8083 104.97 22.679 104.789 22.5862C104.613 22.4885 104.384 22.4397 104.101 22.4397C103.866 22.4397 103.664 22.4812 103.493 22.5642C103.322 22.6423 103.19 22.7498 103.097 22.8865C103.009 23.0183 102.965 23.1648 102.965 23.3259C102.965 23.448 102.99 23.5579 103.039 23.6555C103.092 23.7483 103.178 23.8337 103.295 23.9119C103.412 23.99 103.563 24.0632 103.749 24.1316C103.939 24.1951 104.174 24.2537 104.452 24.3074C105.023 24.4246 105.534 24.5784 105.983 24.7688C106.432 24.9543 106.789 25.2083 107.052 25.5305C107.316 25.8479 107.448 26.2654 107.448 26.783C107.448 27.1345 107.37 27.4568 107.213 27.7498C107.057 28.0427 106.833 28.2991 106.54 28.5188C106.247 28.7336 105.895 28.9021 105.485 29.0242C105.08 29.1414 104.623 29.2 104.115 29.2C103.378 29.2 102.753 29.0681 102.24 28.8044C101.732 28.5408 101.347 28.2063 101.083 27.801C100.824 27.3909 100.695 26.9709 100.695 26.5413H102.694C102.704 26.8293 102.777 27.0613 102.914 27.2371C103.056 27.4128 103.234 27.5398 103.449 27.6179C103.668 27.696 103.905 27.7351 104.159 27.7351C104.433 27.7351 104.66 27.6985 104.84 27.6252C105.021 27.5471 105.158 27.4446 105.25 27.3176C105.348 27.1858 105.397 27.0344 105.397 26.8635ZM112.999 21.1287V22.6228H108.385V21.1287H112.999ZM109.528 19.1731H111.637V26.6658C111.637 26.8953 111.666 27.071 111.725 27.1931C111.788 27.3152 111.881 27.4006 112.003 27.4495C112.125 27.4934 112.279 27.5154 112.465 27.5154C112.596 27.5154 112.714 27.5105 112.816 27.5007C112.924 27.4861 113.014 27.4714 113.087 27.4568L113.094 29.0095C112.914 29.0681 112.718 29.1145 112.508 29.1487C112.299 29.1829 112.067 29.2 111.813 29.2C111.349 29.2 110.944 29.1243 110.597 28.9729C110.255 28.8167 109.991 28.5676 109.806 28.2258C109.62 27.884 109.528 27.4348 109.528 26.8782V19.1731ZM118.148 29.2C117.533 29.2 116.981 29.1023 116.493 28.907C116.004 28.7068 115.589 28.4309 115.247 28.0793C114.911 27.7278 114.652 27.3201 114.471 26.8562C114.29 26.3875 114.2 25.8894 114.2 25.3621V25.0691C114.2 24.4685 114.286 23.9192 114.456 23.4211C114.627 22.9231 114.871 22.491 115.189 22.1248C115.511 21.7585 115.902 21.4778 116.361 21.2825C116.82 21.0823 117.337 20.9822 117.913 20.9822C118.475 20.9822 118.973 21.075 119.408 21.2605C119.842 21.446 120.206 21.7097 120.499 22.0515C120.797 22.3933 121.021 22.8035 121.173 23.282C121.324 23.7556 121.4 24.283 121.4 24.864V25.7429H115.101V24.3367H119.327V24.1755C119.327 23.8826 119.273 23.6213 119.166 23.3918C119.063 23.1575 118.907 22.9719 118.697 22.8352C118.487 22.6985 118.219 22.6301 117.892 22.6301C117.613 22.6301 117.374 22.6912 117.174 22.8132C116.974 22.9353 116.81 23.1062 116.683 23.3259C116.561 23.5457 116.468 23.8044 116.405 24.1023C116.346 24.3953 116.317 24.7175 116.317 25.0691V25.3621C116.317 25.6794 116.361 25.9724 116.449 26.241C116.541 26.5095 116.671 26.7415 116.837 26.9368C117.008 27.1321 117.213 27.2834 117.452 27.3909C117.696 27.4983 117.972 27.552 118.28 27.552C118.661 27.552 119.015 27.4788 119.342 27.3323C119.674 27.1809 119.959 26.9539 120.199 26.6511L121.224 27.7644C121.058 28.0037 120.831 28.2332 120.543 28.4529C120.26 28.6726 119.918 28.8533 119.517 28.9949C119.117 29.1316 118.661 29.2 118.148 29.2ZM127.581 27.325V17.8035H129.705V29.0535H127.794L127.581 27.325ZM122.571 25.1863V25.0325C122.571 24.427 122.64 23.8777 122.776 23.3845C122.913 22.8865 123.113 22.4592 123.377 22.1028C123.641 21.7463 123.965 21.4705 124.351 21.2751C124.737 21.0798 125.176 20.9822 125.67 20.9822C126.133 20.9822 126.539 21.0798 126.885 21.2751C127.237 21.4705 127.535 21.7488 127.779 22.1101C128.028 22.4666 128.228 22.8889 128.379 23.3772C128.531 23.8606 128.641 24.3904 128.709 24.9666V25.3035C128.641 25.8552 128.531 26.3679 128.379 26.8416C128.228 27.3152 128.028 27.7302 127.779 28.0867C127.535 28.4382 127.237 28.7117 126.885 28.907C126.534 29.1023 126.124 29.2 125.655 29.2C125.162 29.2 124.722 29.0999 124.337 28.8997C123.956 28.6995 123.633 28.4187 123.37 28.0574C123.111 27.696 122.913 27.2712 122.776 26.783C122.64 26.2947 122.571 25.7625 122.571 25.1863ZM124.681 25.0325V25.1863C124.681 25.5134 124.705 25.8186 124.754 26.1018C124.808 26.385 124.893 26.6365 125.01 26.8562C125.132 27.071 125.289 27.2395 125.479 27.3616C125.674 27.4788 125.911 27.5374 126.19 27.5374C126.551 27.5374 126.849 27.4568 127.083 27.2957C127.317 27.1296 127.496 26.9026 127.618 26.6145C127.745 26.3264 127.818 25.9944 127.838 25.6184V24.6589C127.823 24.3513 127.779 24.0754 127.706 23.8313C127.637 23.5823 127.535 23.3699 127.398 23.1941C127.266 23.0183 127.1 22.8816 126.9 22.7839C126.705 22.6863 126.473 22.6375 126.204 22.6375C125.931 22.6375 125.696 22.7009 125.501 22.8279C125.306 22.95 125.147 23.1184 125.025 23.3333C124.908 23.5481 124.82 23.802 124.761 24.095C124.708 24.3831 124.681 24.6956 124.681 25.0325ZM48.0504 36.3894V47.0535H45.8605V36.3894H48.0504ZM52.3421 40.8206V47.0535H50.2327V39.1287H52.2103L52.3421 40.8206ZM52.0345 42.8127H51.4632C51.4632 42.2268 51.5389 41.6995 51.6902 41.2307C51.8416 40.7571 52.054 40.3542 52.3274 40.0222C52.6009 39.6853 52.9256 39.429 53.3016 39.2532C53.6824 39.0725 54.1072 38.9822 54.576 38.9822C54.9471 38.9822 55.2864 39.0359 55.594 39.1433C55.9017 39.2507 56.1653 39.4216 56.3851 39.656C56.6097 39.8904 56.7806 40.2004 56.8978 40.5862C57.0198 40.9719 57.0809 41.4431 57.0809 41.9998V47.0535H54.9568V41.9924C54.9568 41.6409 54.908 41.3674 54.8104 41.1721C54.7127 40.9768 54.5687 40.8401 54.3782 40.762C54.1927 40.679 53.9632 40.6375 53.6897 40.6375C53.4065 40.6375 53.16 40.6936 52.95 40.8059C52.7449 40.9182 52.574 41.0745 52.4373 41.2747C52.3055 41.47 52.2054 41.6995 52.137 41.9631C52.0687 42.2268 52.0345 42.51 52.0345 42.8127ZM61.6802 45.5154L63.438 39.1287H65.6426L62.9692 47.0535H61.6362L61.6802 45.5154ZM60.4717 39.1287L62.2368 45.5227L62.2734 47.0535H60.9331L58.2598 39.1287H60.4717ZM70.4323 47.2C69.8171 47.2 69.2653 47.1023 68.7771 46.907C68.2888 46.7068 67.8737 46.4309 67.5319 46.0793C67.195 45.7278 66.9362 45.3201 66.7556 44.8562C66.5749 44.3875 66.4846 43.8894 66.4846 43.3621V43.0691C66.4846 42.4685 66.57 41.9192 66.7409 41.4211C66.9118 40.9231 67.156 40.491 67.4733 40.1248C67.7956 39.7585 68.1862 39.4778 68.6452 39.2825C69.1042 39.0823 69.6218 38.9822 70.198 38.9822C70.7595 38.9822 71.2575 39.075 71.6921 39.2605C72.1267 39.446 72.4904 39.7097 72.7834 40.0515C73.0813 40.3933 73.3059 40.8035 73.4572 41.282C73.6086 41.7556 73.6843 42.283 73.6843 42.864V43.7429H67.3855V42.3367H71.6115V42.1755C71.6115 41.8826 71.5578 41.6213 71.4504 41.3918C71.3479 41.1575 71.1916 40.9719 70.9816 40.8352C70.7717 40.6985 70.5031 40.6301 70.176 40.6301C69.8977 40.6301 69.6584 40.6912 69.4582 40.8132C69.258 40.9353 69.0944 41.1062 68.9675 41.3259C68.8454 41.5457 68.7526 41.8044 68.6892 42.1023C68.6306 42.3953 68.6013 42.7175 68.6013 43.0691V43.3621C68.6013 43.6794 68.6452 43.9724 68.7331 44.241C68.8259 44.5095 68.9553 44.7415 69.1213 44.9368C69.2922 45.1321 69.4973 45.2834 69.7365 45.3909C69.9807 45.4983 70.2565 45.552 70.5642 45.552C70.945 45.552 71.299 45.4788 71.6262 45.3323C71.9582 45.1809 72.2438 44.9539 72.4831 44.6511L73.5085 45.7644C73.3425 46.0037 73.1154 46.2332 72.8273 46.4529C72.5441 46.6726 72.2023 46.8533 71.802 46.9949C71.4016 47.1316 70.945 47.2 70.4323 47.2ZM79.4701 44.8635C79.4701 44.7122 79.4262 44.5754 79.3383 44.4534C79.2504 44.3313 79.0868 44.219 78.8476 44.1165C78.6132 44.009 78.2738 43.9114 77.8295 43.8235C77.4291 43.7356 77.0556 43.6257 76.7089 43.4939C76.3671 43.3572 76.0692 43.1936 75.8153 43.0032C75.5663 42.8127 75.371 42.5881 75.2294 42.3293C75.0878 42.0657 75.017 41.7654 75.017 41.4285C75.017 41.0964 75.0878 40.7839 75.2294 40.491C75.3759 40.198 75.5834 39.9392 75.852 39.7146C76.1254 39.4851 76.4574 39.3069 76.848 39.1799C77.2436 39.0481 77.6879 38.9822 78.1811 38.9822C78.8695 38.9822 79.4604 39.092 79.9535 39.3118C80.4516 39.5315 80.8324 39.8342 81.0961 40.22C81.3647 40.6008 81.4989 41.0354 81.4989 41.5237H79.3896C79.3896 41.3186 79.3456 41.1355 79.2577 40.9744C79.1747 40.8083 79.0429 40.679 78.8622 40.5862C78.6864 40.4885 78.4569 40.4397 78.1737 40.4397C77.9394 40.4397 77.7367 40.4812 77.5658 40.5642C77.3949 40.6423 77.2631 40.7498 77.1703 40.8865C77.0824 41.0183 77.0385 41.1648 77.0385 41.3259C77.0385 41.448 77.0629 41.5579 77.1117 41.6555C77.1654 41.7483 77.2509 41.8337 77.3681 41.9119C77.4853 41.99 77.6366 42.0632 77.8222 42.1316C78.0126 42.1951 78.247 42.2537 78.5253 42.3074C79.0966 42.4246 79.6068 42.5784 80.0561 42.7688C80.5053 42.9543 80.8617 43.2083 81.1254 43.5305C81.3891 43.8479 81.5209 44.2654 81.5209 44.783C81.5209 45.1345 81.4428 45.4568 81.2865 45.7498C81.1303 46.0427 80.9057 46.2991 80.6127 46.5188C80.3197 46.7336 79.9682 46.9021 79.558 47.0242C79.1527 47.1414 78.6962 47.2 78.1884 47.2C77.4511 47.2 76.8261 47.0681 76.3134 46.8044C75.8056 46.5408 75.4198 46.2063 75.1562 45.801C74.8974 45.3909 74.768 44.9709 74.768 44.5413H76.7675C76.7772 44.8293 76.8505 45.0613 76.9872 45.2371C77.1288 45.4128 77.307 45.5398 77.5219 45.6179C77.7416 45.696 77.9784 45.7351 78.2323 45.7351C78.5058 45.7351 78.7328 45.6985 78.9135 45.6252C79.0941 45.5471 79.2309 45.4446 79.3236 45.3176C79.4213 45.1858 79.4701 45.0344 79.4701 44.8635ZM87.0724 39.1287V40.6228H82.4581V39.1287H87.0724ZM83.6007 37.1731H85.7101V44.6658C85.7101 44.8953 85.7394 45.071 85.798 45.1931C85.8614 45.3152 85.9542 45.4006 86.0763 45.4495C86.1983 45.4934 86.3521 45.5154 86.5377 45.5154C86.6695 45.5154 86.7867 45.5105 86.8893 45.5007C86.9967 45.4861 87.087 45.4714 87.1603 45.4568L87.1676 47.0095C86.9869 47.0681 86.7916 47.1145 86.5816 47.1487C86.3717 47.1829 86.1397 47.2 85.8858 47.2C85.422 47.2 85.0167 47.1243 84.67 46.9729C84.3282 46.8167 84.0646 46.5676 83.879 46.2258C83.6935 45.884 83.6007 45.4348 83.6007 44.8782V37.1731ZM90.6829 40.7693V47.0535H88.5662V39.1287H90.5511L90.6829 40.7693ZM90.3899 42.8127H89.804C89.804 42.261 89.8699 41.7532 90.0018 41.2893C90.1385 40.8206 90.3362 40.4153 90.595 40.0735C90.8587 39.7268 91.1834 39.4583 91.5691 39.2678C91.9549 39.0774 92.4017 38.9822 92.9095 38.9822C93.261 38.9822 93.5833 39.0359 93.8763 39.1433C94.1692 39.2458 94.4207 39.4094 94.6307 39.634C94.8455 39.8538 95.0115 40.1418 95.1287 40.4983C95.2459 40.8499 95.3045 41.2722 95.3045 41.7654V47.0535H93.1951V41.9998C93.1951 41.6384 93.1463 41.3601 93.0486 41.1648C92.951 40.9695 92.8118 40.8328 92.6312 40.7546C92.4554 40.6765 92.243 40.6375 91.9939 40.6375C91.7205 40.6375 91.4813 40.6936 91.2762 40.8059C91.076 40.9182 90.91 41.0745 90.7781 41.2747C90.6463 41.47 90.5486 41.6995 90.4852 41.9631C90.4217 42.2268 90.3899 42.51 90.3899 42.8127ZM95.1067 42.571L94.3523 42.6663C94.3523 42.1487 94.4158 41.6677 94.5428 41.2234C94.6746 40.7791 94.8675 40.3884 95.1214 40.0515C95.3802 39.7146 95.7 39.4534 96.0809 39.2678C96.4617 39.0774 96.9012 38.9822 97.3992 38.9822C97.7801 38.9822 98.1268 39.0383 98.4393 39.1506C98.7518 39.2581 99.0179 39.4314 99.2376 39.6707C99.4622 39.905 99.6331 40.2126 99.7503 40.5935C99.8724 40.9744 99.9334 41.4407 99.9334 41.9924V47.0535H97.8167V41.9924C97.8167 41.6262 97.7679 41.3479 97.6702 41.1575C97.5774 40.9622 97.4407 40.8279 97.2601 40.7546C97.0843 40.6765 96.8743 40.6375 96.6302 40.6375C96.3763 40.6375 96.1541 40.6887 95.9637 40.7913C95.7732 40.8889 95.6146 41.0256 95.4876 41.2014C95.3606 41.3772 95.2654 41.5823 95.202 41.8167C95.1385 42.0461 95.1067 42.2976 95.1067 42.571ZM105.514 47.2C104.899 47.2 104.347 47.1023 103.859 46.907C103.371 46.7068 102.956 46.4309 102.614 46.0793C102.277 45.7278 102.018 45.3201 101.837 44.8562C101.657 44.3875 101.566 43.8894 101.566 43.3621V43.0691C101.566 42.4685 101.652 41.9192 101.823 41.4211C101.994 40.9231 102.238 40.491 102.555 40.1248C102.877 39.7585 103.268 39.4778 103.727 39.2825C104.186 39.0823 104.704 38.9822 105.28 38.9822C105.841 38.9822 106.339 39.075 106.774 39.2605C107.208 39.446 107.572 39.7097 107.865 40.0515C108.163 40.3933 108.388 40.8035 108.539 41.282C108.69 41.7556 108.766 42.283 108.766 42.864V43.7429H102.467V42.3367H106.693V42.1755C106.693 41.8826 106.64 41.6213 106.532 41.3918C106.43 41.1575 106.273 40.9719 106.063 40.8352C105.854 40.6985 105.585 40.6301 105.258 40.6301C104.979 40.6301 104.74 40.6912 104.54 40.8132C104.34 40.9353 104.176 41.1062 104.049 41.3259C103.927 41.5457 103.834 41.8044 103.771 42.1023C103.712 42.3953 103.683 42.7175 103.683 43.0691V43.3621C103.683 43.6794 103.727 43.9724 103.815 44.241C103.908 44.5095 104.037 44.7415 104.203 44.9368C104.374 45.1321 104.579 45.2834 104.818 45.3909C105.062 45.4983 105.338 45.552 105.646 45.552C106.027 45.552 106.381 45.4788 106.708 45.3323C107.04 45.1809 107.326 44.9539 107.565 44.6511L108.59 45.7644C108.424 46.0037 108.197 46.2332 107.909 46.4529C107.626 46.6726 107.284 46.8533 106.884 46.9949C106.483 47.1316 106.027 47.2 105.514 47.2ZM112.333 40.8206V47.0535H110.223V39.1287H112.201L112.333 40.8206ZM112.025 42.8127H111.454C111.454 42.2268 111.529 41.6995 111.681 41.2307C111.832 40.7571 112.045 40.3542 112.318 40.0222C112.592 39.6853 112.916 39.429 113.292 39.2532C113.673 39.0725 114.098 38.9822 114.567 38.9822C114.938 38.9822 115.277 39.0359 115.585 39.1433C115.892 39.2507 116.156 39.4216 116.376 39.656C116.6 39.8904 116.771 40.2004 116.888 40.5862C117.01 40.9719 117.071 41.4431 117.071 41.9998V47.0535H114.947V41.9924C114.947 41.6409 114.899 41.3674 114.801 41.1721C114.703 40.9768 114.559 40.8401 114.369 40.762C114.183 40.679 113.954 40.6375 113.68 40.6375C113.397 40.6375 113.151 40.6936 112.941 40.8059C112.736 40.9182 112.565 41.0745 112.428 41.2747C112.296 41.47 112.196 41.6995 112.128 41.9631C112.059 42.2268 112.025 42.51 112.025 42.8127ZM122.857 39.1287V40.6228H118.243V39.1287H122.857ZM119.386 37.1731H121.495V44.6658C121.495 44.8953 121.524 45.071 121.583 45.1931C121.646 45.3152 121.739 45.4006 121.861 45.4495C121.983 45.4934 122.137 45.5154 122.323 45.5154C122.454 45.5154 122.572 45.5105 122.674 45.5007C122.782 45.4861 122.872 45.4714 122.945 45.4568L122.953 47.0095C122.772 47.0681 122.577 47.1145 122.367 47.1487C122.157 47.1829 121.925 47.2 121.671 47.2C121.207 47.2 120.802 47.1243 120.455 46.9729C120.113 46.8167 119.85 46.5676 119.664 46.2258C119.478 45.884 119.386 45.4348 119.386 44.8782V37.1731ZM58.5164 61.2522H55.7991V59.5383H58.5164C58.9363 59.5383 59.2781 59.47 59.5418 59.3333C59.8055 59.1917 59.9983 58.9963 60.1204 58.7473C60.2425 58.4983 60.3035 58.2175 60.3035 57.905C60.3035 57.5876 60.2425 57.2922 60.1204 57.0188C59.9983 56.7454 59.8055 56.5256 59.5418 56.3596C59.2781 56.1936 58.9363 56.1106 58.5164 56.1106H56.5608V65.0535H54.3636V54.3894H58.5164C59.3514 54.3894 60.0667 54.5408 60.6624 54.8435C61.263 55.1414 61.722 55.554 62.0394 56.0813C62.3567 56.6086 62.5154 57.2117 62.5154 57.8904C62.5154 58.5789 62.3567 59.1746 62.0394 59.6775C61.722 60.1804 61.263 60.5686 60.6624 60.842C60.0667 61.1155 59.3514 61.2522 58.5164 61.2522ZM66.4263 53.8035V65.0535H64.3096V53.8035H66.4263ZM72.7468 63.2664V59.7361C72.7468 59.4822 72.7053 59.2649 72.6223 59.0842C72.5393 58.8987 72.4099 58.7546 72.2341 58.6521C72.0632 58.5496 71.841 58.4983 71.5676 58.4983C71.3332 58.4983 71.1306 58.5398 70.9597 58.6228C70.7888 58.7009 70.6569 58.8157 70.5642 58.967C70.4714 59.1135 70.425 59.2869 70.425 59.4871H68.3156C68.3156 59.1501 68.3938 58.8303 68.55 58.5276C68.7063 58.2249 68.9333 57.9587 69.2312 57.7292C69.529 57.4949 69.883 57.3118 70.2932 57.1799C70.7082 57.0481 71.1721 56.9822 71.6848 56.9822C72.3 56.9822 72.8469 57.0847 73.3254 57.2898C73.8039 57.4949 74.1799 57.8025 74.4533 58.2126C74.7316 58.6228 74.8708 59.1355 74.8708 59.7507V63.1418C74.8708 63.5764 74.8977 63.9329 74.9514 64.2112C75.0051 64.4846 75.0832 64.7239 75.1857 64.929V65.0535H73.0544C72.9519 64.8386 72.8737 64.5701 72.82 64.2478C72.7712 63.9207 72.7468 63.5935 72.7468 63.2664ZM73.0251 60.2268L73.0397 61.4207H71.8605C71.5822 61.4207 71.3405 61.4524 71.1355 61.5159C70.9304 61.5793 70.7619 61.6697 70.6301 61.7869C70.4982 61.8992 70.4006 62.031 70.3371 62.1824C70.2785 62.3337 70.2492 62.4998 70.2492 62.6804C70.2492 62.8611 70.2907 63.0247 70.3737 63.1711C70.4567 63.3127 70.5764 63.425 70.7326 63.5081C70.8889 63.5862 71.072 63.6252 71.2819 63.6252C71.5993 63.6252 71.8752 63.5618 72.1096 63.4348C72.3439 63.3079 72.5246 63.1516 72.6516 62.9661C72.7834 62.7805 72.8518 62.6047 72.8566 62.4387L73.4133 63.3323C73.3352 63.5325 73.2277 63.74 73.091 63.9548C72.9592 64.1697 72.7907 64.3723 72.5856 64.5627C72.3806 64.7483 72.134 64.9021 71.8459 65.0242C71.5578 65.1414 71.216 65.2 70.8205 65.2C70.3176 65.2 69.861 65.0999 69.4509 64.8997C69.0456 64.6946 68.7233 64.4138 68.4841 64.0574C68.2497 63.696 68.1325 63.2859 68.1325 62.8269C68.1325 62.4119 68.2106 62.0432 68.3669 61.7209C68.5231 61.3987 68.7526 61.1277 69.0554 60.908C69.363 60.6833 69.7463 60.5149 70.2053 60.4026C70.6643 60.2854 71.1965 60.2268 71.802 60.2268H73.0251ZM80.6786 57.1287V58.6228H76.0644V57.1287H80.6786ZM77.2069 55.1731H79.3163V62.6658C79.3163 62.8953 79.3456 63.071 79.4042 63.1931C79.4677 63.3152 79.5604 63.4006 79.6825 63.4495C79.8046 63.4934 79.9584 63.5154 80.1439 63.5154C80.2758 63.5154 80.393 63.5105 80.4955 63.5007C80.6029 63.4861 80.6933 63.4714 80.7665 63.4568L80.7738 65.0095C80.5932 65.0681 80.3979 65.1145 80.1879 65.1487C79.9779 65.1829 79.746 65.2 79.4921 65.2C79.0282 65.2 78.6229 65.1243 78.2763 64.9729C77.9345 64.8167 77.6708 64.5676 77.4853 64.2258C77.2997 63.884 77.2069 63.4348 77.2069 62.8782V55.1731ZM84.8678 65.0535H82.7438V56.4255C82.7438 55.825 82.8609 55.3196 83.0953 54.9094C83.3346 54.4944 83.669 54.1819 84.0987 53.9719C84.5333 53.7571 85.0484 53.6497 85.6441 53.6497C85.8395 53.6497 86.0274 53.6643 86.2081 53.6936C86.3888 53.718 86.5646 53.7498 86.7355 53.7888L86.7135 55.3782C86.6207 55.3538 86.523 55.3367 86.4205 55.3269C86.318 55.3171 86.1983 55.3123 86.0616 55.3123C85.8077 55.3123 85.5904 55.3562 85.4098 55.4441C85.234 55.5271 85.0997 55.6516 85.0069 55.8176C84.9142 55.9836 84.8678 56.1863 84.8678 56.4255V65.0535ZM86.4498 57.1287V58.6228H81.5646V57.1287H86.4498ZM87.5188 61.1716V61.0178C87.5188 60.4368 87.6019 59.9021 87.7679 59.4138C87.9339 58.9207 88.1756 58.4934 88.493 58.1321C88.8104 57.7708 89.201 57.49 89.6648 57.2898C90.1287 57.0847 90.6609 56.9822 91.2615 56.9822C91.8621 56.9822 92.3968 57.0847 92.8655 57.2898C93.3343 57.49 93.7273 57.7708 94.0447 58.1321C94.367 58.4934 94.6111 58.9207 94.7771 59.4138C94.9432 59.9021 95.0262 60.4368 95.0262 61.0178V61.1716C95.0262 61.7478 94.9432 62.2825 94.7771 62.7756C94.6111 63.2639 94.367 63.6912 94.0447 64.0574C93.7273 64.4187 93.3367 64.6995 92.8729 64.8997C92.409 65.0999 91.8768 65.2 91.2762 65.2C90.6756 65.2 90.1409 65.0999 89.6722 64.8997C89.2083 64.6995 88.8152 64.4187 88.493 64.0574C88.1756 63.6912 87.9339 63.2639 87.7679 62.7756C87.6019 62.2825 87.5188 61.7478 87.5188 61.1716ZM89.6282 61.0178V61.1716C89.6282 61.5037 89.6575 61.8137 89.7161 62.1018C89.7747 62.3899 89.8675 62.6438 89.9944 62.8635C90.1263 63.0784 90.2972 63.2468 90.5071 63.3689C90.7171 63.491 90.9734 63.552 91.2762 63.552C91.5691 63.552 91.8206 63.491 92.0306 63.3689C92.2405 63.2468 92.409 63.0784 92.5359 62.8635C92.6629 62.6438 92.7557 62.3899 92.8143 62.1018C92.8777 61.8137 92.9095 61.5037 92.9095 61.1716V61.0178C92.9095 60.6956 92.8777 60.3928 92.8143 60.1096C92.7557 59.8215 92.6604 59.5676 92.5286 59.3479C92.4017 59.1233 92.2332 58.9475 92.0232 58.8206C91.8133 58.6936 91.5594 58.6301 91.2615 58.6301C90.9637 58.6301 90.7098 58.6936 90.4998 58.8206C90.2947 58.9475 90.1263 59.1233 89.9944 59.3479C89.8675 59.5676 89.7747 59.8215 89.7161 60.1096C89.6575 60.3928 89.6282 60.6956 89.6282 61.0178ZM98.7319 58.8572V65.0535H96.6226V57.1287H98.6074L98.7319 58.8572ZM101.12 57.0774L101.083 59.033C100.98 59.0183 100.856 59.0061 100.709 58.9963C100.568 58.9817 100.438 58.9744 100.321 58.9744C100.023 58.9744 99.7646 59.0134 99.5449 59.0916C99.3301 59.1648 99.1494 59.2747 99.0029 59.4211C98.8613 59.5676 98.7539 59.7458 98.6807 59.9558C98.6123 60.1658 98.5732 60.405 98.5635 60.6736L98.1387 60.5417C98.1387 60.0291 98.1899 59.5579 98.2925 59.1282C98.395 58.6936 98.5439 58.3152 98.7393 57.9929C98.9395 57.6707 99.1836 57.4216 99.4717 57.2458C99.7598 57.0701 100.089 56.9822 100.46 56.9822C100.578 56.9822 100.697 56.9919 100.819 57.0115C100.941 57.0261 101.042 57.0481 101.12 57.0774ZM104.525 58.7693V65.0535H102.408V57.1287H104.393L104.525 58.7693ZM104.232 60.8127H103.646C103.646 60.261 103.712 59.7532 103.844 59.2893C103.981 58.8206 104.178 58.4153 104.437 58.0735C104.701 57.7268 105.026 57.4583 105.411 57.2678C105.797 57.0774 106.244 56.9822 106.752 56.9822C107.103 56.9822 107.425 57.0359 107.718 57.1433C108.011 57.2458 108.263 57.4094 108.473 57.634C108.688 57.8538 108.854 58.1418 108.971 58.4983C109.088 58.8499 109.147 59.2722 109.147 59.7654V65.0535H107.037V59.9998C107.037 59.6384 106.988 59.3601 106.891 59.1648C106.793 58.9695 106.654 58.8328 106.473 58.7546C106.298 58.6765 106.085 58.6375 105.836 58.6375C105.563 58.6375 105.323 58.6936 105.118 58.8059C104.918 58.9182 104.752 59.0745 104.62 59.2747C104.488 59.47 104.391 59.6995 104.327 59.9631C104.264 60.2268 104.232 60.51 104.232 60.8127ZM108.949 60.571L108.195 60.6663C108.195 60.1487 108.258 59.6677 108.385 59.2234C108.517 58.7791 108.71 58.3884 108.964 58.0515C109.222 57.7146 109.542 57.4534 109.923 57.2678C110.304 57.0774 110.743 56.9822 111.241 56.9822C111.622 56.9822 111.969 57.0383 112.281 57.1506C112.594 57.2581 112.86 57.4314 113.08 57.6707C113.304 57.905 113.475 58.2126 113.592 58.5935C113.715 58.9744 113.776 59.4407 113.776 59.9924V65.0535H111.659V59.9924C111.659 59.6262 111.61 59.3479 111.512 59.1575C111.42 58.9622 111.283 58.8279 111.102 58.7546C110.926 58.6765 110.717 58.6375 110.472 58.6375C110.218 58.6375 109.996 58.6887 109.806 58.7913C109.615 58.8889 109.457 59.0256 109.33 59.2014C109.203 59.3772 109.108 59.5823 109.044 59.8167C108.981 60.0461 108.949 60.2976 108.949 60.571Z" fill="#E5E5E5"/>
<path d="M66.6314 91.0337V94H53.5005V91.4688L59.71 84.811C60.334 84.1167 60.8262 83.5059 61.1866 82.9785C61.5469 82.4424 61.8062 81.9634 61.9644 81.5415C62.1314 81.1108 62.2149 80.7021 62.2149 80.3154C62.2149 79.7354 62.1182 79.2388 61.9249 78.8257C61.7315 78.4038 61.4459 78.0786 61.0679 77.8501C60.6988 77.6216 60.2418 77.5073 59.6968 77.5073C59.1168 77.5073 58.6158 77.6479 58.1939 77.9292C57.7808 78.2104 57.4644 78.6016 57.2447 79.1025C57.0338 79.6035 56.9283 80.1704 56.9283 80.8032H53.1182C53.1182 79.6606 53.3907 78.6147 53.9356 77.6655C54.4805 76.7075 55.2496 75.9473 56.2427 75.3848C57.2359 74.8135 58.4136 74.5278 59.7759 74.5278C61.1207 74.5278 62.2545 74.7476 63.1773 75.187C64.1089 75.6177 64.8121 76.2417 65.2867 77.0591C65.7701 77.8677 66.0118 78.8345 66.0118 79.9595C66.0118 80.5923 65.9107 81.2119 65.7086 81.8184C65.5064 82.416 65.2164 83.0137 64.8384 83.6113C64.4693 84.2002 64.0211 84.7979 63.4937 85.4043C62.9664 86.0107 62.3819 86.6392 61.7403 87.2896L58.4048 91.0337H66.6314ZM82.4644 82.7148V86.0371C82.4644 87.4785 82.3106 88.7222 82.003 89.7681C81.6953 90.8052 81.2515 91.6577 80.6714 92.3257C80.1001 92.9849 79.419 93.4727 78.628 93.7891C77.8369 94.1055 76.958 94.2637 75.9912 94.2637C75.2178 94.2637 74.4971 94.167 73.8291 93.9736C73.1612 93.7715 72.5591 93.4595 72.023 93.0376C71.4956 92.6157 71.0386 92.084 70.6519 91.4424C70.2739 90.792 69.9839 90.0186 69.7818 89.1221C69.5796 88.2256 69.4785 87.1973 69.4785 86.0371V82.7148C69.4785 81.2734 69.6323 80.0386 69.94 79.0103C70.2564 77.9731 70.7002 77.125 71.2715 76.4658C71.8516 75.8066 72.5371 75.3232 73.3281 75.0156C74.1192 74.6992 74.9981 74.541 75.9649 74.541C76.7383 74.541 77.4546 74.6421 78.1138 74.8442C78.7818 75.0376 79.3838 75.3408 79.9199 75.7539C80.4561 76.167 80.9131 76.6987 81.291 77.3491C81.669 77.9907 81.959 78.7598 82.1612 79.6562C82.3633 80.5439 82.4644 81.5635 82.4644 82.7148ZM78.6543 86.5381V82.2007C78.6543 81.5063 78.6148 80.8999 78.5357 80.3813C78.4654 79.8628 78.3555 79.4233 78.2061 79.063C78.0567 78.6938 77.8721 78.395 77.6524 78.1665C77.4326 77.938 77.1821 77.771 76.9009 77.6655C76.6196 77.5601 76.3076 77.5073 75.9649 77.5073C75.5342 77.5073 75.1519 77.5908 74.8179 77.7578C74.4927 77.9248 74.2158 78.1929 73.9873 78.562C73.7588 78.9224 73.583 79.4058 73.46 80.0122C73.3457 80.6099 73.2886 81.3394 73.2886 82.2007V86.5381C73.2886 87.2324 73.3238 87.8433 73.3941 88.3706C73.4732 88.8979 73.5874 89.3506 73.7368 89.7285C73.895 90.0977 74.0796 90.4009 74.2905 90.6382C74.5103 90.8667 74.7608 91.0337 75.042 91.1392C75.3321 91.2446 75.6485 91.2974 75.9912 91.2974C76.4131 91.2974 76.7866 91.2139 77.1118 91.0469C77.4458 90.8711 77.7271 90.5986 77.9556 90.2295C78.1929 89.8516 78.3687 89.3594 78.4829 88.7529C78.5972 88.1465 78.6543 87.4082 78.6543 86.5381ZM98.7192 91.0337V94H85.5884V91.4688L91.7978 84.811C92.4219 84.1167 92.914 83.5059 93.2744 82.9785C93.6348 82.4424 93.894 81.9634 94.0522 81.5415C94.2192 81.1108 94.3027 80.7021 94.3027 80.3154C94.3027 79.7354 94.206 79.2388 94.0127 78.8257C93.8193 78.4038 93.5337 78.0786 93.1557 77.8501C92.7866 77.6216 92.3296 77.5073 91.7847 77.5073C91.2046 77.5073 90.7036 77.6479 90.2817 77.9292C89.8686 78.2104 89.5522 78.6016 89.3325 79.1025C89.1216 79.6035 89.0161 80.1704 89.0161 80.8032H85.206C85.206 79.6606 85.4785 78.6147 86.0234 77.6655C86.5683 76.7075 87.3374 75.9473 88.3306 75.3848C89.3237 74.8135 90.5014 74.5278 91.8638 74.5278C93.2085 74.5278 94.3423 74.7476 95.2651 75.187C96.1968 75.6177 96.8999 76.2417 97.3745 77.0591C97.8579 77.8677 98.0996 78.8345 98.0996 79.9595C98.0996 80.5923 97.9985 81.2119 97.7964 81.8184C97.5942 82.416 97.3042 83.0137 96.9263 83.6113C96.5571 84.2002 96.1089 84.7979 95.5815 85.4043C95.0542 86.0107 94.4697 86.6392 93.8281 87.2896L90.4927 91.0337H98.7192ZM114.763 91.0337V94H101.632V91.4688L107.842 84.811C108.466 84.1167 108.958 83.5059 109.318 82.9785C109.679 82.4424 109.938 81.9634 110.096 81.5415C110.263 81.1108 110.347 80.7021 110.347 80.3154C110.347 79.7354 110.25 79.2388 110.057 78.8257C109.863 78.4038 109.578 78.0786 109.2 77.8501C108.831 77.6216 108.373 77.5073 107.829 77.5073C107.248 77.5073 106.747 77.6479 106.326 77.9292C105.913 78.2104 105.596 78.6016 105.376 79.1025C105.165 79.6035 105.06 80.1704 105.06 80.8032H101.25C101.25 79.6606 101.522 78.6147 102.067 77.6655C102.612 76.7075 103.381 75.9473 104.374 75.3848C105.368 74.8135 106.545 74.5278 107.908 74.5278C109.252 74.5278 110.386 74.7476 111.309 75.187C112.241 75.6177 112.944 76.2417 113.418 77.0591C113.902 77.8677 114.143 78.8345 114.143 79.9595C114.143 80.5923 114.042 81.2119 113.84 81.8184C113.638 82.416 113.348 83.0137 112.97 83.6113C112.601 84.2002 112.153 84.7979 111.625 85.4043C111.098 86.0107 110.514 86.6392 109.872 87.2896L106.537 91.0337H114.763Z" fill="#E5E5E5"/>
</svg>
