<svg width="161" height="161" viewBox="0 0 161 161" fill="none" xmlns="http://www.w3.org/2000/svg">
<circle cx="80.5" cy="80.5" r="74.5" fill="white" stroke="#D3CC71" stroke-width="12"/>
<g filter="url(#filter0_d_5_288)">
<circle cx="80" cy="81" r="53" fill="white"/>
</g>
<path d="M99.5957 99.3208V108H61.1758V100.594L79.3442 81.1138C81.1701 79.0822 82.6102 77.2949 83.6646 75.752C84.7189 74.1833 85.4775 72.7817 85.9404 71.5474C86.429 70.2873 86.6733 69.0915 86.6733 67.96C86.6733 66.2627 86.3905 64.8097 85.8247 63.6011C85.259 62.3667 84.4232 61.4152 83.3174 60.7466C82.2373 60.078 80.9001 59.7437 79.3057 59.7437C77.6084 59.7437 76.1426 60.1551 74.9082 60.978C73.6995 61.8009 72.7738 62.9453 72.1309 64.4111C71.5137 65.877 71.2051 67.5356 71.2051 69.3872H60.0571C60.0571 66.0441 60.8543 62.9839 62.4487 60.2065C64.0431 57.4035 66.2933 55.179 69.1992 53.5332C72.1051 51.8617 75.5511 51.0259 79.5371 51.0259C83.4717 51.0259 86.7891 51.6688 89.4893 52.9546C92.2152 54.2147 94.2725 56.0405 95.6611 58.4321C97.0755 60.798 97.7827 63.6268 97.7827 66.9185C97.7827 68.77 97.487 70.583 96.8955 72.3574C96.304 74.1061 95.4554 75.8548 94.3496 77.6035C93.2695 79.3265 91.958 81.0752 90.415 82.8496C88.8721 84.624 87.1619 86.4627 85.2847 88.3657L75.5254 99.3208H99.5957Z" fill="#D3CC71"/>
<circle cx="119.5" cy="53.5" r="13.5" fill="#D3CC71"/>
<path d="M115.159 50.9507V50.3867C115.159 49.9814 115.247 49.6128 115.422 49.2808C115.598 48.9487 115.857 48.6826 116.199 48.4824C116.541 48.2822 116.96 48.1821 117.458 48.1821C117.971 48.1821 118.398 48.2822 118.74 48.4824C119.087 48.6826 119.346 48.9487 119.517 49.2808C119.692 49.6128 119.78 49.9814 119.78 50.3867V50.9507C119.78 51.3462 119.692 51.71 119.517 52.042C119.346 52.374 119.089 52.6401 118.748 52.8403C118.406 53.0405 117.983 53.1406 117.48 53.1406C116.973 53.1406 116.545 53.0405 116.199 52.8403C115.857 52.6401 115.598 52.374 115.422 52.042C115.247 51.71 115.159 51.3462 115.159 50.9507ZM116.558 50.3867V50.9507C116.558 51.1216 116.589 51.2852 116.653 51.4414C116.721 51.5928 116.824 51.7173 116.96 51.8149C117.102 51.9077 117.273 51.9541 117.473 51.9541C117.683 51.9541 117.854 51.9077 117.986 51.8149C118.118 51.7173 118.215 51.5928 118.279 51.4414C118.342 51.2852 118.374 51.1216 118.374 50.9507V50.3867C118.374 50.2061 118.34 50.04 118.271 49.8887C118.208 49.7324 118.108 49.6079 117.971 49.5151C117.839 49.4175 117.668 49.3687 117.458 49.3687C117.263 49.3687 117.097 49.4175 116.96 49.5151C116.824 49.6079 116.721 49.7324 116.653 49.8887C116.589 50.04 116.558 50.2061 116.558 50.3867ZM120.256 56.9492V56.3853C120.256 55.9849 120.344 55.6187 120.52 55.2866C120.701 54.9546 120.962 54.6885 121.304 54.4883C121.65 54.2881 122.075 54.188 122.578 54.188C123.086 54.188 123.511 54.2881 123.853 54.4883C124.194 54.6885 124.453 54.9546 124.629 55.2866C124.805 55.6187 124.893 55.9849 124.893 56.3853V56.9492C124.893 57.3496 124.805 57.7158 124.629 58.0479C124.458 58.3799 124.202 58.646 123.86 58.8462C123.518 59.0464 123.096 59.1465 122.593 59.1465C122.085 59.1465 121.658 59.0464 121.311 58.8462C120.964 58.646 120.701 58.3799 120.52 58.0479C120.344 57.7158 120.256 57.3496 120.256 56.9492ZM121.663 56.3853V56.9492C121.663 57.125 121.702 57.291 121.78 57.4473C121.858 57.6035 121.965 57.728 122.102 57.8208C122.244 57.9136 122.407 57.96 122.593 57.96C122.827 57.96 123.01 57.9136 123.142 57.8208C123.274 57.728 123.364 57.6035 123.413 57.4473C123.467 57.291 123.494 57.125 123.494 56.9492V56.3853C123.494 56.2095 123.459 56.0459 123.391 55.8945C123.323 55.7383 123.22 55.6138 123.083 55.521C122.952 55.4233 122.783 55.3745 122.578 55.3745C122.373 55.3745 122.202 55.4233 122.065 55.521C121.934 55.6138 121.833 55.7383 121.765 55.8945C121.697 56.0459 121.663 56.2095 121.663 56.3853ZM123.098 49.8594L117.891 58.1943L116.865 57.6523L122.073 49.3174L123.098 49.8594Z" fill="white"/>
<defs>
<filter id="filter0_d_5_288" x="12" y="15" width="136" height="136" filterUnits="userSpaceOnUse" color-interpolation-filters="sRGB">
<feFlood flood-opacity="0" result="BackgroundImageFix"/>
<feColorMatrix in="SourceAlpha" type="matrix" values="0 0 0 0 0 0 0 0 0 0 0 0 0 0 0 0 0 0 127 0" result="hardAlpha"/>
<feMorphology radius="3" operator="dilate" in="SourceAlpha" result="effect1_dropShadow_5_288"/>
<feOffset dy="2"/>
<feGaussianBlur stdDeviation="6"/>
<feComposite in2="hardAlpha" operator="out"/>
<feColorMatrix type="matrix" values="0 0 0 0 0 0 0 0 0 0 0 0 0 0 0 0 0 0 0.07 0"/>
<feBlend mode="normal" in2="BackgroundImageFix" result="effect1_dropShadow_5_288"/>
<feBlend mode="normal" in="SourceGraphic" in2="effect1_dropShadow_5_288" result="shape"/>
</filter>
</defs>
</svg>
